<svg xmlns="http://www.w3.org/2000/svg" xmlns:xlink="http://www.w3.org/1999/xlink" width="500" zoomAndPan="magnify" viewBox="0 0 375 374.999991" height="500" preserveAspectRatio="xMidYMid meet" version="1.0"><defs><g/><clipPath id="id1"><path d="M 85.664062 24.898438 L 286.664062 24.898438 L 286.664062 225.898438 L 85.664062 225.898438 Z M 85.664062 24.898438 " clip-rule="nonzero"/></clipPath></defs><g clip-path="url(#id1)"><path fill="#9a161f" d="M 186.152344 24.898438 C 241.65625 24.898438 286.664062 69.882812 286.664062 125.386719 C 286.664062 175.300781 250.28125 216.695312 202.578125 224.539062 L 202.578125 195.878906 C 225.472656 188.8125 242.214844 167.417969 242.214844 142.3125 L 242.214844 65.09375 L 211.519531 91.816406 L 186.152344 52.4375 L 160.785156 91.816406 L 130.109375 65.09375 L 130.109375 142.3125 C 130.109375 170.75 151.605469 194.441406 179.148438 197.914062 L 179.148438 174.582031 C 169.46875 171.570312 162.402344 162.507812 162.402344 151.871094 L 162.402344 120.65625 C 162.402344 107.582031 173.082031 96.886719 186.152344 96.886719 C 198.230469 96.886719 208.269531 106.007812 209.746094 117.703125 L 190.925781 117.703125 C 188.828125 117.703125 187.132812 119.417969 187.132812 121.496094 C 187.132812 123.589844 188.828125 125.308594 190.925781 125.308594 L 209.925781 125.308594 L 209.925781 132.472656 L 190.925781 132.472656 C 188.828125 132.472656 187.132812 134.167969 187.132812 136.265625 C 187.132812 138.359375 188.828125 140.074219 190.925781 140.074219 L 209.925781 140.074219 L 209.925781 147.222656 L 190.925781 147.222656 C 188.828125 147.222656 187.132812 148.9375 187.132812 151.03125 C 187.132812 153.128906 188.828125 154.824219 190.925781 154.824219 L 209.746094 154.824219 C 208.566406 164.164062 201.941406 171.851562 193.160156 174.582031 L 193.160156 225.636719 C 190.84375 225.796875 188.507812 225.898438 186.152344 225.898438 C 130.648438 225.898438 85.664062 180.890625 85.664062 125.386719 C 85.664062 69.882812 130.648438 24.898438 186.152344 24.898438 Z M 186.152344 24.898438 " fill-opacity="1" fill-rule="evenodd"/></g><g fill="#9a161f" fill-opacity="1"><g transform="translate(56.052243, 282.086198)"><g><path d="M 19.390625 -33.75 C 24.304688 -33.75 28.191406 -32.519531 31.046875 -30.0625 C 33.910156 -27.601562 35.34375 -24.09375 35.34375 -19.53125 L 25.171875 -19.53125 C 25.171875 -21.457031 24.660156 -22.984375 23.640625 -24.109375 C 22.628906 -25.234375 21.191406 -25.796875 19.328125 -25.796875 C 17.179688 -25.796875 15.597656 -25.117188 14.578125 -23.765625 C 13.566406 -22.421875 13.0625 -20.539062 13.0625 -18.125 L 13.0625 -15.046875 C 13.0625 -12.660156 13.566406 -10.785156 14.578125 -9.421875 C 15.597656 -8.054688 17.148438 -7.375 19.234375 -7.375 C 21.296875 -7.375 22.851562 -7.90625 23.90625 -8.96875 C 24.96875 -10.03125 25.5 -11.523438 25.5 -13.453125 L 35.34375 -13.453125 C 35.34375 -8.921875 33.953125 -5.445312 31.171875 -3.03125 C 28.390625 -0.625 24.460938 0.578125 19.390625 0.578125 C 13.722656 0.578125 9.4375 -0.863281 6.53125 -3.75 C 3.625 -6.644531 2.171875 -10.925781 2.171875 -16.59375 C 2.171875 -22.25 3.625 -26.519531 6.53125 -29.40625 C 9.4375 -32.300781 13.722656 -33.75 19.390625 -33.75 Z M 19.390625 -33.75 "/></g></g></g><g fill="#9a161f" fill-opacity="1"><g transform="translate(94.526079, 282.086198)"><g><path d="M 36.59375 -13.359375 C 36.59375 -8.828125 35.160156 -5.367188 32.296875 -2.984375 C 29.441406 -0.609375 25.378906 0.578125 20.109375 0.578125 C 14.835938 0.578125 10.757812 -0.609375 7.875 -2.984375 C 5 -5.367188 3.5625 -8.828125 3.5625 -13.359375 L 3.5625 -33.171875 L 14.21875 -33.171875 L 14.21875 -13.5 C 14.21875 -11.632812 14.71875 -10.144531 15.71875 -9.03125 C 16.71875 -7.925781 18.164062 -7.375 20.0625 -7.375 C 21.957031 -7.375 23.410156 -7.9375 24.421875 -9.0625 C 25.429688 -10.1875 25.9375 -11.664062 25.9375 -13.5 L 25.9375 -33.171875 L 36.59375 -33.171875 Z M 36.59375 -13.359375 "/></g></g></g><g fill="#9a161f" fill-opacity="1"><g transform="translate(135.651588, 282.086198)"><g><path d="M 3.5625 -33.171875 L 14.21875 -33.171875 L 14.21875 -8.484375 L 31.25 -8.484375 L 31.25 0 L 3.5625 0 Z M 3.5625 -33.171875 "/></g></g></g><g fill="#9a161f" fill-opacity="1"><g transform="translate(168.77385, 282.086198)"><g><path d="M 22.65625 -24.6875 L 22.65625 0 L 12 0 L 12 -24.6875 L 1.109375 -24.6875 L 1.109375 -33.171875 L 33.515625 -33.171875 L 33.515625 -24.6875 Z M 22.65625 -24.6875 "/></g></g></g><g fill="#9a161f" fill-opacity="1"><g transform="translate(204.547785, 282.086198)"><g><path d="M 36.59375 -13.359375 C 36.59375 -8.828125 35.160156 -5.367188 32.296875 -2.984375 C 29.441406 -0.609375 25.378906 0.578125 20.109375 0.578125 C 14.835938 0.578125 10.757812 -0.609375 7.875 -2.984375 C 5 -5.367188 3.5625 -8.828125 3.5625 -13.359375 L 3.5625 -33.171875 L 14.21875 -33.171875 L 14.21875 -13.5 C 14.21875 -11.632812 14.71875 -10.144531 15.71875 -9.03125 C 16.71875 -7.925781 18.164062 -7.375 20.0625 -7.375 C 21.957031 -7.375 23.410156 -7.9375 24.421875 -9.0625 C 25.429688 -10.1875 25.9375 -11.664062 25.9375 -13.5 L 25.9375 -33.171875 L 36.59375 -33.171875 Z M 36.59375 -13.359375 "/></g></g></g><g fill="#9a161f" fill-opacity="1"><g transform="translate(245.673299, 282.086198)"><g><path d="M 35.0625 -23 C 35.0625 -20.976562 34.515625 -19.144531 33.421875 -17.5 C 32.328125 -15.863281 30.734375 -14.660156 28.640625 -13.890625 L 36.015625 0 L 24.0625 0 L 18.171875 -12.109375 L 14.21875 -12.109375 L 14.21875 0 L 3.5625 0 L 3.5625 -33.171875 L 23.875 -33.171875 C 26.25 -33.171875 28.28125 -32.710938 29.96875 -31.796875 C 31.65625 -30.878906 32.925781 -29.640625 33.78125 -28.078125 C 34.632812 -26.523438 35.0625 -24.832031 35.0625 -23 Z M 24.203125 -22.5625 C 24.203125 -23.4375 23.910156 -24.160156 23.328125 -24.734375 C 22.753906 -25.316406 22.050781 -25.609375 21.21875 -25.609375 L 14.21875 -25.609375 L 14.21875 -19.484375 L 21.21875 -19.484375 C 22.050781 -19.484375 22.753906 -19.78125 23.328125 -20.375 C 23.910156 -20.96875 24.203125 -21.695312 24.203125 -22.5625 Z M 24.203125 -22.5625 "/></g></g></g><g fill="#9a161f" fill-opacity="1"><g transform="translate(284.14713, 282.086198)"><g><path d="M 3.5625 -33.171875 L 32.265625 -33.171875 L 32.265625 -25.21875 L 14.21875 -25.21875 L 14.21875 -20.640625 L 29.65625 -20.640625 L 29.65625 -13.015625 L 14.21875 -13.015625 L 14.21875 -7.953125 L 32.59375 -7.953125 L 32.59375 0 L 3.5625 0 Z M 3.5625 -33.171875 "/></g></g></g><g fill="#9a161f" fill-opacity="1"><g transform="translate(89.174119, 337.375101)"><g><path d="M 17.5 -33.75 C 21.75 -33.75 25.238281 -32.890625 27.96875 -31.171875 C 30.695312 -29.453125 32.09375 -26.90625 32.15625 -23.53125 L 32.15625 -22.953125 L 22.1875 -22.953125 L 22.1875 -23.140625 C 22.1875 -24.109375 21.832031 -24.910156 21.125 -25.546875 C 20.414062 -26.191406 19.335938 -26.515625 17.890625 -26.515625 C 16.472656 -26.515625 15.382812 -26.304688 14.625 -25.890625 C 13.875 -25.472656 13.5 -24.957031 13.5 -24.34375 C 13.5 -23.476562 14.015625 -22.835938 15.046875 -22.421875 C 16.078125 -22.003906 17.734375 -21.570312 20.015625 -21.125 C 22.679688 -20.570312 24.875 -20 26.59375 -19.40625 C 28.3125 -18.8125 29.8125 -17.835938 31.09375 -16.484375 C 32.382812 -15.140625 33.046875 -13.3125 33.078125 -11 C 33.078125 -7.070312 31.75 -4.160156 29.09375 -2.265625 C 26.445312 -0.367188 22.90625 0.578125 18.46875 0.578125 C 13.289062 0.578125 9.265625 -0.285156 6.390625 -2.015625 C 3.515625 -3.753906 2.078125 -6.828125 2.078125 -11.234375 L 12.15625 -11.234375 C 12.15625 -9.566406 12.585938 -8.453125 13.453125 -7.890625 C 14.316406 -7.328125 15.664062 -7.046875 17.5 -7.046875 C 18.851562 -7.046875 19.972656 -7.1875 20.859375 -7.46875 C 21.742188 -7.757812 22.1875 -8.359375 22.1875 -9.265625 C 22.1875 -10.066406 21.691406 -10.664062 20.703125 -11.0625 C 19.722656 -11.46875 18.125 -11.894531 15.90625 -12.34375 C 13.207031 -12.925781 10.972656 -13.53125 9.203125 -14.15625 C 7.441406 -14.78125 5.898438 -15.816406 4.578125 -17.265625 C 3.265625 -18.710938 2.609375 -20.671875 2.609375 -23.140625 C 2.609375 -26.773438 4.015625 -29.453125 6.828125 -31.171875 C 9.640625 -32.890625 13.195312 -33.75 17.5 -33.75 Z M 17.5 -33.75 "/></g></g></g><g fill="#9a161f" fill-opacity="1"><g transform="translate(124.948052, 337.375101)"><g><path d="M 25.9375 0 L 25.9375 -12.578125 L 14.21875 -12.578125 L 14.21875 0 L 3.5625 0 L 3.5625 -33.171875 L 14.21875 -33.171875 L 14.21875 -21.078125 L 25.9375 -21.078125 L 25.9375 -33.171875 L 36.59375 -33.171875 L 36.59375 0 Z M 25.9375 0 "/></g></g></g><g fill="#9a161f" fill-opacity="1"><g transform="translate(166.073556, 337.375101)"><g><path d="M 20.0625 -33.75 C 25.78125 -33.75 30.195312 -32.285156 33.3125 -29.359375 C 36.4375 -26.441406 38 -22.1875 38 -16.59375 C 38 -11 36.4375 -6.738281 33.3125 -3.8125 C 30.195312 -0.882812 25.78125 0.578125 20.0625 0.578125 C 14.332031 0.578125 9.914062 -0.875 6.8125 -3.78125 C 3.71875 -6.695312 2.171875 -10.96875 2.171875 -16.59375 C 2.171875 -22.21875 3.71875 -26.484375 6.8125 -29.390625 C 9.914062 -32.296875 14.332031 -33.75 20.0625 -33.75 Z M 20.0625 -25.796875 C 17.78125 -25.796875 16.039062 -25.101562 14.84375 -23.71875 C 13.65625 -22.34375 13.0625 -20.476562 13.0625 -18.125 L 13.0625 -15.046875 C 13.0625 -12.703125 13.65625 -10.835938 14.84375 -9.453125 C 16.039062 -8.066406 17.78125 -7.375 20.0625 -7.375 C 22.34375 -7.375 24.082031 -8.066406 25.28125 -9.453125 C 26.488281 -10.835938 27.09375 -12.703125 27.09375 -15.046875 L 27.09375 -18.125 C 27.09375 -20.476562 26.488281 -22.34375 25.28125 -23.71875 C 24.082031 -25.101562 22.34375 -25.796875 20.0625 -25.796875 Z M 20.0625 -25.796875 "/></g></g></g><g fill="#9a161f" fill-opacity="1"><g transform="translate(207.19907, 337.375101)"><g><path d="M 19.390625 -33.75 C 24.304688 -33.75 28.191406 -32.519531 31.046875 -30.0625 C 33.910156 -27.601562 35.34375 -24.09375 35.34375 -19.53125 L 25.171875 -19.53125 C 25.171875 -21.457031 24.660156 -22.984375 23.640625 -24.109375 C 22.628906 -25.234375 21.191406 -25.796875 19.328125 -25.796875 C 17.179688 -25.796875 15.597656 -25.117188 14.578125 -23.765625 C 13.566406 -22.421875 13.0625 -20.539062 13.0625 -18.125 L 13.0625 -15.046875 C 13.0625 -12.660156 13.566406 -10.785156 14.578125 -9.421875 C 15.597656 -8.054688 17.148438 -7.375 19.234375 -7.375 C 21.296875 -7.375 22.851562 -7.90625 23.90625 -8.96875 C 24.96875 -10.03125 25.5 -11.523438 25.5 -13.453125 L 35.34375 -13.453125 C 35.34375 -8.921875 33.953125 -5.445312 31.171875 -3.03125 C 28.390625 -0.625 24.460938 0.578125 19.390625 0.578125 C 13.722656 0.578125 9.4375 -0.863281 6.53125 -3.75 C 3.625 -6.644531 2.171875 -10.925781 2.171875 -16.59375 C 2.171875 -22.25 3.625 -26.519531 6.53125 -29.40625 C 9.4375 -32.300781 13.722656 -33.75 19.390625 -33.75 Z M 19.390625 -33.75 "/></g></g></g><g fill="#9a161f" fill-opacity="1"><g transform="translate(245.672901, 337.375101)"><g><path d="M 26.03125 -33.171875 L 39.25 -33.171875 L 27.34375 -19.53125 L 39.484375 0 L 26.90625 0 L 20.015625 -12.15625 L 14.21875 -7.421875 L 14.21875 0 L 3.5625 0 L 3.5625 -33.171875 L 14.21875 -33.171875 L 14.21875 -19 Z M 26.03125 -33.171875 "/></g></g></g></svg>