<svg xmlns="http://www.w3.org/2000/svg" xmlns:xlink="http://www.w3.org/1999/xlink" width="100" zoomAndPan="magnify" viewBox="0 0 75 33.749998" height="45" preserveAspectRatio="xMidYMid meet" version="1.0"><defs><g/><clipPath id="id1"><path d="M 0.277344 0 L 74.722656 0 L 74.722656 33.5 L 0.277344 33.5 Z M 0.277344 0 " clip-rule="nonzero"/></clipPath><clipPath id="id2"><path d="M 6.757812 7.371094 L 26.859375 7.371094 L 26.859375 27.472656 L 6.757812 27.472656 Z M 6.757812 7.371094 " clip-rule="nonzero"/></clipPath></defs><g clip-path="url(#id1)"><path fill="#ffffff" d="M 0.277344 0 L 74.722656 0 L 74.722656 40.203125 L 0.277344 40.203125 Z M 0.277344 0 " fill-opacity="1" fill-rule="nonzero"/><path fill="#f4efea" d="M 0.277344 0 L 74.722656 0 L 74.722656 33.5 L 0.277344 33.5 Z M 0.277344 0 " fill-opacity="1" fill-rule="nonzero"/><path fill="#ffffff" d="M 0.277344 0 L 74.722656 0 L 74.722656 33.5 L 0.277344 33.5 Z M 0.277344 0 " fill-opacity="1" fill-rule="nonzero"/><path fill="#f4efea" d="M 0.277344 0 L 74.722656 0 L 74.722656 33.5 L 0.277344 33.5 Z M 0.277344 0 " fill-opacity="1" fill-rule="nonzero"/></g><g clip-path="url(#id2)"><path fill="#9a161f" d="M 16.804688 7.371094 C 22.355469 7.371094 26.859375 11.871094 26.859375 17.421875 C 26.859375 22.410156 23.21875 26.550781 18.449219 27.335938 L 18.449219 24.46875 C 20.738281 23.761719 22.414062 21.625 22.414062 19.113281 L 22.414062 11.390625 L 19.34375 14.0625 L 16.804688 10.125 L 14.269531 14.0625 L 11.203125 11.390625 L 11.203125 19.113281 C 11.203125 21.957031 13.351562 24.324219 16.105469 24.671875 L 16.105469 22.339844 C 15.136719 22.039062 14.429688 21.132812 14.429688 20.070312 L 14.429688 16.945312 C 14.429688 15.640625 15.5 14.570312 16.804688 14.570312 C 18.011719 14.570312 19.015625 15.480469 19.164062 16.652344 L 17.28125 16.652344 C 17.074219 16.652344 16.902344 16.824219 16.902344 17.03125 C 16.902344 17.242188 17.074219 17.414062 17.28125 17.414062 L 19.183594 17.414062 L 19.183594 18.128906 L 17.28125 18.128906 C 17.074219 18.128906 16.902344 18.296875 16.902344 18.507812 C 16.902344 18.71875 17.074219 18.890625 17.28125 18.890625 L 19.183594 18.890625 L 19.183594 19.605469 L 17.28125 19.605469 C 17.074219 19.605469 16.902344 19.773438 16.902344 19.984375 C 16.902344 20.195312 17.074219 20.363281 17.28125 20.363281 L 19.164062 20.363281 C 19.046875 21.296875 18.386719 22.066406 17.507812 22.339844 L 17.507812 27.445312 C 17.273438 27.460938 17.042969 27.472656 16.804688 27.472656 C 11.253906 27.472656 6.757812 22.972656 6.757812 17.421875 C 6.757812 11.871094 11.253906 7.371094 16.804688 7.371094 Z M 16.804688 7.371094 " fill-opacity="1" fill-rule="evenodd"/></g><g fill="#9a161f" fill-opacity="1"><g transform="translate(28.396927, 17.069393)"><g><path d="M 2.828125 -4.90625 C 3.535156 -4.90625 4.097656 -4.726562 4.515625 -4.375 C 4.929688 -4.019531 5.140625 -3.507812 5.140625 -2.84375 L 3.65625 -2.84375 C 3.65625 -3.125 3.582031 -3.34375 3.4375 -3.5 C 3.289062 -3.664062 3.082031 -3.75 2.8125 -3.75 C 2.5 -3.75 2.269531 -3.648438 2.125 -3.453125 C 1.976562 -3.265625 1.90625 -2.992188 1.90625 -2.640625 L 1.90625 -2.1875 C 1.90625 -1.84375 1.976562 -1.570312 2.125 -1.375 C 2.269531 -1.175781 2.492188 -1.078125 2.796875 -1.078125 C 3.097656 -1.078125 3.328125 -1.148438 3.484375 -1.296875 C 3.640625 -1.453125 3.71875 -1.671875 3.71875 -1.953125 L 5.140625 -1.953125 C 5.140625 -1.296875 4.9375 -0.789062 4.53125 -0.4375 C 4.125 -0.09375 3.554688 0.078125 2.828125 0.078125 C 1.992188 0.078125 1.363281 -0.128906 0.9375 -0.546875 C 0.519531 -0.960938 0.3125 -1.582031 0.3125 -2.40625 C 0.3125 -3.226562 0.519531 -3.847656 0.9375 -4.265625 C 1.363281 -4.691406 1.992188 -4.90625 2.828125 -4.90625 Z M 2.828125 -4.90625 "/></g></g></g><g fill="#9a161f" fill-opacity="1"><g transform="translate(34.001287, 17.069393)"><g><path d="M 5.328125 -1.9375 C 5.328125 -1.28125 5.117188 -0.78125 4.703125 -0.4375 C 4.285156 -0.09375 3.691406 0.078125 2.921875 0.078125 C 2.160156 0.078125 1.566406 -0.09375 1.140625 -0.4375 C 0.722656 -0.78125 0.515625 -1.28125 0.515625 -1.9375 L 0.515625 -4.828125 L 2.0625 -4.828125 L 2.0625 -1.96875 C 2.0625 -1.695312 2.132812 -1.476562 2.28125 -1.3125 C 2.425781 -1.15625 2.640625 -1.078125 2.921875 -1.078125 C 3.191406 -1.078125 3.398438 -1.15625 3.546875 -1.3125 C 3.703125 -1.476562 3.78125 -1.695312 3.78125 -1.96875 L 3.78125 -4.828125 L 5.328125 -4.828125 Z M 5.328125 -1.9375 "/></g></g></g><g fill="#9a161f" fill-opacity="1"><g transform="translate(39.991914, 17.069393)"><g><path d="M 0.515625 -4.828125 L 2.0625 -4.828125 L 2.0625 -1.234375 L 4.546875 -1.234375 L 4.546875 0 L 0.515625 0 Z M 0.515625 -4.828125 "/></g></g></g><g fill="#9a161f" fill-opacity="1"><g transform="translate(44.816725, 17.069393)"><g><path d="M 3.296875 -3.59375 L 3.296875 0 L 1.75 0 L 1.75 -3.59375 L 0.15625 -3.59375 L 0.15625 -4.828125 L 4.875 -4.828125 L 4.875 -3.59375 Z M 3.296875 -3.59375 "/></g></g></g><g fill="#9a161f" fill-opacity="1"><g transform="translate(50.027802, 17.069393)"><g><path d="M 5.328125 -1.9375 C 5.328125 -1.28125 5.117188 -0.78125 4.703125 -0.4375 C 4.285156 -0.09375 3.691406 0.078125 2.921875 0.078125 C 2.160156 0.078125 1.566406 -0.09375 1.140625 -0.4375 C 0.722656 -0.78125 0.515625 -1.28125 0.515625 -1.9375 L 0.515625 -4.828125 L 2.0625 -4.828125 L 2.0625 -1.96875 C 2.0625 -1.695312 2.132812 -1.476562 2.28125 -1.3125 C 2.425781 -1.15625 2.640625 -1.078125 2.921875 -1.078125 C 3.191406 -1.078125 3.398438 -1.15625 3.546875 -1.3125 C 3.703125 -1.476562 3.78125 -1.695312 3.78125 -1.96875 L 3.78125 -4.828125 L 5.328125 -4.828125 Z M 5.328125 -1.9375 "/></g></g></g><g fill="#9a161f" fill-opacity="1"><g transform="translate(56.018427, 17.069393)"><g><path d="M 5.09375 -3.34375 C 5.09375 -3.050781 5.015625 -2.785156 4.859375 -2.546875 C 4.703125 -2.304688 4.472656 -2.128906 4.171875 -2.015625 L 5.234375 0 L 3.5 0 L 2.640625 -1.765625 L 2.0625 -1.765625 L 2.0625 0 L 0.515625 0 L 0.515625 -4.828125 L 3.46875 -4.828125 C 3.8125 -4.828125 4.109375 -4.757812 4.359375 -4.625 C 4.609375 -4.488281 4.789062 -4.304688 4.90625 -4.078125 C 5.03125 -3.859375 5.09375 -3.613281 5.09375 -3.34375 Z M 3.515625 -3.28125 C 3.515625 -3.40625 3.472656 -3.507812 3.390625 -3.59375 C 3.304688 -3.675781 3.207031 -3.71875 3.09375 -3.71875 L 2.0625 -3.71875 L 2.0625 -2.828125 L 3.09375 -2.828125 C 3.207031 -2.828125 3.304688 -2.867188 3.390625 -2.953125 C 3.472656 -3.046875 3.515625 -3.15625 3.515625 -3.28125 Z M 3.515625 -3.28125 "/></g></g></g><g fill="#9a161f" fill-opacity="1"><g transform="translate(61.622786, 17.069393)"><g><path d="M 0.515625 -4.828125 L 4.6875 -4.828125 L 4.6875 -3.671875 L 2.0625 -3.671875 L 2.0625 -3 L 4.3125 -3 L 4.3125 -1.890625 L 2.0625 -1.890625 L 2.0625 -1.15625 L 4.75 -1.15625 L 4.75 0 L 0.515625 0 Z M 0.515625 -4.828125 "/></g></g></g><g fill="#9a161f" fill-opacity="1"><g transform="translate(33.216071, 24.092358)"><g><path d="M 2.546875 -4.90625 C 3.160156 -4.90625 3.664062 -4.78125 4.0625 -4.53125 C 4.46875 -4.28125 4.671875 -3.910156 4.671875 -3.421875 L 4.671875 -3.34375 L 3.234375 -3.34375 L 3.234375 -3.375 C 3.234375 -3.507812 3.179688 -3.625 3.078125 -3.71875 C 2.972656 -3.8125 2.816406 -3.859375 2.609375 -3.859375 C 2.398438 -3.859375 2.238281 -3.828125 2.125 -3.765625 C 2.019531 -3.703125 1.96875 -3.628906 1.96875 -3.546875 C 1.96875 -3.421875 2.039062 -3.328125 2.1875 -3.265625 C 2.332031 -3.203125 2.570312 -3.140625 2.90625 -3.078125 C 3.300781 -2.992188 3.625 -2.90625 3.875 -2.8125 C 4.125 -2.726562 4.34375 -2.585938 4.53125 -2.390625 C 4.71875 -2.203125 4.8125 -1.9375 4.8125 -1.59375 C 4.8125 -1.03125 4.617188 -0.609375 4.234375 -0.328125 C 3.847656 -0.0546875 3.332031 0.078125 2.6875 0.078125 C 1.9375 0.078125 1.347656 -0.046875 0.921875 -0.296875 C 0.503906 -0.546875 0.296875 -0.992188 0.296875 -1.640625 L 1.765625 -1.640625 C 1.765625 -1.390625 1.828125 -1.222656 1.953125 -1.140625 C 2.078125 -1.066406 2.273438 -1.03125 2.546875 -1.03125 C 2.742188 -1.03125 2.90625 -1.050781 3.03125 -1.09375 C 3.164062 -1.132812 3.234375 -1.21875 3.234375 -1.34375 C 3.234375 -1.457031 3.160156 -1.546875 3.015625 -1.609375 C 2.867188 -1.671875 2.632812 -1.734375 2.3125 -1.796875 C 1.914062 -1.878906 1.585938 -1.96875 1.328125 -2.0625 C 1.078125 -2.15625 0.851562 -2.304688 0.65625 -2.515625 C 0.46875 -2.722656 0.375 -3.007812 0.375 -3.375 C 0.375 -3.894531 0.578125 -4.28125 0.984375 -4.53125 C 1.398438 -4.78125 1.921875 -4.90625 2.546875 -4.90625 Z M 2.546875 -4.90625 "/></g></g></g><g fill="#9a161f" fill-opacity="1"><g transform="translate(38.427147, 24.092358)"><g><path d="M 3.78125 0 L 3.78125 -1.828125 L 2.0625 -1.828125 L 2.0625 0 L 0.515625 0 L 0.515625 -4.828125 L 2.0625 -4.828125 L 2.0625 -3.0625 L 3.78125 -3.0625 L 3.78125 -4.828125 L 5.328125 -4.828125 L 5.328125 0 Z M 3.78125 0 "/></g></g></g><g fill="#9a161f" fill-opacity="1"><g transform="translate(44.417773, 24.092358)"><g><path d="M 2.921875 -4.90625 C 3.753906 -4.90625 4.394531 -4.691406 4.84375 -4.265625 C 5.300781 -3.847656 5.53125 -3.226562 5.53125 -2.40625 C 5.53125 -1.59375 5.300781 -0.972656 4.84375 -0.546875 C 4.394531 -0.128906 3.753906 0.078125 2.921875 0.078125 C 2.085938 0.078125 1.441406 -0.128906 0.984375 -0.546875 C 0.535156 -0.972656 0.3125 -1.59375 0.3125 -2.40625 C 0.3125 -3.226562 0.535156 -3.847656 0.984375 -4.265625 C 1.441406 -4.691406 2.085938 -4.90625 2.921875 -4.90625 Z M 2.921875 -3.75 C 2.585938 -3.75 2.332031 -3.648438 2.15625 -3.453125 C 1.988281 -3.253906 1.90625 -2.984375 1.90625 -2.640625 L 1.90625 -2.1875 C 1.90625 -1.84375 1.988281 -1.570312 2.15625 -1.375 C 2.332031 -1.175781 2.585938 -1.078125 2.921875 -1.078125 C 3.253906 -1.078125 3.503906 -1.175781 3.671875 -1.375 C 3.847656 -1.570312 3.9375 -1.84375 3.9375 -2.1875 L 3.9375 -2.640625 C 3.9375 -2.984375 3.847656 -3.253906 3.671875 -3.453125 C 3.503906 -3.648438 3.253906 -3.75 2.921875 -3.75 Z M 2.921875 -3.75 "/></g></g></g><g fill="#9a161f" fill-opacity="1"><g transform="translate(50.408399, 24.092358)"><g><path d="M 2.828125 -4.90625 C 3.535156 -4.90625 4.097656 -4.726562 4.515625 -4.375 C 4.929688 -4.019531 5.140625 -3.507812 5.140625 -2.84375 L 3.65625 -2.84375 C 3.65625 -3.125 3.582031 -3.34375 3.4375 -3.5 C 3.289062 -3.664062 3.082031 -3.75 2.8125 -3.75 C 2.5 -3.75 2.269531 -3.648438 2.125 -3.453125 C 1.976562 -3.265625 1.90625 -2.992188 1.90625 -2.640625 L 1.90625 -2.1875 C 1.90625 -1.84375 1.976562 -1.570312 2.125 -1.375 C 2.269531 -1.175781 2.492188 -1.078125 2.796875 -1.078125 C 3.097656 -1.078125 3.328125 -1.148438 3.484375 -1.296875 C 3.640625 -1.453125 3.71875 -1.671875 3.71875 -1.953125 L 5.140625 -1.953125 C 5.140625 -1.296875 4.9375 -0.789062 4.53125 -0.4375 C 4.125 -0.09375 3.554688 0.078125 2.828125 0.078125 C 1.992188 0.078125 1.363281 -0.128906 0.9375 -0.546875 C 0.519531 -0.960938 0.3125 -1.582031 0.3125 -2.40625 C 0.3125 -3.226562 0.519531 -3.847656 0.9375 -4.265625 C 1.363281 -4.691406 1.992188 -4.90625 2.828125 -4.90625 Z M 2.828125 -4.90625 "/></g></g></g><g fill="#9a161f" fill-opacity="1"><g transform="translate(56.01276, 24.092358)"><g><path d="M 3.78125 -4.828125 L 5.703125 -4.828125 L 3.984375 -2.84375 L 5.75 0 L 3.921875 0 L 2.90625 -1.765625 L 2.0625 -1.078125 L 2.0625 0 L 0.515625 0 L 0.515625 -4.828125 L 2.0625 -4.828125 L 2.0625 -2.765625 Z M 3.78125 -4.828125 "/></g></g></g></svg>