<svg xmlns="http://www.w3.org/2000/svg" xmlns:xlink="http://www.w3.org/1999/xlink" width="100" zoomAndPan="magnify" viewBox="0 0 75 33.749998" height="45" preserveAspectRatio="xMidYMid meet" version="1.0"><defs><clipPath id="id1"><path d="M 28 12.492188 L 31 12.492188 L 31 17 L 28 17 Z M 28 12.492188 " clip-rule="nonzero"/></clipPath><clipPath id="id2"><path d="M 27 12.492188 L 30 12.492188 L 30 17 L 27 17 Z M 27 12.492188 " clip-rule="nonzero"/></clipPath><clipPath id="id3"><path d="M 28 12.492188 L 30 12.492188 L 30 16 L 28 16 Z M 28 12.492188 " clip-rule="nonzero"/></clipPath><clipPath id="id4"><path d="M 26.863281 19 L 31.328125 19 L 31.328125 20.683594 L 26.863281 20.683594 Z M 26.863281 19 " clip-rule="nonzero"/></clipPath><clipPath id="id5"><path d="M 21.605469 4.316406 L 36 4.316406 L 36 26.652344 L 21.605469 26.652344 Z M 21.605469 4.316406 " clip-rule="nonzero"/></clipPath><clipPath id="id6"><path d="M 37 4.316406 L 51.386719 4.316406 L 51.386719 26.652344 L 37 26.652344 Z M 37 4.316406 " clip-rule="nonzero"/></clipPath></defs><path fill="#ffffff" d="M 27.605469 13.078125 C 27.839844 13.027344 28.101562 13.203125 28.1875 13.46875 C 28.34375 13.96875 29.140625 16.335938 29.046875 16.535156 C 28.941406 15.925781 28.296875 14.246094 28.074219 13.542969 C 27.992188 13.292969 27.777344 13.136719 27.558594 13.183594 C 27.164062 13.273438 27.527344 14.171875 27.632812 14.433594 C 27.457031 14.054688 27.070312 13.199219 27.605469 13.078125 Z M 27.605469 13.078125 " fill-opacity="1" fill-rule="evenodd"/><g clip-path="url(#id1)"><path fill="#ffffff" d="M 28.746094 12.605469 C 28.960938 12.59375 29.183594 12.761719 29.261719 13.003906 C 29.421875 13.5 30.21875 15.867188 30.121094 16.066406 C 30.019531 15.460938 29.375 13.78125 29.148438 13.074219 C 29.105469 12.941406 29.023438 12.835938 28.925781 12.773438 C 28.875 12.703125 28.816406 12.644531 28.746094 12.605469 Z M 28.746094 12.605469 " fill-opacity="1" fill-rule="evenodd"/></g><g clip-path="url(#id2)"><path fill="#ffffff" d="M 27.859375 12.835938 C 28.089844 12.78125 28.351562 12.957031 28.4375 13.226562 C 28.59375 13.722656 29.394531 16.089844 29.296875 16.289062 C 29.195312 15.679688 28.546875 14.003906 28.324219 13.296875 C 28.242188 13.050781 28.027344 12.890625 27.808594 12.941406 C 27.699219 12.964844 27.617188 13.039062 27.574219 13.136719 C 27.605469 12.988281 27.710938 12.867188 27.859375 12.835938 Z M 27.859375 12.835938 " fill-opacity="1" fill-rule="evenodd"/><path fill="#ffffff" d="M 28.121094 12.59375 C 28.355469 12.539062 28.613281 12.714844 28.699219 12.984375 C 28.859375 13.480469 29.65625 15.847656 29.558594 16.046875 C 29.457031 15.4375 28.8125 13.757812 28.585938 13.054688 C 28.507812 12.804688 28.289062 12.648438 28.074219 12.695312 C 27.964844 12.722656 27.882812 12.796875 27.835938 12.894531 C 27.871094 12.742188 27.972656 12.625 28.121094 12.59375 Z M 28.121094 12.59375 " fill-opacity="1" fill-rule="evenodd"/></g><g clip-path="url(#id3)"><path fill="#ffffff" d="M 28.425781 12.542969 C 28.65625 12.488281 28.917969 12.664062 29.003906 12.933594 C 29.164062 13.429688 29.960938 15.796875 29.863281 15.996094 C 29.761719 15.390625 29.117188 13.710938 28.890625 13.003906 C 28.816406 12.773438 28.621094 12.621094 28.421875 12.640625 C 28.382812 12.621094 28.34375 12.605469 28.304688 12.59375 C 28.339844 12.570312 28.378906 12.550781 28.425781 12.542969 Z M 28.425781 12.542969 " fill-opacity="1" fill-rule="evenodd"/></g><path fill="#ffffff" d="M 30.160156 16.175781 C 30.128906 16.382812 29.746094 16.5625 29.464844 16.671875 C 29.171875 16.789062 28.863281 16.859375 28.578125 16.769531 C 28.40625 16.71875 28.332031 16.628906 28.277344 16.488281 C 28.082031 15.980469 28 15.5625 27.957031 15.441406 C 27.972656 15.476562 28.171875 16.0625 28.367188 16.445312 C 28.425781 16.558594 28.511719 16.636719 28.667969 16.683594 C 28.898438 16.753906 29.175781 16.699219 29.453125 16.609375 C 29.746094 16.511719 30.109375 16.328125 30.160156 16.175781 Z M 30.160156 16.175781 " fill-opacity="1" fill-rule="evenodd"/><path fill="#ffffff" d="M 28.222656 14.511719 C 28.222656 15.285156 28.222656 16.0625 28.222656 16.835938 C 28.167969 16.316406 28.117188 14.785156 28.117188 14.527344 C 28.117188 14.234375 27.75 14.21875 27.75 14.511719 C 27.75 14.730469 27.792969 15.808594 27.722656 16.222656 C 27.722656 15.449219 27.722656 15.285156 27.722656 14.511719 C 27.722656 14.164062 28.222656 14.164062 28.222656 14.511719 Z M 28.222656 14.511719 " fill-opacity="1" fill-rule="evenodd"/><path fill="#ffffff" d="M 29.46875 13.453125 C 28.917969 13.550781 28.269531 13.867188 27.828125 14.164062 C 28.105469 13.742188 29.015625 13.375 29.46875 13.453125 Z M 29.46875 13.453125 " fill-opacity="1" fill-rule="evenodd"/><path fill="#ffffff" d="M 30.046875 14.960938 C 29.496094 15.0625 28.847656 15.378906 28.40625 15.675781 C 28.683594 15.253906 29.59375 14.882812 30.046875 14.960938 Z M 30.046875 14.960938 " fill-opacity="1" fill-rule="evenodd"/><path fill="#ffffff" d="M 28.167969 16.054688 C 28.183594 16.257812 28.195312 16.464844 28.210938 16.667969 C 28.230469 16.980469 28.855469 17.054688 29.167969 17.160156 C 29.355469 17.042969 29.617188 16.933594 29.792969 16.785156 C 29.902344 16.699219 29.988281 16.511719 30.003906 16.390625 C 30.046875 16.570312 30.007812 16.769531 29.925781 16.859375 C 29.796875 17.007812 29.53125 17.085938 29.207031 17.273438 C 28.765625 17.121094 28.140625 17.058594 28.148438 16.695312 C 28.15625 16.484375 28.164062 16.269531 28.167969 16.054688 Z M 28.167969 16.054688 " fill-opacity="1" fill-rule="evenodd"/><path fill="#ffffff" d="M 28.878906 17.214844 C 28.828125 17.398438 29.082031 17.390625 29.097656 17.765625 C 29.121094 18.390625 29.007812 19.433594 29.617188 19.433594 C 28.980469 19.160156 29.246094 17.726562 29.214844 17.3125 L 29.207031 17.316406 C 29.105469 17.28125 28.992188 17.246094 28.878906 17.214844 Z M 28.878906 17.214844 " fill-opacity="1" fill-rule="evenodd"/><path fill="#ffffff" d="M 28.730469 17.1875 C 27.878906 16.921875 27.730469 17.128906 27.730469 16.40625 C 27.890625 17.027344 28.089844 16.949219 28.730469 17.1875 Z M 28.730469 17.1875 " fill-opacity="1" fill-rule="evenodd"/><path fill="#ffffff" d="M 29.296875 17.109375 C 29.765625 16.804688 29.890625 16.890625 29.769531 16.488281 C 29.777344 16.867188 29.644531 16.859375 29.296875 17.109375 Z M 29.296875 17.109375 " fill-opacity="1" fill-rule="evenodd"/><path fill="#ffffff" d="M 29.054688 18.621094 C 29.039062 19.046875 28.953125 19.425781 28.570312 19.425781 C 29.1875 19.179688 28.914062 17.902344 28.917969 17.480469 C 28.921875 17.488281 28.929688 17.496094 28.933594 17.503906 C 28.996094 17.578125 29.019531 17.664062 29.023438 17.753906 C 29.03125 17.949219 29.027344 18.144531 29.035156 18.339844 C 29.039062 18.417969 29.042969 18.515625 29.054688 18.621094 Z M 29.054688 18.621094 " fill-opacity="1" fill-rule="evenodd"/><path fill="#ffffff" d="M 29.695312 19.453125 C 29.945312 19.5 30.105469 19.578125 30.105469 19.667969 C 30.105469 19.8125 29.652344 19.933594 29.097656 19.933594 C 28.539062 19.933594 28.085938 19.8125 28.085938 19.667969 C 28.085938 19.578125 28.25 19.5 28.5 19.453125 C 28.449219 19.476562 28.421875 19.503906 28.421875 19.535156 C 28.421875 19.632812 28.726562 19.710938 29.097656 19.710938 C 29.46875 19.710938 29.769531 19.632812 29.769531 19.535156 C 29.769531 19.503906 29.742188 19.476562 29.695312 19.453125 Z M 29.695312 19.453125 " fill-opacity="1" fill-rule="evenodd"/><g clip-path="url(#id4)"><path fill="#ffffff" d="M 30.453125 19.632812 C 30.976562 19.742188 31.3125 19.90625 31.3125 20.09375 C 31.3125 20.417969 30.320312 20.679688 29.097656 20.679688 C 27.871094 20.679688 26.878906 20.417969 26.878906 20.09375 C 26.878906 19.90625 27.214844 19.742188 27.738281 19.632812 C 27.335938 19.730469 27.082031 19.871094 27.082031 20.027344 C 27.082031 20.320312 27.984375 20.558594 29.097656 20.558594 C 30.210938 20.558594 31.113281 20.320312 31.113281 20.027344 C 31.113281 19.871094 30.859375 19.730469 30.453125 19.632812 Z M 30.453125 19.632812 " fill-opacity="1" fill-rule="evenodd"/></g><g clip-path="url(#id5)"><path fill="#9a161f" d="M 29.3125 13.878906 C 27.90625 13.878906 26.609375 14.339844 25.5625 15.113281 C 25.664062 11.890625 28.1875 8.671875 33.164062 5.449219 L 32.425781 4.316406 C 25.214844 8.738281 21.609375 13.59375 21.609375 18.875 C 21.609375 21.300781 22.28125 23.203125 23.617188 24.574219 C 24.957031 25.949219 26.648438 26.636719 28.695312 26.636719 C 30.746094 26.636719 32.398438 26.085938 33.652344 24.980469 C 34.910156 23.875 35.539062 22.539062 35.539062 20.976562 C 35.539062 20.960938 35.535156 20.945312 35.535156 20.929688 C 35.574219 20.652344 35.601562 20.371094 35.601562 20.082031 C 35.601562 16.65625 32.785156 13.878906 29.3125 13.878906 Z M 29.3125 13.878906 " fill-opacity="1" fill-rule="nonzero"/></g><g clip-path="url(#id6)"><path fill="#9a161f" d="M 49.636719 24.363281 C 49.71875 24.273438 49.816406 24.183594 49.890625 24.085938 C 50.816406 23.003906 51.378906 21.609375 51.378906 20.082031 C 51.378906 16.65625 48.566406 13.875 45.09375 13.875 C 43.503906 13.875 42.058594 14.464844 40.949219 15.425781 C 40.949219 15.386719 40.945312 15.355469 40.945312 15.316406 C 40.945312 12.027344 43.484375 8.738281 48.5625 5.449219 L 47.824219 4.316406 C 40.617188 8.738281 37.011719 13.59375 37.011719 18.875 C 37.011719 21.300781 37.679688 23.203125 39.019531 24.574219 C 40.355469 25.953125 42.050781 26.640625 44.097656 26.640625 C 46.144531 26.640625 47.796875 26.085938 49.054688 24.980469 C 49.230469 24.824219 49.371094 24.652344 49.523438 24.488281 C 49.5625 24.449219 49.597656 24.40625 49.636719 24.363281 Z M 49.636719 24.363281 " fill-opacity="1" fill-rule="nonzero"/></g></svg>