<svg xmlns="http://www.w3.org/2000/svg" xmlns:xlink="http://www.w3.org/1999/xlink" width="100" zoomAndPan="magnify" viewBox="0 0 75 74.999997" height="100" preserveAspectRatio="xMidYMid meet" version="1.0"><defs><clipPath id="id1"><path d="M 27 33.210938 L 29 33.210938 L 29 38 L 27 38 Z M 27 33.210938 " clip-rule="nonzero"/></clipPath><clipPath id="id2"><path d="M 28 33.210938 L 31 33.210938 L 31 37 L 28 37 Z M 28 33.210938 " clip-rule="nonzero"/></clipPath><clipPath id="id3"><path d="M 27 33.210938 L 30 33.210938 L 30 38 L 27 38 Z M 27 33.210938 " clip-rule="nonzero"/></clipPath><clipPath id="id4"><path d="M 27 33.210938 L 30 33.210938 L 30 37 L 27 37 Z M 27 33.210938 " clip-rule="nonzero"/></clipPath><clipPath id="id5"><path d="M 28 33.210938 L 30 33.210938 L 30 37 L 28 37 Z M 28 33.210938 " clip-rule="nonzero"/></clipPath><clipPath id="id6"><path d="M 26.785156 40 L 31.285156 40 L 31.285156 41.460938 L 26.785156 41.460938 Z M 26.785156 40 " clip-rule="nonzero"/></clipPath><clipPath id="id7"><path d="M 11.222656 15.375 L 36 15.375 L 36 55.125 L 11.222656 55.125 Z M 11.222656 15.375 " clip-rule="nonzero"/></clipPath><clipPath id="id8"><path d="M 38 15.375 L 63.722656 15.375 L 63.722656 55.125 L 38 55.125 Z M 38 15.375 " clip-rule="nonzero"/></clipPath></defs><g clip-path="url(#id1)"><path fill="#ffffff" d="M 27.535156 33.800781 C 27.769531 33.746094 28.03125 33.925781 28.117188 34.195312 C 28.277344 34.695312 29.082031 37.082031 28.984375 37.28125 C 28.878906 36.667969 28.230469 34.976562 28.003906 34.265625 C 27.921875 34.015625 27.703125 33.859375 27.484375 33.90625 C 27.085938 33.996094 27.453125 34.898438 27.558594 35.164062 C 27.382812 34.785156 26.996094 33.921875 27.535156 33.800781 Z M 27.535156 33.800781 " fill-opacity="1" fill-rule="evenodd"/></g><g clip-path="url(#id2)"><path fill="#ffffff" d="M 28.683594 33.320312 C 28.898438 33.3125 29.125 33.480469 29.203125 33.726562 C 29.363281 34.226562 30.164062 36.609375 30.066406 36.8125 C 29.964844 36.199219 29.3125 34.507812 29.085938 33.796875 C 29.042969 33.664062 28.960938 33.554688 28.859375 33.492188 C 28.8125 33.421875 28.75 33.363281 28.683594 33.320312 Z M 28.683594 33.320312 " fill-opacity="1" fill-rule="evenodd"/></g><g clip-path="url(#id3)"><path fill="#ffffff" d="M 27.785156 33.554688 C 28.019531 33.503906 28.285156 33.679688 28.371094 33.949219 C 28.53125 34.449219 29.332031 36.835938 29.234375 37.035156 C 29.132812 36.421875 28.480469 34.730469 28.253906 34.019531 C 28.175781 33.769531 27.957031 33.613281 27.738281 33.660156 C 27.628906 33.683594 27.546875 33.761719 27.5 33.859375 C 27.53125 33.707031 27.636719 33.589844 27.785156 33.554688 Z M 27.785156 33.554688 " fill-opacity="1" fill-rule="evenodd"/></g><g clip-path="url(#id4)"><path fill="#ffffff" d="M 28.050781 33.308594 C 28.285156 33.257812 28.550781 33.433594 28.636719 33.703125 C 28.796875 34.207031 29.597656 36.589844 29.5 36.789062 C 29.398438 36.179688 28.746094 34.488281 28.519531 33.777344 C 28.441406 33.527344 28.222656 33.367188 28.003906 33.417969 C 27.894531 33.441406 27.8125 33.515625 27.765625 33.617188 C 27.796875 33.464844 27.902344 33.34375 28.050781 33.308594 Z M 28.050781 33.308594 " fill-opacity="1" fill-rule="evenodd"/></g><g clip-path="url(#id5)"><path fill="#ffffff" d="M 28.359375 33.261719 C 28.59375 33.207031 28.855469 33.382812 28.941406 33.652344 C 29.101562 34.15625 29.90625 36.539062 29.808594 36.742188 C 29.703125 36.128906 29.054688 34.4375 28.828125 33.726562 C 28.753906 33.492188 28.558594 33.339844 28.355469 33.359375 C 28.316406 33.339844 28.277344 33.324219 28.234375 33.3125 C 28.269531 33.289062 28.3125 33.269531 28.359375 33.261719 Z M 28.359375 33.261719 " fill-opacity="1" fill-rule="evenodd"/></g><path fill="#ffffff" d="M 30.105469 36.921875 C 30.074219 37.128906 29.6875 37.308594 29.40625 37.421875 C 29.109375 37.539062 28.800781 37.609375 28.511719 37.519531 C 28.339844 37.46875 28.261719 37.378906 28.207031 37.234375 C 28.011719 36.726562 27.929688 36.304688 27.886719 36.179688 C 27.902344 36.214844 28.101562 36.804688 28.300781 37.191406 C 28.359375 37.308594 28.445312 37.386719 28.601562 37.433594 C 28.832031 37.503906 29.117188 37.449219 29.394531 37.355469 C 29.6875 37.261719 30.050781 37.074219 30.105469 36.921875 Z M 30.105469 36.921875 " fill-opacity="1" fill-rule="evenodd"/><path fill="#ffffff" d="M 28.152344 35.242188 C 28.152344 36.023438 28.152344 36.804688 28.152344 37.585938 C 28.097656 37.0625 28.046875 35.519531 28.046875 35.261719 C 28.046875 34.964844 27.675781 34.949219 27.675781 35.242188 C 27.675781 35.464844 27.722656 36.550781 27.648438 36.96875 C 27.648438 36.1875 27.648438 36.023438 27.648438 35.242188 C 27.648438 34.890625 28.152344 34.890625 28.152344 35.242188 Z M 28.152344 35.242188 " fill-opacity="1" fill-rule="evenodd"/><path fill="#ffffff" d="M 29.410156 34.175781 C 28.855469 34.277344 28.203125 34.597656 27.757812 34.894531 C 28.035156 34.46875 28.953125 34.097656 29.410156 34.175781 Z M 29.410156 34.175781 " fill-opacity="1" fill-rule="evenodd"/><path fill="#ffffff" d="M 29.992188 35.695312 C 29.4375 35.796875 28.785156 36.117188 28.339844 36.414062 C 28.617188 35.992188 29.535156 35.617188 29.992188 35.695312 Z M 29.992188 35.695312 " fill-opacity="1" fill-rule="evenodd"/><path fill="#ffffff" d="M 28.101562 36.796875 C 28.113281 37.003906 28.128906 37.210938 28.140625 37.417969 C 28.164062 37.730469 28.792969 37.804688 29.105469 37.910156 C 29.296875 37.792969 29.558594 37.683594 29.738281 37.535156 C 29.84375 37.445312 29.933594 37.261719 29.949219 37.136719 C 29.992188 37.320312 29.949219 37.519531 29.871094 37.609375 C 29.742188 37.757812 29.472656 37.835938 29.148438 38.027344 C 28.703125 37.875 28.070312 37.8125 28.082031 37.445312 C 28.085938 37.230469 28.09375 37.011719 28.101562 36.796875 Z M 28.101562 36.796875 " fill-opacity="1" fill-rule="evenodd"/><path fill="#ffffff" d="M 28.816406 37.96875 C 28.761719 38.152344 29.019531 38.144531 29.035156 38.523438 C 29.058594 39.152344 28.945312 40.203125 29.558594 40.203125 C 28.917969 39.929688 29.183594 38.484375 29.152344 38.066406 L 29.148438 38.070312 C 29.042969 38.035156 28.929688 38 28.816406 37.96875 Z M 28.816406 37.96875 " fill-opacity="1" fill-rule="evenodd"/><path fill="#ffffff" d="M 28.664062 37.941406 C 27.808594 37.671875 27.660156 37.878906 27.660156 37.152344 C 27.816406 37.78125 28.019531 37.699219 28.664062 37.941406 Z M 28.664062 37.941406 " fill-opacity="1" fill-rule="evenodd"/><path fill="#ffffff" d="M 29.234375 37.859375 C 29.707031 37.550781 29.835938 37.640625 29.714844 37.234375 C 29.722656 37.617188 29.585938 37.609375 29.234375 37.859375 Z M 29.234375 37.859375 " fill-opacity="1" fill-rule="evenodd"/><path fill="#ffffff" d="M 28.992188 39.386719 C 28.976562 39.8125 28.886719 40.195312 28.503906 40.195312 C 29.125 39.945312 28.851562 38.660156 28.851562 38.238281 C 28.859375 38.242188 28.867188 38.25 28.871094 38.257812 C 28.933594 38.335938 28.953125 38.417969 28.960938 38.511719 C 28.96875 38.707031 28.964844 38.902344 28.972656 39.097656 C 28.976562 39.179688 28.980469 39.28125 28.992188 39.386719 Z M 28.992188 39.386719 " fill-opacity="1" fill-rule="evenodd"/><path fill="#ffffff" d="M 29.636719 40.222656 C 29.886719 40.269531 30.050781 40.347656 30.050781 40.4375 C 30.050781 40.585938 29.597656 40.703125 29.035156 40.703125 C 28.472656 40.703125 28.019531 40.585938 28.019531 40.4375 C 28.019531 40.347656 28.179688 40.269531 28.433594 40.222656 C 28.382812 40.246094 28.355469 40.273438 28.355469 40.304688 C 28.355469 40.402344 28.660156 40.480469 29.035156 40.480469 C 29.410156 40.480469 29.710938 40.402344 29.710938 40.304688 C 29.710938 40.273438 29.683594 40.246094 29.636719 40.222656 Z M 29.636719 40.222656 " fill-opacity="1" fill-rule="evenodd"/><g clip-path="url(#id6)"><path fill="#ffffff" d="M 30.402344 40.40625 C 30.929688 40.511719 31.269531 40.679688 31.269531 40.871094 C 31.269531 41.195312 30.269531 41.457031 29.035156 41.457031 C 27.800781 41.457031 26.800781 41.195312 26.800781 40.871094 C 26.800781 40.679688 27.140625 40.511719 27.667969 40.40625 C 27.257812 40.503906 27.003906 40.644531 27.003906 40.800781 C 27.003906 41.09375 27.914062 41.335938 29.035156 41.335938 C 30.15625 41.335938 31.066406 41.09375 31.066406 40.800781 C 31.066406 40.644531 30.808594 40.503906 30.402344 40.40625 Z M 30.402344 40.40625 " fill-opacity="1" fill-rule="evenodd"/></g><g clip-path="url(#id7)"><path fill="#9a161f" d="M 24.808594 32.386719 C 22.324219 32.386719 20.039062 33.210938 18.191406 34.585938 C 18.375 28.855469 22.820312 23.121094 31.59375 17.386719 L 30.292969 15.375 C 17.578125 23.246094 11.222656 31.878906 11.222656 41.28125 C 11.222656 45.597656 12.402344 48.984375 14.761719 51.425781 C 17.121094 53.875 20.109375 55.097656 23.71875 55.097656 C 27.332031 55.097656 30.246094 54.113281 32.460938 52.148438 C 34.675781 50.183594 35.785156 47.804688 35.785156 45.023438 C 35.785156 44.992188 35.777344 44.96875 35.777344 44.9375 C 35.847656 44.441406 35.894531 43.945312 35.894531 43.429688 C 35.894531 37.332031 30.929688 32.386719 24.808594 32.386719 Z M 24.808594 32.386719 " fill-opacity="1" fill-rule="nonzero"/></g><g clip-path="url(#id8)"><path fill="#9a161f" d="M 60.648438 51.054688 C 60.792969 50.886719 60.964844 50.730469 61.097656 50.558594 C 62.730469 48.632812 63.722656 46.148438 63.722656 43.429688 C 63.722656 37.332031 58.757812 32.386719 52.636719 32.386719 C 49.835938 32.386719 47.28125 33.433594 45.328125 35.144531 C 45.328125 35.074219 45.320312 35.019531 45.320312 34.949219 C 45.320312 29.097656 49.796875 23.242188 58.753906 17.386719 L 57.453125 15.375 C 44.742188 23.246094 38.382812 31.878906 38.382812 41.285156 C 38.382812 45.601562 39.5625 48.984375 41.921875 51.429688 C 44.28125 53.875 47.269531 55.097656 50.878906 55.097656 C 54.492188 55.097656 57.40625 54.117188 59.621094 52.148438 C 59.933594 51.871094 60.175781 51.5625 60.445312 51.269531 C 60.515625 51.199219 60.578125 51.125 60.648438 51.054688 Z M 60.648438 51.054688 " fill-opacity="1" fill-rule="nonzero"/></g></svg>