<svg xmlns="http://www.w3.org/2000/svg" xmlns:xlink="http://www.w3.org/1999/xlink" width="40" zoomAndPan="magnify" viewBox="0 0 30 30.000001" height="40" preserveAspectRatio="xMidYMid meet" version="1.0"><defs><clipPath id="id1"><path d="M 0.484375 0 L 29.515625 0 L 29.515625 29.03125 L 0.484375 29.03125 Z M 0.484375 0 " clip-rule="nonzero"/></clipPath><clipPath id="id2"><path d="M 4.734375 1.714844 L 25.058594 1.714844 L 25.058594 27.691406 L 4.734375 27.691406 Z M 4.734375 1.714844 " clip-rule="nonzero"/></clipPath><clipPath id="id3"><path d="M 4.734375 1.714844 L 25.058594 1.714844 L 25.058594 27.691406 L 4.734375 27.691406 Z M 4.734375 1.714844 " clip-rule="nonzero"/></clipPath><clipPath id="id4"><path d="M 4.734375 1.59375 L 25 1.59375 L 25 27.722656 L 4.734375 27.722656 Z M 4.734375 1.59375 " clip-rule="nonzero"/></clipPath></defs><g clip-path="url(#id1)"><path fill="#ffffff" d="M 0.484375 0 L 29.515625 0 L 29.515625 36.289062 L 0.484375 36.289062 Z M 0.484375 0 " fill-opacity="1" fill-rule="nonzero"/><path fill="#ffffff" d="M 0.484375 0 L 29.515625 0 L 29.515625 29.03125 L 0.484375 29.03125 Z M 0.484375 0 " fill-opacity="1" fill-rule="nonzero"/><path fill="#ffffff" d="M 0.484375 0 L 29.515625 0 L 29.515625 29.03125 L 0.484375 29.03125 Z M 0.484375 0 " fill-opacity="1" fill-rule="nonzero"/></g><g clip-path="url(#id2)"><path fill="#0f0e0c" d="M 25.058594 19.859375 C 25.058594 19.855469 25.058594 19.855469 25.058594 19.855469 C 25.058594 19.851562 25.058594 19.851562 25.058594 19.847656 C 24.984375 19.316406 24.828125 18.808594 24.59375 18.347656 C 24.457031 18.074219 24.292969 17.8125 24.132812 17.5625 C 23.828125 17.078125 23.539062 16.621094 23.417969 16.09375 C 23.257812 15.402344 23.402344 14.710938 23.554688 13.980469 L 23.566406 13.921875 C 23.679688 13.390625 23.765625 12.945312 23.773438 12.476562 C 23.792969 11.328125 23.292969 10.199219 22.433594 9.453125 C 22.269531 9.3125 22.09375 9.183594 21.925781 9.0625 C 21.621094 8.839844 21.335938 8.632812 21.117188 8.355469 C 20.78125 7.941406 20.621094 7.402344 20.464844 6.878906 C 20.425781 6.746094 20.382812 6.609375 20.339844 6.476562 C 19.609375 4.21875 17.929688 2.46875 15.949219 1.902344 C 14.003906 1.34375 11.785156 2.070312 10.65625 3.628906 C 9.578125 3.835938 8.722656 4.1875 8.042969 4.703125 C 7.054688 5.453125 6.484375 6.59375 6.550781 7.679688 C 6.578125 8.09375 6.691406 8.496094 6.804688 8.886719 C 6.957031 9.429688 7.105469 9.9375 7.027344 10.460938 C 6.945312 11.027344 6.605469 11.527344 6.273438 12.007812 C 6.210938 12.105469 6.144531 12.199219 6.082031 12.292969 C 5.554688 13.09375 5.371094 13.769531 5.523438 14.355469 C 5.527344 14.375 5.53125 14.394531 5.539062 14.410156 C 5.597656 14.609375 5.691406 14.785156 5.785156 14.960938 C 5.878906 15.136719 5.96875 15.300781 6.019531 15.480469 C 6.195312 16.117188 5.847656 16.769531 5.507812 17.394531 C 5.429688 17.542969 5.347656 17.695312 5.273438 17.84375 C 4.632812 19.144531 4.5625 20.78125 5.078125 22.222656 C 5.082031 22.226562 5.082031 22.230469 5.085938 22.234375 C 5.175781 22.414062 5.269531 22.59375 5.375 22.765625 C 5.402344 22.8125 5.433594 22.863281 5.460938 22.910156 C 7.273438 25.839844 10.804688 27.691406 14.691406 27.691406 C 15.238281 27.691406 15.777344 27.65625 16.308594 27.582031 C 16.457031 27.5625 16.601562 27.539062 16.75 27.515625 C 18.53125 27.207031 20.203125 26.5 21.589844 25.449219 C 23.484375 24.015625 24.714844 22.042969 25.058594 19.894531 L 25.058594 19.890625 C 25.058594 19.886719 25.058594 19.878906 25.058594 19.871094 C 25.058594 19.867188 25.058594 19.863281 25.058594 19.859375 " fill-opacity="1" fill-rule="nonzero"/></g><path fill="#ffffff" d="M 19.0625 14.363281 C 19.109375 14.757812 19.074219 15.175781 18.996094 15.566406 C 18.761719 16.734375 18.246094 17.867188 18.546875 19.074219 C 18.671875 19.59375 18.953125 20.164062 19.121094 20.738281 C 18.546875 20.65625 17.976562 20.570312 17.652344 20.035156 C 17.5 19.777344 17.457031 19.46875 17.417969 19.179688 C 17.378906 18.847656 17.339844 18.511719 17.300781 18.179688 C 17.25 17.761719 17.203125 17.34375 17.152344 16.921875 C 17.289062 16.800781 17.417969 16.671875 17.542969 16.542969 C 18.164062 15.902344 18.675781 15.164062 19.0625 14.363281 " fill-opacity="1" fill-rule="nonzero"/><g clip-path="url(#id3)"><path fill="#0f0e0c" d="M 22.488281 24.320312 C 22.472656 23.035156 22.988281 21.820312 22.984375 20.539062 C 22.984375 19.996094 22.894531 19.453125 22.632812 18.976562 C 22.390625 18.53125 22.023438 18.179688 21.710938 17.789062 C 21.351562 17.339844 21.132812 16.851562 21.1875 16.257812 C 21.246094 15.65625 21.488281 15.09375 21.59375 14.5 C 21.757812 13.574219 21.402344 12.820312 20.863281 12.101562 C 20.265625 11.304688 19.449219 10.53125 19.367188 9.46875 C 19.363281 9.40625 19.246094 9.417969 19.25 9.480469 C 19.320312 11.347656 21.625 12.304688 21.398438 14.246094 C 21.273438 15.292969 20.609375 16.304688 21.105469 17.351562 C 21.320312 17.804688 21.6875 18.160156 22 18.542969 C 22.359375 18.988281 22.601562 19.472656 22.675781 20.050781 C 22.859375 21.511719 22.136719 22.894531 22.191406 24.351562 C 22.195312 24.433594 22.265625 24.46875 22.339844 24.46875 C 22.058594 24.738281 21.757812 25 21.4375 25.242188 C 20.015625 26.320312 18.28125 27.027344 16.4375 27.304688 C 15.929688 26.929688 15.511719 26.464844 15.410156 25.796875 C 15.402344 25.75 15.398438 25.703125 15.398438 25.660156 C 15.390625 25.558594 15.394531 25.457031 15.410156 25.363281 C 15.53125 24.523438 16.441406 24.074219 17.195312 23.808594 C 17.957031 23.539062 18.847656 23.257812 19.292969 22.511719 C 19.566406 22.058594 19.59375 21.578125 19.511719 21.09375 C 19.496094 20.992188 19.472656 20.890625 19.445312 20.789062 C 19.335938 20.359375 19.160156 19.929688 19.015625 19.53125 C 18.804688 18.9375 18.710938 18.355469 18.796875 17.726562 C 18.882812 17.09375 19.089844 16.492188 19.238281 15.875 C 19.394531 15.222656 19.484375 14.484375 19.296875 13.832031 C 19.257812 13.695312 19.210938 13.566406 19.148438 13.441406 C 19.078125 13.304688 18.996094 13.175781 18.894531 13.054688 C 18.597656 12.691406 18.195312 12.585938 17.816406 12.335938 C 17.304688 12.003906 17.378906 11.371094 17.546875 10.859375 C 17.707031 10.378906 17.882812 9.921875 17.851562 9.402344 C 17.824219 8.992188 17.703125 8.59375 17.503906 8.238281 C 16.957031 7.273438 15.949219 6.957031 14.917969 6.910156 C 14.117188 6.875 13.195312 6.984375 12.398438 6.753906 C 12.355469 6.484375 12.269531 6.226562 12.132812 5.992188 C 11.988281 5.742188 11.785156 5.554688 11.578125 5.363281 C 11.296875 5.105469 10.996094 4.75 11.214844 4.34375 C 11.230469 4.3125 11.179688 4.296875 11.160156 4.324219 C 10.855469 4.761719 11.1875 5.253906 11.488281 5.585938 C 11.773438 5.90625 11.976562 6.246094 12.074219 6.636719 C 12.089844 6.695312 12.101562 6.757812 12.109375 6.816406 C 12.128906 6.921875 12.136719 7.027344 12.140625 7.136719 C 12.164062 8.375 11.367188 9.375 10.582031 10.226562 C 10.316406 10.515625 10.046875 10.804688 9.792969 11.097656 C 9.714844 11.1875 9.640625 11.28125 9.566406 11.371094 C 9.199219 11.824219 8.878906 12.308594 8.652344 12.863281 C 8.632812 12.917969 8.609375 12.972656 8.589844 13.027344 C 8.558594 13.113281 8.53125 13.195312 8.503906 13.28125 C 8.199219 14.285156 8.175781 15.378906 8.429688 16.398438 C 8.726562 17.597656 9.394531 18.78125 10.332031 19.574219 C 10.429688 19.660156 10.636719 19.539062 10.53125 19.421875 C 9.761719 18.582031 9.117188 17.675781 8.789062 16.5625 C 8.511719 15.625 8.476562 14.613281 8.703125 13.65625 C 8.894531 13.960938 9.148438 14.210938 9.453125 14.339844 C 9.742188 14.464844 10.085938 14.464844 10.367188 14.339844 C 10.699219 15.132812 11.140625 15.875 11.71875 16.503906 C 11.871094 16.671875 12.035156 16.828125 12.207031 16.980469 C 12.242188 17.5625 12.292969 18.148438 12.339844 18.730469 C 12.398438 19.53125 12.59375 20.433594 11.878906 20.988281 C 11.585938 21.214844 11.230469 21.363281 10.898438 21.515625 C 10.515625 21.691406 10.132812 21.855469 9.746094 22.015625 C 9.285156 22.207031 8.8125 22.382812 8.34375 22.554688 C 8.253906 22.449219 8.144531 22.359375 8.011719 22.292969 C 7.207031 21.878906 6.40625 22.34375 5.617188 22.671875 C 5.507812 22.492188 5.40625 22.308594 5.316406 22.125 C 4.824219 20.75 4.894531 19.195312 5.5 17.960938 C 5.570312 17.816406 5.652344 17.667969 5.730469 17.519531 C 6.09375 16.847656 6.46875 16.148438 6.261719 15.410156 C 6.203125 15.203125 6.105469 15.015625 6.007812 14.835938 C 5.917969 14.664062 5.832031 14.507812 5.78125 14.335938 C 5.777344 14.320312 5.773438 14.308594 5.769531 14.292969 C 5.636719 13.78125 5.808594 13.175781 6.292969 12.4375 C 6.355469 12.34375 6.417969 12.25 6.484375 12.15625 C 6.828125 11.648438 7.1875 11.125 7.277344 10.5 C 7.363281 9.921875 7.203125 9.359375 7.046875 8.816406 C 6.941406 8.4375 6.828125 8.046875 6.804688 7.660156 C 6.742188 6.664062 7.273438 5.609375 8.195312 4.910156 C 8.851562 4.410156 9.6875 4.074219 10.75 3.875 C 10.753906 3.875 10.753906 3.875 10.753906 3.875 C 10.769531 3.875 10.78125 3.867188 10.792969 3.859375 C 10.800781 3.855469 10.804688 3.851562 10.808594 3.847656 C 10.8125 3.84375 10.816406 3.839844 10.820312 3.835938 C 10.824219 3.835938 10.828125 3.828125 10.832031 3.824219 C 10.832031 3.820312 10.835938 3.816406 10.839844 3.8125 C 11.902344 2.320312 14.019531 1.621094 15.878906 2.152344 C 17.777344 2.695312 19.394531 4.382812 20.101562 6.558594 C 20.140625 6.6875 20.183594 6.824219 20.222656 6.957031 C 20.386719 7.503906 20.554688 8.066406 20.917969 8.519531 C 21.164062 8.824219 21.476562 9.050781 21.777344 9.273438 C 21.941406 9.394531 22.113281 9.519531 22.269531 9.652344 C 23.070312 10.347656 23.535156 11.398438 23.519531 12.472656 C 23.511719 12.917969 23.425781 13.347656 23.316406 13.867188 L 23.308594 13.925781 C 23.15625 14.652344 22.996094 15.40625 23.167969 16.152344 C 23.300781 16.722656 23.613281 17.222656 23.917969 17.703125 C 24.074219 17.949219 24.234375 18.207031 24.367188 18.464844 C 24.585938 18.898438 24.734375 19.371094 24.804688 19.871094 C 24.539062 21.515625 23.726562 23.058594 22.488281 24.320312 Z M 12.644531 18.96875 C 12.585938 18.375 12.53125 17.78125 12.464844 17.1875 C 13.105469 17.671875 13.855469 18.007812 14.652344 18.035156 C 15.523438 18.0625 16.300781 17.644531 16.957031 17.09375 C 16.980469 17.492188 17.007812 17.894531 17.039062 18.292969 C 17.089844 18.894531 17.070312 19.636719 17.382812 20.171875 C 17.640625 20.613281 18.132812 20.8125 18.601562 20.917969 C 18.800781 20.960938 19 20.996094 19.195312 21.03125 C 19.300781 21.523438 19.289062 22.007812 19 22.457031 C 18.476562 23.253906 17.417969 23.410156 16.609375 23.757812 C 15.84375 24.085938 15.132812 24.664062 15.078125 25.507812 C 14.652344 25.71875 14.230469 25.996094 13.839844 26.097656 C 12.6875 26.390625 12.632812 24.953125 11.804688 24.554688 C 11.433594 24.375 11.019531 24.460938 10.648438 24.585938 C 10.257812 24.714844 9.769531 24.984375 9.355469 24.824219 C 8.828125 24.617188 8.785156 23.925781 8.699219 23.441406 C 8.65625 23.210938 8.597656 22.984375 8.496094 22.785156 C 8.996094 22.601562 9.488281 22.402344 9.980469 22.195312 C 10.394531 22.023438 10.804688 21.84375 11.214844 21.652344 C 11.550781 21.5 11.890625 21.335938 12.171875 21.089844 C 12.808594 20.53125 12.726562 19.746094 12.644531 18.96875 Z M 18.546875 19.074219 C 18.671875 19.59375 18.953125 20.164062 19.121094 20.738281 C 18.546875 20.65625 17.976562 20.570312 17.652344 20.035156 C 17.5 19.777344 17.457031 19.46875 17.417969 19.179688 C 17.378906 18.847656 17.339844 18.511719 17.300781 18.179688 C 17.25 17.761719 17.203125 17.34375 17.152344 16.921875 C 17.289062 16.800781 17.417969 16.671875 17.542969 16.542969 C 18.164062 15.902344 18.675781 15.164062 19.0625 14.363281 C 19.109375 14.757812 19.074219 15.175781 18.996094 15.566406 C 18.761719 16.734375 18.246094 17.867188 18.546875 19.074219 Z M 10.269531 14.09375 C 9.972656 14.226562 9.597656 14.160156 9.320312 13.941406 C 9.113281 13.78125 8.960938 13.566406 8.839844 13.335938 C 8.828125 13.3125 8.820312 13.292969 8.808594 13.269531 C 8.824219 13.222656 8.839844 13.171875 8.855469 13.125 C 9.039062 12.601562 9.308594 12.148438 9.625 11.726562 C 9.742188 12.382812 9.902344 13.03125 10.109375 13.648438 C 10.160156 13.796875 10.210938 13.945312 10.269531 14.09375 Z M 9.855469 11.429688 C 10.171875 11.042969 10.515625 10.679688 10.855469 10.308594 C 11.574219 9.527344 12.285156 8.625 12.410156 7.527344 C 12.433594 7.332031 12.4375 7.132812 12.421875 6.9375 C 12.84375 7.074219 13.296875 7.125 13.746094 7.140625 C 14.765625 7.171875 15.929688 7.0625 16.75 7.804688 C 17.082031 8.105469 17.300781 8.472656 17.414062 8.867188 C 17.152344 8.691406 16.777344 8.734375 16.503906 8.875 C 16.273438 8.996094 15.976562 9.285156 16.042969 9.582031 C 16.066406 9.679688 16.199219 9.679688 16.257812 9.617188 C 16.402344 9.472656 16.503906 9.289062 16.699219 9.203125 C 16.894531 9.117188 17.101562 9.167969 17.304688 9.195312 C 17.359375 9.203125 17.425781 9.183594 17.476562 9.144531 C 17.550781 9.582031 17.503906 10.042969 17.351562 10.488281 C 17.289062 10.667969 17.226562 10.847656 17.175781 11.03125 L 17.175781 10.6875 C 17.175781 10.515625 17.039062 10.375 16.871094 10.375 L 16.863281 10.375 C 16.695312 10.375 16.558594 10.515625 16.558594 10.6875 L 16.558594 11.792969 C 16.558594 11.964844 16.695312 12.109375 16.863281 12.109375 L 16.871094 12.109375 C 16.988281 12.109375 17.089844 12.039062 17.140625 11.9375 C 17.144531 11.945312 17.144531 11.949219 17.148438 11.957031 C 17.28125 12.414062 17.664062 12.597656 18.054688 12.789062 C 18.542969 13.027344 18.828125 13.425781 18.96875 13.886719 C 18.632812 14.660156 18.191406 15.382812 17.644531 16.023438 C 17.480469 16.214844 17.304688 16.410156 17.113281 16.597656 C 17.058594 16.652344 17 16.707031 16.941406 16.761719 C 16.367188 17.289062 15.691406 17.714844 14.933594 17.769531 C 14.003906 17.832031 13.117188 17.375 12.414062 16.765625 C 12.335938 16.695312 12.261719 16.625 12.1875 16.554688 C 12.125 16.492188 12.0625 16.429688 12.003906 16.367188 C 11.410156 15.738281 10.960938 14.980469 10.625 14.175781 C 10.585938 14.085938 10.550781 13.996094 10.515625 13.90625 C 10.480469 13.8125 10.445312 13.714844 10.414062 13.621094 C 10.164062 12.902344 10.003906 12.167969 9.855469 11.429688 Z M 25.058594 19.859375 C 25.058594 19.855469 25.058594 19.855469 25.058594 19.855469 C 25.058594 19.851562 25.058594 19.851562 25.058594 19.847656 C 24.984375 19.316406 24.828125 18.808594 24.59375 18.347656 C 24.457031 18.074219 24.292969 17.8125 24.132812 17.5625 C 23.828125 17.078125 23.539062 16.621094 23.417969 16.09375 C 23.257812 15.402344 23.402344 14.710938 23.554688 13.980469 L 23.566406 13.921875 C 23.679688 13.390625 23.765625 12.945312 23.773438 12.476562 C 23.792969 11.328125 23.292969 10.199219 22.433594 9.453125 C 22.269531 9.3125 22.09375 9.183594 21.925781 9.0625 C 21.621094 8.839844 21.335938 8.632812 21.117188 8.355469 C 20.78125 7.941406 20.621094 7.402344 20.464844 6.878906 C 20.425781 6.746094 20.382812 6.609375 20.339844 6.476562 C 19.609375 4.21875 17.929688 2.46875 15.949219 1.902344 C 14.003906 1.34375 11.785156 2.070312 10.65625 3.628906 C 9.578125 3.835938 8.722656 4.1875 8.042969 4.703125 C 7.054688 5.453125 6.484375 6.59375 6.550781 7.679688 C 6.578125 8.09375 6.691406 8.496094 6.804688 8.886719 C 6.957031 9.429688 7.105469 9.9375 7.027344 10.460938 C 6.945312 11.027344 6.605469 11.527344 6.273438 12.007812 C 6.210938 12.105469 6.144531 12.199219 6.082031 12.292969 C 5.554688 13.09375 5.371094 13.769531 5.523438 14.355469 C 5.527344 14.375 5.53125 14.394531 5.539062 14.410156 C 5.597656 14.609375 5.691406 14.785156 5.785156 14.960938 C 5.878906 15.136719 5.96875 15.300781 6.019531 15.480469 C 6.195312 16.117188 5.847656 16.769531 5.507812 17.394531 C 5.429688 17.542969 5.347656 17.695312 5.273438 17.84375 C 4.632812 19.144531 4.5625 20.78125 5.078125 22.222656 C 5.082031 22.226562 5.082031 22.230469 5.085938 22.234375 C 5.175781 22.414062 5.269531 22.59375 5.375 22.765625 C 5.402344 22.8125 5.433594 22.863281 5.460938 22.910156 C 7.273438 25.839844 10.804688 27.691406 14.691406 27.691406 C 15.238281 27.691406 15.777344 27.65625 16.308594 27.582031 C 16.457031 27.5625 16.601562 27.539062 16.75 27.515625 C 18.53125 27.207031 20.203125 26.5 21.589844 25.449219 C 23.484375 24.015625 24.714844 22.042969 25.058594 19.894531 L 25.058594 19.890625 C 25.058594 19.886719 25.058594 19.878906 25.058594 19.871094 C 25.058594 19.867188 25.058594 19.863281 25.058594 19.859375 " fill-opacity="1" fill-rule="nonzero"/></g><path fill="#0f0e0c" d="M 14.238281 15.289062 C 14.507812 15.371094 14.796875 15.394531 15.074219 15.367188 C 15.59375 15.316406 16.164062 15.09375 16.476562 14.648438 C 16.554688 14.535156 16.394531 14.460938 16.308594 14.527344 C 15.933594 14.828125 15.542969 15.058594 15.0625 15.113281 C 14.839844 15.140625 14.617188 15.128906 14.398438 15.085938 C 14.15625 15.035156 13.933594 14.898438 13.691406 14.878906 C 13.675781 14.875 13.652344 14.886719 13.660156 14.90625 C 13.742188 15.128906 14.035156 15.226562 14.238281 15.289062 " fill-opacity="1" fill-rule="nonzero"/><path fill="#0f0e0c" d="M 15.023438 12.820312 C 15.132812 12.8125 15.222656 12.742188 15.328125 12.722656 C 15.570312 12.683594 15.582031 12.988281 15.5625 13.167969 C 15.527344 13.492188 15.320312 13.769531 15.035156 13.90625 C 14.890625 13.972656 15.007812 14.144531 15.140625 14.082031 C 15.601562 13.867188 16 13.238281 15.761719 12.714844 C 15.660156 12.488281 15.453125 12.445312 15.234375 12.527344 C 15.015625 12.613281 14.832031 12.625 14.660156 12.4375 C 14.5 12.269531 14.445312 12.007812 14.367188 11.796875 C 14.347656 11.738281 14.238281 11.761719 14.242188 11.820312 C 14.269531 12.265625 14.484375 12.867188 15.023438 12.820312 " fill-opacity="1" fill-rule="nonzero"/><path fill="#0f0e0c" d="M 15.53125 15.828125 C 15.25 16.070312 14.9375 16.046875 14.640625 15.851562 C 14.609375 15.832031 14.550781 15.847656 14.566406 15.894531 C 14.71875 16.371094 15.476562 16.300781 15.683594 15.917969 C 15.734375 15.828125 15.589844 15.78125 15.53125 15.828125 " fill-opacity="1" fill-rule="nonzero"/><path fill="#0f0e0c" d="M 11.691406 9.882812 C 11.859375 9.578125 12.191406 9.375 12.535156 9.472656 C 12.808594 9.546875 12.960938 9.789062 13.167969 9.964844 C 13.261719 10.046875 13.484375 10 13.484375 9.851562 C 13.488281 9.367188 12.96875 9.085938 12.546875 9.070312 C 12.0625 9.050781 11.605469 9.351562 11.4375 9.816406 C 11.378906 9.976562 11.625 10.003906 11.691406 9.882812 " fill-opacity="1" fill-rule="nonzero"/><path fill="#0f0e0c" d="M 12.597656 10.375 L 12.589844 10.375 C 12.421875 10.375 12.285156 10.515625 12.285156 10.6875 L 12.285156 11.792969 C 12.285156 11.964844 12.421875 12.109375 12.589844 12.109375 L 12.597656 12.109375 C 12.765625 12.109375 12.90625 11.964844 12.90625 11.792969 L 12.90625 10.6875 C 12.90625 10.515625 12.765625 10.375 12.597656 10.375 " fill-opacity="1" fill-rule="nonzero"/><g clip-path="url(#id4)"><path fill="#ffffff" d="M 8.855469 13.125 C 8.839844 13.171875 8.824219 13.222656 8.808594 13.269531 C 8.820312 13.292969 8.828125 13.3125 8.839844 13.335938 C 8.960938 13.566406 9.113281 13.78125 9.320312 13.941406 C 9.597656 14.160156 9.972656 14.226562 10.269531 14.09375 C 10.210938 13.945312 10.160156 13.796875 10.109375 13.648438 C 9.902344 13.03125 9.742188 12.382812 9.625 11.726562 C 9.308594 12.148438 9.039062 12.601562 8.855469 13.125 Z M 11.691406 9.882812 C 11.859375 9.578125 12.191406 9.375 12.535156 9.472656 C 12.808594 9.546875 12.960938 9.789062 13.167969 9.964844 C 13.261719 10.046875 13.484375 10 13.484375 9.851562 C 13.488281 9.367188 12.96875 9.085938 12.546875 9.070312 C 12.0625 9.050781 11.605469 9.351562 11.4375 9.816406 C 11.378906 9.976562 11.625 10.003906 11.691406 9.882812 Z M 13.660156 14.90625 C 13.742188 15.128906 14.035156 15.226562 14.238281 15.289062 C 14.507812 15.371094 14.796875 15.394531 15.074219 15.367188 C 15.59375 15.316406 16.164062 15.09375 16.476562 14.648438 C 16.554688 14.535156 16.394531 14.460938 16.308594 14.527344 C 15.933594 14.828125 15.542969 15.058594 15.0625 15.113281 C 14.839844 15.140625 14.617188 15.128906 14.398438 15.085938 C 14.15625 15.035156 13.933594 14.898438 13.691406 14.878906 C 13.675781 14.875 13.652344 14.886719 13.660156 14.90625 Z M 14.242188 11.820312 C 14.269531 12.265625 14.484375 12.867188 15.023438 12.820312 C 15.132812 12.8125 15.222656 12.742188 15.328125 12.722656 C 15.570312 12.683594 15.582031 12.988281 15.5625 13.167969 C 15.527344 13.492188 15.320312 13.769531 15.035156 13.90625 C 14.890625 13.972656 15.007812 14.144531 15.140625 14.082031 C 15.601562 13.867188 16 13.238281 15.761719 12.714844 C 15.660156 12.488281 15.453125 12.445312 15.234375 12.527344 C 15.015625 12.613281 14.832031 12.625 14.660156 12.4375 C 14.5 12.269531 14.445312 12.007812 14.367188 11.796875 C 14.347656 11.738281 14.238281 11.761719 14.242188 11.820312 Z M 15.53125 15.828125 C 15.25 16.070312 14.9375 16.046875 14.640625 15.851562 C 14.609375 15.832031 14.550781 15.847656 14.566406 15.894531 C 14.71875 16.371094 15.476562 16.300781 15.683594 15.917969 C 15.734375 15.828125 15.589844 15.78125 15.53125 15.828125 Z M 12.90625 10.6875 C 12.90625 10.515625 12.765625 10.375 12.597656 10.375 L 12.589844 10.375 C 12.421875 10.375 12.285156 10.515625 12.285156 10.6875 L 12.285156 11.792969 C 12.285156 11.964844 12.421875 12.109375 12.589844 12.109375 L 12.597656 12.109375 C 12.765625 12.109375 12.90625 11.964844 12.90625 11.792969 Z M 10.414062 13.621094 C 10.164062 12.902344 10.003906 12.167969 9.855469 11.429688 C 10.171875 11.042969 10.515625 10.679688 10.855469 10.308594 C 11.574219 9.527344 12.285156 8.625 12.410156 7.527344 C 12.433594 7.332031 12.4375 7.132812 12.421875 6.9375 C 12.84375 7.074219 13.296875 7.125 13.746094 7.140625 C 14.765625 7.171875 15.929688 7.0625 16.75 7.804688 C 17.082031 8.105469 17.300781 8.472656 17.414062 8.867188 C 17.152344 8.691406 16.777344 8.734375 16.503906 8.875 C 16.273438 8.996094 15.976562 9.285156 16.042969 9.582031 C 16.066406 9.679688 16.199219 9.679688 16.257812 9.617188 C 16.402344 9.472656 16.503906 9.289062 16.699219 9.203125 C 16.894531 9.117188 17.101562 9.167969 17.304688 9.195312 C 17.359375 9.203125 17.425781 9.183594 17.476562 9.144531 C 17.550781 9.582031 17.503906 10.042969 17.351562 10.488281 C 17.289062 10.667969 17.226562 10.847656 17.175781 11.03125 L 17.175781 10.6875 C 17.175781 10.515625 17.039062 10.375 16.871094 10.375 L 16.863281 10.375 C 16.695312 10.375 16.558594 10.515625 16.558594 10.6875 L 16.558594 11.792969 C 16.558594 11.964844 16.695312 12.109375 16.863281 12.109375 L 16.871094 12.109375 C 16.988281 12.109375 17.089844 12.039062 17.140625 11.9375 C 17.144531 11.945312 17.144531 11.949219 17.148438 11.957031 C 17.28125 12.414062 17.664062 12.597656 18.054688 12.789062 C 18.542969 13.027344 18.828125 13.425781 18.96875 13.886719 C 18.632812 14.660156 18.191406 15.382812 17.644531 16.023438 C 17.480469 16.214844 17.304688 16.410156 17.113281 16.597656 C 17.058594 16.652344 17 16.707031 16.941406 16.761719 C 16.367188 17.289062 15.691406 17.714844 14.933594 17.769531 C 14.003906 17.832031 13.117188 17.375 12.414062 16.765625 C 12.335938 16.695312 12.261719 16.625 12.1875 16.554688 C 12.125 16.492188 12.0625 16.429688 12.003906 16.367188 C 11.410156 15.738281 10.960938 14.980469 10.625 14.175781 C 10.585938 14.085938 10.550781 13.996094 10.515625 13.90625 C 10.480469 13.8125 10.445312 13.714844 10.414062 13.621094 Z M 16.609375 23.757812 C 17.417969 23.410156 18.476562 23.253906 19 22.457031 C 19.289062 22.007812 19.300781 21.523438 19.195312 21.03125 C 19 20.996094 18.800781 20.960938 18.601562 20.917969 C 18.132812 20.8125 17.640625 20.613281 17.382812 20.171875 C 17.070312 19.636719 17.089844 18.894531 17.039062 18.292969 C 17.007812 17.894531 16.980469 17.492188 16.957031 17.09375 C 16.300781 17.644531 15.523438 18.0625 14.652344 18.035156 C 13.855469 18.007812 13.105469 17.671875 12.464844 17.1875 C 12.53125 17.78125 12.585938 18.375 12.644531 18.96875 C 12.726562 19.746094 12.808594 20.53125 12.171875 21.089844 C 11.890625 21.335938 11.550781 21.5 11.214844 21.652344 C 10.804688 21.84375 10.394531 22.023438 9.980469 22.195312 C 9.488281 22.402344 8.996094 22.601562 8.496094 22.785156 C 8.597656 22.984375 8.65625 23.210938 8.699219 23.441406 C 8.785156 23.925781 8.828125 24.617188 9.355469 24.824219 C 9.769531 24.984375 10.257812 24.714844 10.648438 24.585938 C 11.019531 24.460938 11.433594 24.375 11.804688 24.554688 C 12.632812 24.953125 12.6875 26.390625 13.839844 26.097656 C 14.230469 25.996094 14.652344 25.71875 15.078125 25.507812 C 15.132812 24.664062 15.84375 24.085938 16.609375 23.757812 Z M 21.59375 14.5 C 21.757812 13.574219 21.402344 12.820312 20.863281 12.101562 C 20.265625 11.304688 19.449219 10.53125 19.367188 9.46875 C 19.363281 9.40625 19.246094 9.417969 19.25 9.480469 C 19.320312 11.347656 21.625 12.304688 21.398438 14.246094 C 21.273438 15.292969 20.609375 16.304688 21.105469 17.351562 C 21.320312 17.804688 21.6875 18.160156 22 18.542969 C 22.359375 18.988281 22.601562 19.472656 22.675781 20.050781 C 22.859375 21.511719 22.136719 22.894531 22.191406 24.351562 C 22.195312 24.433594 22.265625 24.46875 22.339844 24.46875 C 22.058594 24.738281 21.757812 25 21.4375 25.242188 C 20.015625 26.320312 18.28125 27.027344 16.4375 27.304688 C 15.929688 26.929688 15.511719 26.464844 15.410156 25.796875 C 15.402344 25.75 15.398438 25.703125 15.398438 25.660156 C 15.390625 25.558594 15.394531 25.457031 15.410156 25.363281 C 15.53125 24.523438 16.441406 24.074219 17.195312 23.808594 C 17.957031 23.539062 18.847656 23.257812 19.292969 22.511719 C 19.566406 22.058594 19.59375 21.578125 19.511719 21.09375 C 19.496094 20.992188 19.472656 20.890625 19.445312 20.789062 C 19.335938 20.359375 19.160156 19.929688 19.015625 19.53125 C 18.804688 18.9375 18.710938 18.355469 18.796875 17.726562 C 18.882812 17.09375 19.089844 16.492188 19.238281 15.875 C 19.394531 15.222656 19.484375 14.484375 19.296875 13.832031 C 19.257812 13.695312 19.210938 13.566406 19.148438 13.441406 C 19.078125 13.304688 18.996094 13.175781 18.894531 13.054688 C 18.597656 12.691406 18.195312 12.585938 17.816406 12.335938 C 17.304688 12.003906 17.378906 11.371094 17.546875 10.859375 C 17.707031 10.378906 17.882812 9.921875 17.851562 9.402344 C 17.824219 8.992188 17.703125 8.59375 17.503906 8.238281 C 16.957031 7.273438 15.949219 6.957031 14.917969 6.910156 C 14.117188 6.875 13.195312 6.984375 12.398438 6.753906 C 12.355469 6.484375 12.269531 6.226562 12.132812 5.992188 C 11.988281 5.742188 11.785156 5.554688 11.578125 5.363281 C 11.296875 5.105469 10.996094 4.75 11.214844 4.34375 C 11.230469 4.3125 11.179688 4.296875 11.160156 4.324219 C 10.855469 4.761719 11.1875 5.253906 11.488281 5.585938 C 11.773438 5.90625 11.976562 6.246094 12.074219 6.636719 C 12.089844 6.695312 12.101562 6.757812 12.109375 6.816406 C 12.128906 6.921875 12.136719 7.027344 12.140625 7.136719 C 12.164062 8.375 11.367188 9.375 10.582031 10.226562 C 10.316406 10.515625 10.046875 10.804688 9.792969 11.097656 C 9.714844 11.1875 9.640625 11.28125 9.566406 11.371094 C 9.199219 11.824219 8.878906 12.308594 8.652344 12.863281 C 8.632812 12.917969 8.609375 12.972656 8.589844 13.027344 C 8.558594 13.113281 8.53125 13.195312 8.503906 13.28125 C 8.199219 14.285156 8.175781 15.378906 8.429688 16.398438 C 8.726562 17.597656 9.394531 18.78125 10.332031 19.574219 C 10.429688 19.660156 10.636719 19.539062 10.53125 19.421875 C 9.761719 18.582031 9.117188 17.675781 8.789062 16.5625 C 8.511719 15.625 8.476562 14.613281 8.703125 13.65625 C 8.894531 13.960938 9.148438 14.210938 9.453125 14.339844 C 9.742188 14.464844 10.085938 14.464844 10.367188 14.339844 C 10.699219 15.132812 11.140625 15.875 11.71875 16.503906 C 11.871094 16.671875 12.035156 16.828125 12.207031 16.980469 C 12.242188 17.5625 12.292969 18.148438 12.339844 18.730469 C 12.398438 19.53125 12.59375 20.433594 11.878906 20.988281 C 11.585938 21.214844 11.230469 21.363281 10.898438 21.515625 C 10.515625 21.691406 10.132812 21.855469 9.746094 22.015625 C 9.285156 22.207031 8.8125 22.382812 8.34375 22.554688 C 8.253906 22.449219 8.144531 22.359375 8.011719 22.292969 C 7.207031 21.878906 6.40625 22.34375 5.617188 22.671875 C 5.507812 22.492188 5.40625 22.308594 5.316406 22.125 C 4.824219 20.75 4.894531 19.195312 5.5 17.960938 C 5.570312 17.816406 5.652344 17.667969 5.730469 17.519531 C 6.09375 16.847656 6.46875 16.148438 6.261719 15.410156 C 6.203125 15.203125 6.105469 15.015625 6.007812 14.835938 C 5.917969 14.664062 5.832031 14.507812 5.78125 14.335938 C 5.777344 14.320312 5.773438 14.308594 5.769531 14.292969 C 5.636719 13.78125 5.808594 13.175781 6.292969 12.4375 C 6.355469 12.34375 6.417969 12.25 6.484375 12.15625 C 6.828125 11.648438 7.1875 11.125 7.277344 10.5 C 7.363281 9.921875 7.203125 9.359375 7.046875 8.816406 C 6.941406 8.4375 6.828125 8.046875 6.804688 7.660156 C 6.742188 6.664062 7.273438 5.609375 8.195312 4.910156 C 8.851562 4.410156 9.6875 4.074219 10.75 3.875 C 10.753906 3.875 10.753906 3.875 10.753906 3.875 C 10.769531 3.875 10.78125 3.867188 10.792969 3.859375 C 10.800781 3.855469 10.804688 3.851562 10.808594 3.847656 C 10.8125 3.84375 10.816406 3.839844 10.820312 3.835938 C 10.824219 3.835938 10.828125 3.828125 10.832031 3.824219 C 10.832031 3.820312 10.835938 3.816406 10.839844 3.8125 C 11.902344 2.320312 14.019531 1.621094 15.878906 2.152344 C 17.777344 2.695312 19.394531 4.382812 20.101562 6.558594 C 20.140625 6.6875 20.183594 6.824219 20.222656 6.957031 C 20.386719 7.503906 20.554688 8.066406 20.917969 8.519531 C 21.164062 8.824219 21.476562 9.050781 21.777344 9.273438 C 21.941406 9.394531 22.113281 9.519531 22.269531 9.652344 C 23.070312 10.347656 23.535156 11.398438 23.519531 12.472656 C 23.511719 12.917969 23.425781 13.347656 23.316406 13.867188 L 23.308594 13.925781 C 23.15625 14.652344 22.996094 15.40625 23.167969 16.152344 C 23.300781 16.722656 23.613281 17.222656 23.917969 17.703125 C 24.074219 17.949219 24.234375 18.207031 24.367188 18.464844 C 24.585938 18.898438 24.734375 19.371094 24.804688 19.871094 C 24.539062 21.515625 23.726562 23.058594 22.488281 24.320312 C 22.472656 23.035156 22.988281 21.820312 22.984375 20.539062 C 22.984375 19.996094 22.894531 19.453125 22.632812 18.976562 C 22.390625 18.53125 22.023438 18.179688 21.710938 17.789062 C 21.351562 17.339844 21.132812 16.851562 21.1875 16.257812 C 21.246094 15.65625 21.488281 15.09375 21.59375 14.5 " fill-opacity="1" fill-rule="nonzero"/></g></svg>