<svg xmlns="http://www.w3.org/2000/svg" xmlns:xlink="http://www.w3.org/1999/xlink" width="40" zoomAndPan="magnify" viewBox="0 0 30 30.000001" height="40" preserveAspectRatio="xMidYMid meet" version="1.0"><defs><clipPath id="id1"><path d="M 0.484375 0 L 29.515625 0 L 29.515625 29.03125 L 0.484375 29.03125 Z M 0.484375 0 " clip-rule="nonzero"/></clipPath><clipPath id="id2"><path d="M 6.042969 1.359375 L 24.1875 1.359375 L 24.1875 27.488281 L 6.042969 27.488281 Z M 6.042969 1.359375 " clip-rule="nonzero"/></clipPath><clipPath id="id3"><path d="M 7 1.359375 L 23 1.359375 L 23 26 L 7 26 Z M 7 1.359375 " clip-rule="nonzero"/></clipPath></defs><g clip-path="url(#id1)"><path fill="#ffffff" d="M 0.484375 0 L 29.515625 0 L 29.515625 36.289062 L 0.484375 36.289062 Z M 0.484375 0 " fill-opacity="1" fill-rule="nonzero"/><path fill="#ffffff" d="M 0.484375 0 L 29.515625 0 L 29.515625 29.03125 L 0.484375 29.03125 Z M 0.484375 0 " fill-opacity="1" fill-rule="nonzero"/><path fill="#ffffff" d="M 0.484375 0 L 29.515625 0 L 29.515625 29.03125 L 0.484375 29.03125 Z M 0.484375 0 " fill-opacity="1" fill-rule="nonzero"/></g><g clip-path="url(#id2)"><path fill="#0f0e0c" d="M 24.179688 23.25 C 24.179688 23.25 24.179688 23.246094 24.179688 23.246094 C 24.179688 23.238281 24.175781 23.234375 24.175781 23.230469 C 24.175781 23.226562 24.171875 23.222656 24.171875 23.222656 C 24.171875 23.21875 24.167969 23.214844 24.167969 23.214844 C 24.164062 23.207031 24.160156 23.203125 24.15625 23.199219 C 23.800781 22.734375 23.292969 22.316406 22.738281 22.019531 C 22.035156 21.644531 21.265625 21.410156 20.523438 21.183594 C 20.222656 21.089844 19.914062 20.996094 19.609375 20.890625 C 19.558594 20.875 19.503906 20.855469 19.453125 20.839844 C 19.339844 20.796875 19.226562 20.753906 19.113281 20.710938 C 18.78125 20.582031 18.441406 20.421875 18.234375 20.148438 C 17.914062 19.726562 17.960938 19.121094 18.035156 18.539062 C 18.105469 18.03125 18.171875 17.523438 18.238281 17.015625 C 18.335938 17.007812 18.433594 16.984375 18.527344 16.953125 C 18.914062 16.8125 19.210938 16.515625 19.425781 16.273438 C 19.792969 15.863281 20.105469 15.402344 20.351562 14.90625 C 20.65625 14.300781 20.859375 13.65625 20.960938 12.992188 C 21.09375 12.933594 21.222656 12.867188 21.335938 12.785156 C 21.957031 12.347656 22.359375 11.554688 22.410156 10.667969 C 22.425781 10.351562 22.40625 9.570312 21.816406 9.226562 C 21.699219 9.15625 21.570312 9.109375 21.429688 9.09375 C 21.429688 9.082031 21.433594 9.066406 21.433594 9.054688 C 21.492188 8.4375 21.382812 7.824219 21.265625 7.304688 C 21.164062 6.859375 21.039062 6.390625 20.789062 5.976562 C 20.511719 5.507812 20.109375 5.183594 19.660156 5.0625 C 19.332031 4.972656 18.964844 5.011719 18.671875 5.160156 C 18.613281 4.117188 18.066406 3.082031 17.210938 2.410156 C 16.285156 1.683594 15.007812 1.363281 13.78125 1.546875 C 12.625 1.722656 11.503906 2.351562 10.699219 3.269531 C 10.433594 3.570312 10.199219 3.90625 9.972656 4.230469 C 9.53125 4.859375 9.113281 5.457031 8.488281 5.84375 C 8.394531 5.902344 8.292969 5.960938 8.183594 6.019531 C 7.800781 6.230469 7.402344 6.449219 7.242188 6.871094 C 7.09375 7.253906 7.203125 7.734375 7.542969 8.1875 C 7.765625 8.488281 8.0625 8.75 8.398438 8.949219 C 8.46875 9.179688 8.527344 9.425781 8.585938 9.699219 C 8.507812 9.800781 8.4375 9.917969 8.375 10.058594 C 8.019531 10.84375 8.117188 11.78125 8.617188 12.394531 C 8.734375 12.539062 8.878906 12.667969 9.042969 12.773438 C 9.207031 13.667969 9.433594 14.367188 9.75 14.964844 C 9.753906 14.96875 9.753906 14.972656 9.757812 14.972656 C 9.867188 15.183594 9.996094 15.382812 10.132812 15.566406 C 10.597656 16.199219 11.265625 16.6875 11.976562 16.914062 L 12.191406 18.539062 C 12.265625 19.121094 12.316406 19.726562 11.992188 20.148438 C 11.785156 20.421875 11.449219 20.582031 11.113281 20.710938 C 11.003906 20.753906 10.890625 20.796875 10.777344 20.835938 C 10.722656 20.855469 10.667969 20.875 10.613281 20.894531 C 10.3125 20.996094 10.003906 21.089844 9.703125 21.183594 C 8.960938 21.410156 8.191406 21.644531 7.492188 22.019531 C 6.933594 22.316406 6.429688 22.734375 6.070312 23.199219 C 6.066406 23.203125 6.0625 23.207031 6.0625 23.210938 C 6.058594 23.214844 6.058594 23.21875 6.054688 23.222656 C 6.054688 23.222656 6.054688 23.226562 6.050781 23.230469 C 6.050781 23.234375 6.046875 23.238281 6.046875 23.246094 C 6.042969 23.253906 6.042969 23.261719 6.042969 23.269531 C 6.042969 23.273438 6.042969 23.277344 6.042969 23.28125 C 6.042969 23.285156 6.042969 23.289062 6.042969 23.292969 C 6.046875 23.300781 6.046875 23.304688 6.046875 23.308594 C 6.050781 23.3125 6.050781 23.316406 6.050781 23.316406 C 6.050781 23.324219 6.054688 23.328125 6.058594 23.332031 C 6.058594 23.335938 6.058594 23.339844 6.0625 23.339844 C 6.0625 23.34375 6.0625 23.34375 6.0625 23.34375 C 7.625 25.863281 11.179688 27.492188 15.113281 27.492188 C 19.046875 27.492188 22.601562 25.863281 24.164062 23.34375 C 24.164062 23.34375 24.164062 23.34375 24.167969 23.339844 C 24.167969 23.339844 24.167969 23.335938 24.167969 23.332031 C 24.171875 23.328125 24.175781 23.324219 24.175781 23.316406 C 24.179688 23.316406 24.179688 23.3125 24.179688 23.3125 C 24.179688 23.304688 24.183594 23.300781 24.183594 23.292969 C 24.183594 23.289062 24.183594 23.285156 24.183594 23.28125 C 24.183594 23.277344 24.183594 23.273438 24.183594 23.269531 C 24.183594 23.261719 24.183594 23.257812 24.179688 23.25 " fill-opacity="1" fill-rule="nonzero"/><path fill="#0f0e0c" d="M 9.601562 11.929688 C 9.527344 11.835938 9.460938 11.695312 9.484375 11.570312 C 9.515625 11.390625 9.703125 11.203125 9.894531 11.34375 C 9.992188 11.414062 10.175781 11.34375 10.117188 11.210938 C 9.964844 10.847656 9.976562 10.320312 9.570312 10.105469 C 9.335938 9.980469 9.019531 10.039062 8.894531 10.28125 C 8.847656 10.371094 9.007812 10.398438 9.050781 10.328125 C 9.292969 9.9375 9.644531 10.429688 9.710938 10.660156 C 9.75 10.796875 9.773438 10.9375 9.804688 11.078125 C 9.53125 11.0625 9.25 11.246094 9.207031 11.539062 C 9.128906 12.046875 9.679688 12.464844 10.15625 12.453125 C 10.238281 12.453125 10.34375 12.347656 10.238281 12.289062 C 10.015625 12.171875 9.765625 12.140625 9.601562 11.929688 Z M 11.878906 9.269531 C 11.878906 9.667969 12.292969 9.480469 12.800781 9.480469 C 13.3125 9.480469 13.726562 9.667969 13.726562 9.269531 C 13.726562 8.875 13.3125 8.554688 12.800781 8.554688 C 12.292969 8.554688 11.878906 8.875 11.878906 9.269531 Z M 16.984375 14.398438 C 16.917969 14.371094 16.859375 14.332031 16.804688 14.28125 C 16.796875 14.277344 16.792969 14.269531 16.785156 14.265625 C 16.746094 14.222656 16.710938 14.175781 16.6875 14.125 L 16.679688 14.109375 C 16.648438 14.046875 16.636719 13.980469 16.59375 13.925781 C 16.570312 13.898438 16.503906 13.898438 16.480469 13.929688 C 16.390625 14.042969 16.429688 14.210938 16.503906 14.339844 C 16.242188 14.714844 15.894531 15.03125 15.429688 15.136719 C 14.851562 15.269531 14.238281 15.070312 13.8125 14.675781 C 13.773438 14.636719 13.671875 14.671875 13.71875 14.730469 C 14.121094 15.253906 14.796875 15.515625 15.457031 15.390625 C 15.953125 15.292969 16.441406 14.984375 16.675781 14.542969 C 16.808594 14.648438 16.988281 14.71875 17.140625 14.640625 C 17.195312 14.613281 17.242188 14.546875 17.183594 14.496094 C 17.128906 14.441406 17.054688 14.429688 16.984375 14.398438 Z M 16.503906 9.269531 C 16.503906 9.667969 16.914062 9.480469 17.425781 9.480469 C 17.933594 9.480469 18.347656 9.667969 18.347656 9.269531 C 18.347656 8.875 17.933594 8.554688 17.425781 8.554688 C 16.914062 8.554688 16.503906 8.875 16.503906 9.269531 Z M 20.769531 10.367188 C 20.488281 10.671875 20.328125 11.0625 20.28125 11.464844 C 20.265625 11.585938 20.4375 11.59375 20.507812 11.542969 C 20.609375 11.472656 20.890625 11.25 20.945312 11.582031 C 20.957031 11.65625 20.898438 11.777344 20.863281 11.84375 C 20.765625 12.039062 20.597656 12.171875 20.441406 12.320312 C 20.371094 12.390625 20.484375 12.441406 20.542969 12.425781 C 20.90625 12.324219 21.261719 11.886719 21.222656 11.507812 C 21.1875 11.140625 20.867188 11.144531 20.597656 11.246094 C 20.707031 10.785156 21.011719 10.152344 21.515625 10.222656 C 21.582031 10.230469 21.648438 10.152344 21.582031 10.105469 C 21.292969 9.917969 20.960938 10.152344 20.769531 10.367188 Z M 20.445312 21.429688 C 20.34375 21.402344 20.246094 21.371094 20.144531 21.339844 C 19.769531 21.703125 19.355469 22.03125 18.960938 22.371094 C 18.523438 22.746094 18.082031 23.117188 17.644531 23.488281 C 17.191406 23.871094 16.738281 24.253906 16.28125 24.632812 C 16.066406 24.8125 15.851562 24.992188 15.636719 25.171875 C 15.542969 25.25 15.449219 25.339844 15.351562 25.421875 C 15.273438 25.492188 15.1875 25.558594 15.097656 25.617188 C 15.019531 25.570312 14.945312 25.511719 14.871094 25.449219 C 14.757812 25.351562 14.648438 25.242188 14.539062 25.152344 C 14.324219 24.972656 14.109375 24.792969 13.894531 24.613281 C 13.453125 24.242188 13.011719 23.871094 12.570312 23.496094 C 12.117188 23.109375 11.660156 22.726562 11.210938 22.335938 C 10.832031 22.011719 10.433594 21.691406 10.078125 21.339844 C 9.980469 21.371094 9.878906 21.402344 9.785156 21.429688 C 9.050781 21.652344 8.296875 21.886719 7.617188 22.246094 C 7.121094 22.511719 6.671875 22.878906 6.339844 23.285156 C 7.878906 25.683594 11.308594 27.230469 15.113281 27.230469 C 18.917969 27.230469 22.347656 25.683594 23.890625 23.285156 C 23.558594 22.878906 23.105469 22.511719 22.609375 22.246094 C 21.933594 21.886719 21.175781 21.652344 20.445312 21.429688 Z M 8.898438 9.414062 C 8.996094 9.355469 9.109375 9.3125 9.230469 9.289062 C 9.054688 9.246094 8.886719 9.1875 8.722656 9.113281 C 8.753906 9.230469 8.78125 9.351562 8.808594 9.476562 C 8.835938 9.453125 8.867188 9.433594 8.898438 9.414062 Z M 10.15625 9.472656 C 10.152344 9.445312 10.152344 9.410156 10.148438 9.378906 C 10.097656 9.382812 10.042969 9.386719 9.988281 9.386719 C 10.042969 9.410156 10.101562 9.441406 10.15625 9.472656 Z M 10.519531 12.761719 C 10.386719 11.917969 10.28125 11.0625 10.210938 10.210938 C 10.199219 10.078125 10.1875 9.945312 10.179688 9.8125 C 10.171875 9.804688 10.164062 9.796875 10.15625 9.792969 C 10.054688 9.714844 9.949219 9.652344 9.84375 9.609375 C 9.566406 9.496094 9.257812 9.503906 9.035156 9.636719 C 8.960938 9.679688 8.890625 9.742188 8.832031 9.8125 C 8.832031 9.816406 8.832031 9.816406 8.828125 9.816406 C 8.75 9.90625 8.679688 10.023438 8.617188 10.164062 C 8.300781 10.863281 8.386719 11.691406 8.824219 12.230469 C 8.9375 12.367188 9.074219 12.484375 9.234375 12.582031 C 9.632812 12.820312 10.117188 12.886719 10.519531 12.761719 Z M 11.800781 16.570312 C 11.246094 15.917969 10.996094 15.09375 10.851562 14.507812 C 10.800781 14.296875 10.75 14.066406 10.699219 13.785156 C 10.652344 13.53125 10.605469 13.277344 10.5625 13.019531 C 10.414062 13.0625 10.257812 13.082031 10.097656 13.082031 C 9.84375 13.082031 9.585938 13.03125 9.34375 12.929688 C 9.5 13.699219 9.703125 14.308594 9.980469 14.835938 C 9.984375 14.839844 9.984375 14.84375 9.988281 14.84375 C 10.09375 15.046875 10.214844 15.238281 10.34375 15.414062 C 10.722656 15.925781 11.242188 16.335938 11.800781 16.570312 Z M 13.972656 11.761719 L 13.972656 11.109375 C 13.972656 10.941406 13.832031 10.804688 13.660156 10.804688 L 13.109375 10.804688 L 13.109375 11.832031 C 13.109375 12.015625 12.953125 12.164062 12.765625 12.164062 C 12.578125 12.164062 12.425781 12.015625 12.425781 11.832031 L 12.425781 10.804688 L 11.734375 10.804688 C 11.695312 10.804688 11.65625 10.8125 11.621094 10.824219 C 11.527344 10.863281 11.453125 10.945312 11.433594 11.046875 C 11.425781 11.066406 11.425781 11.085938 11.425781 11.109375 L 11.425781 11.625 C 11.425781 12.117188 11.835938 12.519531 12.335938 12.519531 L 13.203125 12.519531 C 13.628906 12.519531 13.972656 12.179688 13.972656 11.761719 Z M 16.238281 5.152344 C 16.386719 5.054688 16.558594 5.089844 16.695312 5.144531 C 16.386719 4.867188 16.050781 4.609375 15.671875 4.4375 C 15 4.136719 14.265625 4.171875 13.796875 4.535156 C 13.480469 4.777344 13.261719 5.175781 13.132812 5.746094 C 13.226562 5.765625 13.335938 5.757812 13.410156 5.695312 C 13.449219 5.660156 13.484375 5.605469 13.519531 5.546875 C 13.585938 5.449219 13.65625 5.332031 13.796875 5.277344 C 14.023438 5.191406 14.234375 5.335938 14.40625 5.449219 C 14.566406 5.558594 14.667969 5.625 14.746094 5.578125 C 14.804688 5.542969 14.832031 5.449219 14.859375 5.347656 C 14.894531 5.210938 14.941406 5.039062 15.105469 4.957031 C 15.386719 4.820312 15.660156 5.085938 15.753906 5.171875 C 15.863281 5.277344 16.007812 5.363281 16.078125 5.3125 C 16.09375 5.300781 16.113281 5.28125 16.132812 5.257812 C 16.160156 5.222656 16.191406 5.1875 16.238281 5.152344 Z M 17.679688 5.570312 C 17.824219 5.296875 18.089844 5.085938 18.394531 5.011719 C 18.292969 4.097656 17.796875 3.207031 17.042969 2.613281 C 16.179688 1.933594 14.972656 1.628906 13.824219 1.804688 C 12.730469 1.972656 11.664062 2.566406 10.898438 3.4375 C 10.644531 3.730469 10.414062 4.058594 10.191406 4.378906 C 9.753906 5.003906 9.300781 5.648438 8.632812 6.0625 C 8.53125 6.128906 8.421875 6.1875 8.3125 6.246094 C 7.957031 6.445312 7.617188 6.628906 7.492188 6.960938 C 7.328125 7.390625 7.621094 7.855469 7.757812 8.035156 C 7.96875 8.320312 8.253906 8.566406 8.578125 8.75 C 9.09375 9.042969 9.691406 9.171875 10.261719 9.109375 C 10.261719 9.109375 10.265625 9.109375 10.269531 9.109375 C 10.296875 9.109375 10.324219 9.105469 10.351562 9.101562 C 11.324219 8.960938 12.199219 8.257812 12.53125 7.351562 C 12.648438 7.023438 12.703125 6.683594 12.757812 6.328125 C 12.785156 6.15625 12.8125 5.980469 12.847656 5.808594 C 12.847656 5.808594 12.847656 5.800781 12.847656 5.800781 C 12.988281 5.109375 13.246094 4.628906 13.632812 4.328125 C 14.175781 3.910156 15.019531 3.859375 15.78125 4.203125 C 16.371094 4.46875 16.859375 4.917969 17.289062 5.34375 C 17.269531 5.222656 17.257812 5.105469 17.230469 5 C 17.148438 4.699219 17.035156 4.402344 16.890625 4.125 C 16.59375 3.570312 16.195312 3.082031 15.699219 2.6875 C 15.625 2.628906 15.757812 2.550781 15.820312 2.589844 C 16.382812 2.957031 16.855469 3.445312 17.179688 4.03125 C 17.335938 4.308594 17.460938 4.609375 17.550781 4.914062 C 17.609375 5.109375 17.679688 5.347656 17.679688 5.570312 Z M 18.800781 11.761719 L 18.800781 11.109375 C 18.800781 11.085938 18.800781 11.066406 18.796875 11.046875 C 18.773438 10.945312 18.699219 10.863281 18.605469 10.824219 C 18.570312 10.8125 18.53125 10.804688 18.492188 10.804688 L 17.800781 10.804688 L 17.800781 11.832031 C 17.800781 12.015625 17.648438 12.164062 17.460938 12.164062 C 17.273438 12.164062 17.121094 12.015625 17.121094 11.832031 L 17.121094 10.804688 L 16.566406 10.804688 C 16.394531 10.804688 16.253906 10.941406 16.253906 11.109375 L 16.253906 11.625 C 16.253906 11.648438 16.253906 11.671875 16.257812 11.695312 C 16.292969 12.15625 16.6875 12.519531 17.167969 12.519531 L 18.03125 12.519531 C 18.457031 12.519531 18.800781 12.179688 18.800781 11.761719 Z M 18.871094 10.617188 C 18.976562 10.546875 19.082031 10.472656 19.183594 10.402344 C 19.046875 10.308594 18.933594 10.183594 18.863281 10.03125 C 18.730469 9.726562 18.78125 9.40625 18.835938 9.09375 C 18.84375 9.03125 18.855469 8.96875 18.863281 8.90625 C 19.007812 7.867188 18.574219 6.761719 17.753906 6.089844 C 17.746094 6.085938 17.742188 6.078125 17.734375 6.074219 C 17.699219 6.042969 17.660156 6.011719 17.621094 5.984375 C 17.574219 5.945312 17.523438 5.910156 17.472656 5.875 C 17.457031 5.867188 17.445312 5.859375 17.433594 5.847656 C 17.1875 5.679688 16.925781 5.53125 16.652344 5.410156 C 16.523438 5.351562 16.4375 5.335938 16.390625 5.367188 C 16.375 5.378906 16.355469 5.398438 16.339844 5.421875 C 16.308594 5.457031 16.277344 5.496094 16.234375 5.527344 C 16.050781 5.652344 15.808594 5.589844 15.566406 5.359375 C 15.414062 5.210938 15.300781 5.152344 15.226562 5.191406 C 15.171875 5.21875 15.148438 5.292969 15.113281 5.417969 C 15.078125 5.546875 15.03125 5.714844 14.882812 5.800781 C 14.652344 5.9375 14.429688 5.785156 14.253906 5.664062 C 14.09375 5.554688 13.984375 5.484375 13.894531 5.519531 C 13.835938 5.542969 13.792969 5.609375 13.746094 5.6875 C 13.703125 5.753906 13.652344 5.832031 13.582031 5.890625 C 13.457031 6 13.269531 6.039062 13.082031 6 C 13.058594 6.121094 13.039062 6.246094 13.019531 6.367188 C 12.964844 6.722656 12.910156 7.089844 12.78125 7.4375 C 12.421875 8.425781 11.472656 9.195312 10.414062 9.351562 C 10.421875 9.488281 10.429688 9.617188 10.4375 9.730469 C 10.4375 9.734375 10.4375 9.734375 10.4375 9.738281 C 10.441406 9.742188 10.441406 9.742188 10.441406 9.746094 C 10.445312 9.832031 10.453125 9.917969 10.457031 10 C 10.757812 10.207031 11.058594 10.410156 11.355469 10.617188 C 11.460938 10.539062 11.59375 10.492188 11.734375 10.492188 L 12.46875 10.492188 C 12.527344 10.386719 12.636719 10.316406 12.765625 10.316406 C 12.894531 10.316406 13.007812 10.386719 13.066406 10.492188 L 13.660156 10.492188 C 13.949219 10.492188 14.191406 10.683594 14.265625 10.941406 C 14.449219 10.832031 14.652344 10.757812 14.863281 10.730469 C 14.867188 10.714844 14.875 10.703125 14.878906 10.691406 C 14.898438 10.640625 15.019531 10.65625 15 10.71875 C 15.023438 10.714844 15.050781 10.714844 15.074219 10.714844 C 15.390625 10.71875 15.695312 10.824219 15.945312 11.003906 C 15.996094 10.714844 16.257812 10.492188 16.566406 10.492188 L 17.160156 10.492188 C 17.21875 10.386719 17.332031 10.316406 17.460938 10.316406 C 17.554688 10.316406 17.640625 10.355469 17.699219 10.414062 C 17.722656 10.4375 17.742188 10.464844 17.757812 10.492188 L 18.492188 10.492188 C 18.632812 10.492188 18.765625 10.539062 18.871094 10.617188 Z M 19.214844 21.03125 C 19.148438 21.003906 19.082031 20.980469 19.015625 20.953125 C 18.644531 20.808594 18.269531 20.628906 18.023438 20.304688 C 17.640625 19.804688 17.691406 19.140625 17.773438 18.507812 C 17.839844 18.007812 17.90625 17.507812 17.972656 17.007812 C 17.488281 17.390625 16.867188 17.652344 16.117188 17.796875 C 15.820312 17.855469 15.496094 17.890625 15.125 17.917969 C 15.125 17.917969 15.125 17.917969 15.121094 17.917969 L 15.105469 17.917969 C 15.105469 17.917969 15.101562 17.917969 15.101562 17.917969 C 14.730469 17.890625 14.40625 17.855469 14.109375 17.796875 C 13.363281 17.65625 12.738281 17.390625 12.257812 17.007812 L 12.453125 18.507812 C 12.535156 19.140625 12.585938 19.804688 12.207031 20.304688 C 11.957031 20.628906 11.582031 20.808594 11.210938 20.953125 C 11.148438 20.976562 11.082031 21.003906 11.015625 21.027344 C 11.640625 21.523438 12.257812 22.027344 12.875 22.53125 C 13.625 23.140625 14.40625 23.730469 15.125 24.375 C 15.847656 23.734375 16.621094 23.140625 17.371094 22.527344 C 17.984375 22.027344 18.597656 21.523438 19.214844 21.03125 Z M 19.964844 21.28125 C 19.769531 21.222656 19.574219 21.15625 19.382812 21.089844 C 18.773438 21.625 18.152344 22.148438 17.535156 22.675781 C 16.789062 23.3125 16.054688 23.976562 15.28125 24.582031 C 15.25 24.605469 15.21875 24.628906 15.1875 24.652344 C 15.164062 24.675781 15.132812 24.6875 15.101562 24.691406 C 15.074219 24.6875 15.046875 24.679688 15.023438 24.660156 C 15 24.640625 14.976562 24.621094 14.953125 24.601562 C 14.164062 24 13.429688 23.316406 12.675781 22.675781 C 12.0625 22.148438 11.445312 21.625 10.839844 21.09375 C 10.648438 21.15625 10.460938 21.21875 10.269531 21.28125 C 11.140625 21.886719 11.941406 22.613281 12.757812 23.28125 C 13.21875 23.65625 13.679688 24.035156 14.136719 24.414062 C 14.367188 24.601562 14.597656 24.792969 14.828125 24.980469 C 14.921875 25.058594 15.027344 25.132812 15.125 25.210938 C 15.234375 25.125 15.351562 25.042969 15.449219 24.960938 C 15.667969 24.78125 15.882812 24.605469 16.101562 24.425781 C 16.546875 24.054688 16.992188 23.6875 17.441406 23.320312 C 18.273438 22.640625 19.085938 21.90625 19.964844 21.28125 Z M 19.71875 10.554688 C 19.710938 10.554688 19.707031 10.554688 19.699219 10.554688 C 19.644531 10.554688 19.589844 10.550781 19.535156 10.542969 C 19.378906 10.648438 19.222656 10.753906 19.066406 10.863281 C 19.101562 10.9375 19.121094 11.023438 19.121094 11.109375 L 19.121094 11.761719 C 19.121094 12.351562 18.632812 12.832031 18.03125 12.832031 L 17.167969 12.832031 C 16.488281 12.832031 15.9375 12.289062 15.9375 11.625 L 15.9375 11.40625 C 15.714844 11.175781 15.402344 11.03125 15.074219 11.027344 C 15.019531 11.027344 14.960938 11.03125 14.90625 11.039062 C 14.765625 11.570312 14.65625 12.117188 14.613281 12.664062 C 14.589844 12.976562 14.625 13.277344 14.90625 13.46875 C 15.125 13.621094 15.410156 13.664062 15.664062 13.734375 C 15.863281 13.789062 15.71875 13.980469 15.5625 13.96875 C 14.933594 13.914062 14.308594 13.609375 14.308594 12.914062 C 14.308594 12.300781 14.496094 11.664062 14.722656 11.078125 C 14.566406 11.125 14.417969 11.203125 14.292969 11.304688 L 14.292969 11.761719 C 14.292969 12.351562 13.800781 12.832031 13.203125 12.832031 L 12.335938 12.832031 C 11.660156 12.832031 11.105469 12.289062 11.105469 11.625 L 11.105469 11.109375 C 11.105469 11.023438 11.125 10.9375 11.160156 10.863281 C 10.9375 10.710938 10.714844 10.558594 10.492188 10.40625 C 10.566406 11.214844 10.667969 12.027344 10.800781 12.828125 C 10.800781 12.828125 10.800781 12.832031 10.800781 12.835938 C 10.847656 13.136719 10.902344 13.4375 10.960938 13.734375 C 11.011719 14.015625 11.058594 14.242188 11.109375 14.449219 C 11.351562 15.425781 11.6875 16.105469 12.175781 16.585938 C 12.175781 16.589844 12.179688 16.59375 12.183594 16.59375 C 12.210938 16.625 12.242188 16.65625 12.28125 16.6875 C 12.308594 16.714844 12.335938 16.738281 12.367188 16.761719 C 12.824219 17.140625 13.425781 17.402344 14.160156 17.542969 C 14.445312 17.597656 14.757812 17.632812 15.113281 17.65625 C 15.472656 17.632812 15.78125 17.597656 16.066406 17.542969 C 16.789062 17.402344 17.386719 17.148438 17.839844 16.78125 C 17.875 16.753906 17.910156 16.722656 17.949219 16.6875 C 17.988281 16.652344 18.023438 16.617188 18.050781 16.585938 C 18.539062 16.105469 18.878906 15.425781 19.117188 14.449219 C 19.167969 14.242188 19.214844 14.015625 19.269531 13.734375 C 19.320312 13.457031 19.371094 13.171875 19.417969 12.890625 C 19.417969 12.890625 19.417969 12.890625 19.417969 12.886719 C 19.542969 12.121094 19.644531 11.335938 19.71875 10.554688 Z M 20.113281 14.792969 C 20.386719 14.25 20.574219 13.675781 20.675781 13.085938 C 20.507812 13.128906 20.335938 13.152344 20.164062 13.152344 C 19.988281 13.152344 19.816406 13.128906 19.652344 13.082031 C 19.613281 13.316406 19.574219 13.550781 19.527344 13.785156 C 19.476562 14.066406 19.425781 14.296875 19.375 14.507812 C 19.21875 15.144531 18.9375 16.058594 18.273438 16.738281 L 18.273438 16.75 C 18.328125 16.742188 18.382812 16.726562 18.433594 16.707031 C 18.765625 16.589844 19.03125 16.324219 19.226562 16.101562 C 19.578125 15.707031 19.878906 15.269531 20.113281 14.792969 Z M 21.167969 9.027344 C 21.226562 8.449219 21.117188 7.859375 21.003906 7.359375 C 20.910156 6.9375 20.789062 6.492188 20.5625 6.109375 C 20.316406 5.699219 19.972656 5.417969 19.589844 5.3125 C 19.253906 5.222656 18.878906 5.292969 18.632812 5.496094 C 18.632812 5.496094 18.632812 5.496094 18.628906 5.496094 C 18.625 5.5 18.617188 5.507812 18.609375 5.507812 C 18.605469 5.511719 18.597656 5.515625 18.589844 5.519531 C 18.582031 5.523438 18.574219 5.523438 18.566406 5.523438 C 18.558594 5.527344 18.554688 5.527344 18.546875 5.527344 L 18.542969 5.527344 C 18.535156 5.527344 18.523438 5.523438 18.515625 5.523438 C 18.488281 5.515625 18.464844 5.503906 18.445312 5.480469 C 18.441406 5.480469 18.441406 5.480469 18.441406 5.476562 C 18.4375 5.472656 18.433594 5.46875 18.429688 5.460938 C 18.429688 5.460938 18.429688 5.460938 18.429688 5.457031 C 18.425781 5.453125 18.421875 5.449219 18.421875 5.441406 C 18.421875 5.4375 18.417969 5.4375 18.417969 5.433594 C 18.417969 5.429688 18.414062 5.421875 18.414062 5.417969 C 18.414062 5.410156 18.414062 5.402344 18.414062 5.398438 L 18.414062 5.394531 C 18.414062 5.355469 18.414062 5.316406 18.410156 5.277344 C 18.265625 5.320312 18.132812 5.40625 18.03125 5.519531 C 18.5 5.503906 18.976562 5.738281 19.3125 6.046875 C 19.808594 6.496094 20.074219 7.128906 20.277344 7.746094 C 20.3125 7.847656 20.09375 7.90625 20.054688 7.808594 C 19.835938 7.289062 19.605469 6.753906 19.207031 6.335938 C 18.851562 5.964844 18.390625 5.765625 17.882812 5.746094 C 17.871094 5.773438 17.863281 5.804688 17.851562 5.832031 C 17.976562 5.929688 18.097656 6.03125 18.210938 6.140625 C 18.230469 6.15625 18.242188 6.175781 18.246094 6.195312 C 18.925781 6.925781 19.265625 7.960938 19.128906 8.941406 C 19.117188 9.003906 19.105469 9.070312 19.097656 9.136719 C 19.046875 9.421875 19.003906 9.695312 19.109375 9.929688 C 19.167969 10.0625 19.285156 10.171875 19.425781 10.234375 C 19.585938 10.125 19.746094 10.015625 19.902344 9.910156 C 20.046875 9.703125 20.191406 9.546875 20.351562 9.417969 C 20.589844 9.230469 20.878906 9.109375 21.164062 9.085938 C 21.164062 9.070312 21.167969 9.050781 21.167969 9.027344 Z M 22.144531 10.652344 C 22.160156 10.382812 22.144531 9.722656 21.679688 9.449219 C 21.566406 9.378906 21.429688 9.34375 21.28125 9.34375 L 21.273438 9.34375 C 21.019531 9.34375 20.738281 9.445312 20.519531 9.621094 C 20.4375 9.6875 20.355469 9.765625 20.277344 9.855469 C 20.191406 9.957031 20.105469 10.070312 20.023438 10.207031 C 20.019531 10.210938 20.019531 10.210938 20.015625 10.214844 C 20.011719 10.28125 20.003906 10.351562 20 10.417969 L 20 10.421875 C 19.925781 11.226562 19.824219 12.03125 19.695312 12.824219 C 20.039062 12.925781 20.433594 12.910156 20.792969 12.777344 C 20.933594 12.726562 21.066406 12.65625 21.183594 12.574219 C 21.738281 12.179688 22.097656 11.464844 22.144531 10.652344 Z M 23.890625 23.285156 C 23.558594 22.878906 23.105469 22.511719 22.609375 22.246094 C 21.933594 21.886719 21.175781 21.652344 20.445312 21.429688 C 20.34375 21.402344 20.246094 21.371094 20.144531 21.339844 C 19.769531 21.703125 19.355469 22.03125 18.960938 22.371094 C 18.523438 22.746094 18.082031 23.117188 17.644531 23.488281 C 17.191406 23.871094 16.738281 24.253906 16.28125 24.632812 C 16.066406 24.8125 15.851562 24.992188 15.636719 25.171875 C 15.542969 25.25 15.449219 25.339844 15.351562 25.421875 C 15.273438 25.492188 15.1875 25.558594 15.097656 25.617188 C 15.019531 25.570312 14.945312 25.511719 14.871094 25.449219 C 14.757812 25.351562 14.648438 25.242188 14.539062 25.152344 C 14.324219 24.972656 14.109375 24.792969 13.894531 24.613281 C 13.453125 24.242188 13.011719 23.871094 12.570312 23.496094 C 12.117188 23.109375 11.660156 22.726562 11.210938 22.335938 C 10.832031 22.011719 10.433594 21.691406 10.078125 21.339844 C 9.980469 21.371094 9.878906 21.402344 9.785156 21.429688 C 9.050781 21.652344 8.296875 21.886719 7.617188 22.246094 C 7.121094 22.511719 6.671875 22.878906 6.339844 23.285156 C 7.878906 25.683594 11.308594 27.230469 15.113281 27.230469 C 18.917969 27.230469 22.347656 25.683594 23.890625 23.285156 Z M 24.179688 23.25 C 24.183594 23.257812 24.183594 23.261719 24.183594 23.269531 C 24.183594 23.273438 24.183594 23.277344 24.183594 23.28125 C 24.183594 23.285156 24.183594 23.289062 24.183594 23.292969 C 24.183594 23.300781 24.179688 23.304688 24.179688 23.3125 C 24.179688 23.3125 24.179688 23.316406 24.175781 23.316406 C 24.175781 23.324219 24.171875 23.328125 24.167969 23.332031 C 24.167969 23.335938 24.167969 23.339844 24.167969 23.339844 C 24.164062 23.34375 24.164062 23.34375 24.164062 23.34375 C 22.601562 25.863281 19.046875 27.492188 15.113281 27.492188 C 11.179688 27.492188 7.625 25.863281 6.0625 23.34375 C 6.0625 23.34375 6.0625 23.34375 6.0625 23.339844 C 6.058594 23.339844 6.058594 23.335938 6.058594 23.332031 C 6.054688 23.328125 6.050781 23.324219 6.050781 23.316406 C 6.050781 23.316406 6.050781 23.3125 6.046875 23.308594 C 6.046875 23.304688 6.046875 23.300781 6.042969 23.292969 C 6.042969 23.289062 6.042969 23.285156 6.042969 23.28125 C 6.042969 23.277344 6.042969 23.273438 6.042969 23.269531 C 6.042969 23.261719 6.042969 23.253906 6.046875 23.246094 C 6.046875 23.238281 6.050781 23.234375 6.050781 23.230469 C 6.054688 23.226562 6.054688 23.222656 6.054688 23.222656 C 6.058594 23.21875 6.058594 23.214844 6.0625 23.210938 C 6.0625 23.207031 6.066406 23.203125 6.070312 23.199219 C 6.429688 22.734375 6.933594 22.316406 7.492188 22.019531 C 8.191406 21.644531 8.960938 21.410156 9.703125 21.183594 C 10.003906 21.089844 10.3125 20.996094 10.613281 20.894531 C 10.667969 20.875 10.722656 20.855469 10.777344 20.835938 C 10.890625 20.796875 11.003906 20.753906 11.113281 20.710938 C 11.445312 20.582031 11.785156 20.421875 11.992188 20.148438 C 12.316406 19.726562 12.265625 19.121094 12.191406 18.539062 L 11.976562 16.914062 C 11.265625 16.6875 10.597656 16.199219 10.132812 15.566406 C 9.996094 15.382812 9.867188 15.183594 9.757812 14.972656 C 9.753906 14.972656 9.753906 14.96875 9.75 14.964844 C 9.433594 14.367188 9.207031 13.667969 9.042969 12.773438 C 8.878906 12.667969 8.734375 12.539062 8.617188 12.394531 C 8.117188 11.78125 8.019531 10.84375 8.375 10.058594 C 8.4375 9.917969 8.507812 9.800781 8.585938 9.699219 C 8.527344 9.425781 8.46875 9.179688 8.398438 8.949219 C 8.0625 8.75 7.765625 8.488281 7.542969 8.1875 C 7.203125 7.734375 7.09375 7.253906 7.242188 6.871094 C 7.402344 6.449219 7.800781 6.230469 8.183594 6.019531 C 8.292969 5.960938 8.394531 5.902344 8.488281 5.84375 C 9.113281 5.457031 9.53125 4.859375 9.972656 4.230469 C 10.199219 3.90625 10.433594 3.570312 10.699219 3.269531 C 11.503906 2.351562 12.625 1.722656 13.78125 1.546875 C 15.007812 1.363281 16.285156 1.683594 17.210938 2.410156 C 18.066406 3.082031 18.613281 4.117188 18.671875 5.160156 C 18.964844 5.011719 19.332031 4.972656 19.660156 5.0625 C 20.109375 5.183594 20.511719 5.507812 20.789062 5.976562 C 21.039062 6.390625 21.164062 6.859375 21.265625 7.304688 C 21.382812 7.824219 21.492188 8.4375 21.433594 9.054688 C 21.433594 9.066406 21.429688 9.082031 21.429688 9.09375 C 21.570312 9.109375 21.699219 9.15625 21.816406 9.226562 C 22.40625 9.570312 22.425781 10.351562 22.410156 10.667969 C 22.359375 11.554688 21.957031 12.347656 21.335938 12.785156 C 21.222656 12.867188 21.09375 12.933594 20.960938 12.992188 C 20.859375 13.65625 20.65625 14.300781 20.351562 14.90625 C 20.105469 15.402344 19.792969 15.863281 19.425781 16.273438 C 19.210938 16.515625 18.914062 16.8125 18.527344 16.953125 C 18.433594 16.984375 18.335938 17.007812 18.238281 17.015625 C 18.171875 17.523438 18.105469 18.03125 18.035156 18.539062 C 17.960938 19.121094 17.914062 19.726562 18.234375 20.148438 C 18.441406 20.421875 18.78125 20.582031 19.113281 20.710938 C 19.226562 20.753906 19.339844 20.796875 19.453125 20.839844 C 19.503906 20.855469 19.558594 20.875 19.609375 20.890625 C 19.914062 20.996094 20.222656 21.089844 20.523438 21.183594 C 21.265625 21.410156 22.035156 21.644531 22.738281 22.019531 C 23.292969 22.316406 23.800781 22.734375 24.15625 23.199219 C 24.160156 23.203125 24.164062 23.207031 24.167969 23.214844 C 24.167969 23.214844 24.171875 23.21875 24.171875 23.222656 C 24.171875 23.222656 24.175781 23.226562 24.175781 23.230469 C 24.175781 23.234375 24.179688 23.238281 24.179688 23.246094 C 24.179688 23.246094 24.179688 23.25 24.179688 23.25 " fill-opacity="1" fill-rule="nonzero"/></g><g clip-path="url(#id3)"><path fill="#ffffff" d="M 8.722656 9.113281 C 8.753906 9.230469 8.78125 9.351562 8.808594 9.476562 C 8.835938 9.453125 8.867188 9.433594 8.898438 9.414062 C 8.996094 9.355469 9.109375 9.3125 9.230469 9.289062 C 9.054688 9.246094 8.886719 9.1875 8.722656 9.113281 Z M 9.988281 9.386719 C 10.042969 9.410156 10.101562 9.441406 10.15625 9.472656 C 10.152344 9.445312 10.152344 9.410156 10.148438 9.378906 C 10.097656 9.382812 10.042969 9.386719 9.988281 9.386719 Z M 10.15625 12.453125 C 10.238281 12.453125 10.34375 12.347656 10.238281 12.289062 C 10.015625 12.171875 9.765625 12.140625 9.601562 11.929688 C 9.527344 11.835938 9.460938 11.695312 9.484375 11.570312 C 9.515625 11.390625 9.703125 11.203125 9.894531 11.34375 C 9.992188 11.414062 10.175781 11.34375 10.117188 11.210938 C 9.964844 10.847656 9.976562 10.320312 9.570312 10.105469 C 9.335938 9.980469 9.019531 10.039062 8.894531 10.28125 C 8.847656 10.371094 9.007812 10.398438 9.050781 10.328125 C 9.292969 9.9375 9.644531 10.429688 9.710938 10.660156 C 9.75 10.796875 9.773438 10.9375 9.804688 11.078125 C 9.53125 11.0625 9.25 11.246094 9.207031 11.539062 C 9.128906 12.046875 9.679688 12.464844 10.15625 12.453125 Z M 10.210938 10.210938 C 10.28125 11.0625 10.386719 11.917969 10.519531 12.761719 C 10.117188 12.886719 9.632812 12.820312 9.234375 12.582031 C 9.074219 12.484375 8.9375 12.367188 8.824219 12.230469 C 8.386719 11.691406 8.300781 10.863281 8.617188 10.164062 C 8.679688 10.023438 8.75 9.90625 8.828125 9.816406 C 8.832031 9.816406 8.832031 9.816406 8.832031 9.8125 C 8.890625 9.742188 8.960938 9.679688 9.035156 9.636719 C 9.257812 9.503906 9.566406 9.496094 9.84375 9.609375 C 9.949219 9.652344 10.054688 9.714844 10.15625 9.792969 C 10.164062 9.796875 10.171875 9.804688 10.179688 9.8125 C 10.1875 9.945312 10.199219 10.078125 10.210938 10.210938 Z M 10.699219 13.785156 C 10.652344 13.53125 10.605469 13.277344 10.5625 13.019531 C 10.414062 13.0625 10.257812 13.082031 10.097656 13.082031 C 9.84375 13.082031 9.585938 13.03125 9.34375 12.929688 C 9.5 13.699219 9.703125 14.308594 9.980469 14.835938 C 9.984375 14.839844 9.984375 14.84375 9.988281 14.84375 C 10.09375 15.046875 10.214844 15.238281 10.34375 15.414062 C 10.722656 15.925781 11.242188 16.335938 11.800781 16.570312 C 11.246094 15.917969 10.996094 15.09375 10.851562 14.507812 C 10.800781 14.296875 10.75 14.066406 10.699219 13.785156 Z M 13.972656 11.171875 L 13.972656 11.109375 C 13.972656 10.941406 13.832031 10.804688 13.660156 10.804688 L 13.109375 10.804688 L 13.109375 11.832031 C 13.109375 12.015625 12.953125 12.164062 12.765625 12.164062 C 12.578125 12.164062 12.425781 12.015625 12.425781 11.832031 L 12.425781 10.804688 L 11.734375 10.804688 C 11.695312 10.804688 11.65625 10.8125 11.621094 10.824219 C 11.527344 10.863281 11.453125 10.945312 11.433594 11.046875 C 11.425781 11.066406 11.425781 11.085938 11.425781 11.109375 L 11.425781 11.625 C 11.425781 12.117188 11.835938 12.519531 12.335938 12.519531 L 13.203125 12.519531 C 13.628906 12.519531 13.972656 12.179688 13.972656 11.761719 Z M 15.671875 4.4375 C 15 4.136719 14.265625 4.171875 13.796875 4.535156 C 13.480469 4.777344 13.261719 5.175781 13.132812 5.746094 C 13.226562 5.765625 13.335938 5.757812 13.410156 5.695312 C 13.449219 5.660156 13.484375 5.605469 13.519531 5.546875 C 13.585938 5.449219 13.65625 5.332031 13.796875 5.277344 C 14.023438 5.191406 14.234375 5.335938 14.40625 5.449219 C 14.566406 5.558594 14.667969 5.625 14.746094 5.578125 C 14.804688 5.542969 14.832031 5.449219 14.859375 5.347656 C 14.894531 5.210938 14.941406 5.039062 15.105469 4.957031 C 15.386719 4.820312 15.660156 5.085938 15.753906 5.171875 C 15.863281 5.277344 16.007812 5.363281 16.078125 5.3125 C 16.09375 5.300781 16.113281 5.28125 16.132812 5.257812 C 16.160156 5.222656 16.191406 5.1875 16.238281 5.152344 C 16.386719 5.054688 16.558594 5.089844 16.695312 5.144531 C 16.386719 4.867188 16.050781 4.609375 15.671875 4.4375 Z M 17.042969 2.613281 C 16.179688 1.933594 14.972656 1.628906 13.824219 1.804688 C 12.730469 1.972656 11.664062 2.566406 10.898438 3.4375 C 10.644531 3.730469 10.414062 4.058594 10.191406 4.378906 C 9.753906 5.003906 9.300781 5.648438 8.632812 6.0625 C 8.53125 6.128906 8.421875 6.1875 8.3125 6.246094 C 7.957031 6.445312 7.617188 6.628906 7.492188 6.960938 C 7.328125 7.390625 7.621094 7.855469 7.757812 8.035156 C 7.96875 8.320312 8.253906 8.566406 8.578125 8.75 C 9.09375 9.042969 9.691406 9.171875 10.261719 9.109375 C 10.261719 9.109375 10.265625 9.109375 10.269531 9.109375 C 10.296875 9.109375 10.324219 9.105469 10.351562 9.101562 C 11.324219 8.960938 12.199219 8.257812 12.53125 7.351562 C 12.648438 7.023438 12.703125 6.683594 12.757812 6.328125 C 12.785156 6.15625 12.8125 5.980469 12.847656 5.808594 C 12.847656 5.808594 12.847656 5.800781 12.847656 5.800781 C 12.988281 5.109375 13.246094 4.628906 13.632812 4.328125 C 14.175781 3.910156 15.019531 3.859375 15.78125 4.203125 C 16.371094 4.46875 16.859375 4.917969 17.289062 5.34375 C 17.269531 5.222656 17.257812 5.105469 17.230469 5 C 17.148438 4.699219 17.035156 4.402344 16.890625 4.125 C 16.59375 3.570312 16.195312 3.082031 15.699219 2.6875 C 15.625 2.628906 15.757812 2.550781 15.820312 2.589844 C 16.382812 2.957031 16.855469 3.445312 17.179688 4.03125 C 17.335938 4.308594 17.460938 4.609375 17.550781 4.914062 C 17.609375 5.109375 17.679688 5.347656 17.679688 5.570312 C 17.824219 5.296875 18.089844 5.085938 18.394531 5.011719 C 18.292969 4.097656 17.796875 3.207031 17.042969 2.613281 Z M 18.796875 11.046875 C 18.773438 10.945312 18.699219 10.863281 18.605469 10.824219 C 18.570312 10.8125 18.53125 10.804688 18.492188 10.804688 L 17.800781 10.804688 L 17.800781 11.832031 C 17.800781 12.015625 17.648438 12.164062 17.460938 12.164062 C 17.273438 12.164062 17.121094 12.015625 17.121094 11.832031 L 17.121094 10.804688 L 16.566406 10.804688 C 16.394531 10.804688 16.253906 10.941406 16.253906 11.109375 L 16.253906 11.625 C 16.253906 11.648438 16.253906 11.671875 16.257812 11.695312 C 16.292969 12.15625 16.6875 12.519531 17.167969 12.519531 L 18.03125 12.519531 C 18.457031 12.519531 18.800781 12.179688 18.800781 11.761719 L 18.800781 11.109375 C 18.800781 11.085938 18.800781 11.066406 18.796875 11.046875 Z M 13.726562 9.269531 C 13.726562 8.875 13.3125 8.554688 12.800781 8.554688 C 12.292969 8.554688 11.878906 8.875 11.878906 9.269531 C 11.878906 9.667969 12.292969 9.480469 12.800781 9.480469 C 13.3125 9.480469 13.726562 9.667969 13.726562 9.269531 Z M 18.347656 9.269531 C 18.347656 8.875 17.933594 8.554688 17.425781 8.554688 C 16.914062 8.554688 16.503906 8.875 16.503906 9.269531 C 16.503906 9.667969 16.914062 9.480469 17.425781 9.480469 C 17.933594 9.480469 18.347656 9.667969 18.347656 9.269531 Z M 19.183594 10.402344 C 19.082031 10.472656 18.976562 10.546875 18.871094 10.617188 C 18.765625 10.539062 18.632812 10.492188 18.492188 10.492188 L 17.757812 10.492188 C 17.742188 10.464844 17.722656 10.4375 17.699219 10.414062 C 17.640625 10.355469 17.554688 10.316406 17.460938 10.316406 C 17.332031 10.316406 17.21875 10.386719 17.160156 10.492188 L 16.566406 10.492188 C 16.253906 10.492188 15.996094 10.714844 15.945312 11.003906 C 15.695312 10.824219 15.390625 10.71875 15.074219 10.714844 C 15.050781 10.714844 15.023438 10.714844 15 10.71875 C 15.019531 10.65625 14.898438 10.640625 14.878906 10.691406 C 14.875 10.703125 14.867188 10.714844 14.863281 10.730469 C 14.652344 10.757812 14.449219 10.832031 14.265625 10.941406 C 14.191406 10.683594 13.949219 10.492188 13.660156 10.492188 L 13.066406 10.492188 C 13.007812 10.386719 12.894531 10.316406 12.765625 10.316406 C 12.636719 10.316406 12.527344 10.386719 12.46875 10.492188 L 11.734375 10.492188 C 11.59375 10.492188 11.460938 10.539062 11.355469 10.617188 C 11.058594 10.410156 10.757812 10.207031 10.457031 10 C 10.453125 9.917969 10.445312 9.832031 10.441406 9.746094 C 10.441406 9.742188 10.441406 9.742188 10.4375 9.738281 C 10.4375 9.734375 10.4375 9.734375 10.4375 9.730469 C 10.429688 9.617188 10.421875 9.488281 10.414062 9.351562 C 11.472656 9.195312 12.421875 8.425781 12.78125 7.4375 C 12.910156 7.089844 12.964844 6.722656 13.019531 6.367188 C 13.039062 6.246094 13.058594 6.121094 13.082031 6 C 13.269531 6.039062 13.457031 6 13.582031 5.890625 C 13.652344 5.832031 13.703125 5.753906 13.746094 5.6875 C 13.792969 5.609375 13.835938 5.542969 13.894531 5.519531 C 13.984375 5.484375 14.09375 5.554688 14.253906 5.664062 C 14.429688 5.785156 14.652344 5.9375 14.882812 5.800781 C 15.03125 5.714844 15.078125 5.546875 15.113281 5.417969 C 15.148438 5.292969 15.171875 5.21875 15.226562 5.191406 C 15.300781 5.152344 15.414062 5.210938 15.566406 5.359375 C 15.808594 5.589844 16.050781 5.652344 16.234375 5.527344 C 16.277344 5.496094 16.308594 5.457031 16.339844 5.421875 C 16.355469 5.398438 16.375 5.378906 16.390625 5.367188 C 16.4375 5.335938 16.523438 5.351562 16.652344 5.410156 C 16.925781 5.53125 17.1875 5.679688 17.433594 5.847656 C 17.445312 5.859375 17.457031 5.867188 17.472656 5.875 C 17.523438 5.910156 17.574219 5.945312 17.621094 5.984375 C 17.660156 6.011719 17.699219 6.042969 17.734375 6.074219 C 17.742188 6.078125 17.746094 6.085938 17.753906 6.089844 C 18.574219 6.761719 19.007812 7.867188 18.863281 8.90625 C 18.855469 8.96875 18.84375 9.03125 18.835938 9.09375 C 18.78125 9.40625 18.730469 9.726562 18.863281 10.03125 C 18.933594 10.183594 19.046875 10.308594 19.183594 10.402344 Z M 18.023438 20.304688 C 17.640625 19.804688 17.691406 19.140625 17.773438 18.507812 C 17.839844 18.007812 17.90625 17.507812 17.972656 17.007812 C 17.488281 17.390625 16.867188 17.652344 16.117188 17.796875 C 15.820312 17.855469 15.496094 17.890625 15.125 17.917969 C 15.125 17.917969 15.125 17.917969 15.121094 17.917969 L 15.105469 17.917969 C 15.105469 17.917969 15.101562 17.917969 15.101562 17.917969 C 14.730469 17.890625 14.40625 17.855469 14.109375 17.796875 C 13.363281 17.65625 12.738281 17.390625 12.257812 17.007812 L 12.453125 18.507812 C 12.535156 19.140625 12.585938 19.804688 12.207031 20.304688 C 11.957031 20.628906 11.582031 20.808594 11.210938 20.953125 C 11.148438 20.976562 11.082031 21.003906 11.015625 21.027344 C 11.640625 21.523438 12.257812 22.027344 12.875 22.53125 C 13.625 23.140625 14.40625 23.730469 15.125 24.375 C 15.847656 23.734375 16.621094 23.140625 17.371094 22.527344 C 17.984375 22.027344 18.597656 21.523438 19.214844 21.03125 C 19.148438 21.003906 19.082031 20.980469 19.015625 20.953125 C 18.644531 20.808594 18.269531 20.628906 18.023438 20.304688 Z M 17.535156 22.675781 C 16.789062 23.3125 16.054688 23.976562 15.28125 24.582031 C 15.25 24.605469 15.21875 24.628906 15.1875 24.652344 C 15.164062 24.675781 15.132812 24.6875 15.101562 24.691406 C 15.074219 24.6875 15.046875 24.679688 15.023438 24.660156 C 15 24.640625 14.976562 24.621094 14.953125 24.601562 C 14.164062 24 13.429688 23.316406 12.675781 22.675781 C 12.0625 22.148438 11.445312 21.625 10.839844 21.09375 C 10.648438 21.15625 10.460938 21.21875 10.269531 21.28125 C 11.140625 21.886719 11.941406 22.613281 12.757812 23.28125 C 13.21875 23.65625 13.679688 24.035156 14.136719 24.414062 C 14.367188 24.601562 14.597656 24.792969 14.828125 24.980469 C 14.921875 25.058594 15.027344 25.132812 15.125 25.210938 C 15.234375 25.125 15.351562 25.042969 15.449219 24.960938 C 15.667969 24.78125 15.882812 24.605469 16.101562 24.425781 C 16.546875 24.054688 16.992188 23.6875 17.441406 23.320312 C 18.273438 22.640625 19.085938 21.90625 19.964844 21.28125 C 19.769531 21.222656 19.574219 21.15625 19.382812 21.089844 C 18.773438 21.625 18.152344 22.148438 17.535156 22.675781 Z M 17.140625 14.640625 C 17.195312 14.613281 17.242188 14.546875 17.183594 14.496094 C 17.128906 14.441406 17.054688 14.429688 16.984375 14.398438 C 16.917969 14.371094 16.859375 14.332031 16.804688 14.28125 C 16.796875 14.277344 16.792969 14.269531 16.785156 14.265625 C 16.746094 14.222656 16.710938 14.175781 16.6875 14.125 L 16.679688 14.109375 C 16.648438 14.046875 16.636719 13.980469 16.59375 13.925781 C 16.570312 13.898438 16.503906 13.898438 16.480469 13.929688 C 16.390625 14.042969 16.429688 14.210938 16.503906 14.339844 C 16.242188 14.714844 15.894531 15.03125 15.429688 15.136719 C 14.851562 15.269531 14.238281 15.070312 13.8125 14.675781 C 13.773438 14.636719 13.671875 14.671875 13.71875 14.730469 C 14.121094 15.253906 14.796875 15.515625 15.457031 15.390625 C 15.953125 15.292969 16.441406 14.984375 16.675781 14.542969 C 16.808594 14.648438 16.988281 14.71875 17.140625 14.640625 Z M 19.699219 10.554688 C 19.707031 10.554688 19.710938 10.554688 19.71875 10.554688 C 19.644531 11.335938 19.542969 12.121094 19.417969 12.886719 C 19.417969 12.890625 19.417969 12.890625 19.417969 12.890625 C 19.371094 13.171875 19.320312 13.457031 19.269531 13.734375 C 19.214844 14.015625 19.167969 14.242188 19.117188 14.449219 C 18.878906 15.425781 18.539062 16.105469 18.050781 16.585938 C 18.023438 16.617188 17.988281 16.652344 17.949219 16.6875 C 17.910156 16.722656 17.875 16.753906 17.839844 16.78125 C 17.386719 17.148438 16.789062 17.402344 16.066406 17.542969 C 15.78125 17.597656 15.472656 17.632812 15.113281 17.65625 C 14.757812 17.632812 14.445312 17.597656 14.160156 17.542969 C 13.425781 17.402344 12.824219 17.140625 12.367188 16.761719 C 12.335938 16.738281 12.308594 16.714844 12.28125 16.6875 C 12.242188 16.65625 12.210938 16.625 12.183594 16.59375 C 12.179688 16.59375 12.175781 16.589844 12.175781 16.585938 C 11.6875 16.105469 11.351562 15.425781 11.109375 14.449219 C 11.058594 14.242188 11.011719 14.015625 10.960938 13.734375 C 10.902344 13.4375 10.847656 13.136719 10.800781 12.835938 C 10.800781 12.832031 10.800781 12.828125 10.800781 12.828125 C 10.667969 12.027344 10.566406 11.214844 10.492188 10.40625 C 10.714844 10.558594 10.9375 10.710938 11.160156 10.863281 C 11.125 10.9375 11.105469 11.023438 11.105469 11.109375 L 11.105469 11.625 C 11.105469 12.289062 11.660156 12.832031 12.335938 12.832031 L 13.203125 12.832031 C 13.800781 12.832031 14.292969 12.351562 14.292969 11.761719 L 14.292969 11.304688 C 14.417969 11.203125 14.566406 11.125 14.722656 11.078125 C 14.496094 11.664062 14.308594 12.300781 14.308594 12.914062 C 14.308594 13.609375 14.933594 13.914062 15.5625 13.96875 C 15.71875 13.980469 15.863281 13.789062 15.664062 13.734375 C 15.410156 13.664062 15.125 13.621094 14.90625 13.46875 C 14.625 13.277344 14.589844 12.976562 14.613281 12.664062 C 14.65625 12.117188 14.765625 11.570312 14.90625 11.039062 C 14.960938 11.03125 15.019531 11.027344 15.074219 11.027344 C 15.402344 11.03125 15.714844 11.175781 15.9375 11.40625 L 15.9375 11.625 C 15.9375 12.289062 16.488281 12.832031 17.167969 12.832031 L 18.03125 12.832031 C 18.632812 12.832031 19.121094 12.351562 19.121094 11.761719 L 19.121094 11.109375 C 19.121094 11.023438 19.101562 10.9375 19.066406 10.863281 C 19.222656 10.753906 19.378906 10.648438 19.535156 10.542969 C 19.589844 10.550781 19.644531 10.554688 19.699219 10.554688 Z M 20.164062 13.152344 C 19.988281 13.152344 19.816406 13.128906 19.652344 13.082031 C 19.613281 13.316406 19.574219 13.550781 19.527344 13.785156 C 19.476562 14.066406 19.425781 14.296875 19.375 14.507812 C 19.21875 15.144531 18.9375 16.058594 18.273438 16.738281 L 18.273438 16.75 C 18.328125 16.742188 18.382812 16.726562 18.433594 16.707031 C 18.765625 16.589844 19.03125 16.324219 19.226562 16.101562 C 19.578125 15.707031 19.878906 15.269531 20.113281 14.792969 C 20.386719 14.25 20.574219 13.675781 20.675781 13.085938 C 20.507812 13.128906 20.335938 13.152344 20.164062 13.152344 Z M 20.5625 6.109375 C 20.316406 5.699219 19.972656 5.417969 19.589844 5.3125 C 19.253906 5.222656 18.878906 5.292969 18.632812 5.496094 C 18.632812 5.496094 18.632812 5.496094 18.628906 5.496094 C 18.625 5.5 18.617188 5.507812 18.609375 5.507812 C 18.605469 5.511719 18.597656 5.515625 18.589844 5.519531 C 18.582031 5.523438 18.574219 5.523438 18.566406 5.523438 C 18.558594 5.527344 18.554688 5.527344 18.546875 5.527344 L 18.542969 5.527344 C 18.535156 5.527344 18.523438 5.523438 18.515625 5.523438 C 18.488281 5.515625 18.464844 5.503906 18.445312 5.480469 C 18.441406 5.480469 18.441406 5.480469 18.441406 5.476562 C 18.4375 5.472656 18.433594 5.46875 18.429688 5.460938 C 18.429688 5.460938 18.429688 5.460938 18.429688 5.457031 C 18.425781 5.453125 18.421875 5.449219 18.421875 5.441406 C 18.421875 5.4375 18.417969 5.4375 18.417969 5.433594 C 18.417969 5.429688 18.414062 5.421875 18.414062 5.417969 C 18.414062 5.410156 18.414062 5.402344 18.414062 5.398438 L 18.414062 5.394531 C 18.414062 5.355469 18.414062 5.316406 18.410156 5.277344 C 18.265625 5.320312 18.132812 5.40625 18.03125 5.519531 C 18.5 5.503906 18.976562 5.738281 19.3125 6.046875 C 19.808594 6.496094 20.074219 7.128906 20.277344 7.746094 C 20.3125 7.847656 20.09375 7.90625 20.054688 7.808594 C 19.835938 7.289062 19.605469 6.753906 19.207031 6.335938 C 18.851562 5.964844 18.390625 5.765625 17.882812 5.746094 C 17.871094 5.773438 17.863281 5.804688 17.851562 5.832031 C 17.976562 5.929688 18.097656 6.03125 18.210938 6.140625 C 18.230469 6.15625 18.242188 6.175781 18.246094 6.195312 C 18.925781 6.925781 19.265625 7.960938 19.128906 8.941406 C 19.117188 9.003906 19.105469 9.070312 19.097656 9.136719 C 19.046875 9.421875 19.003906 9.695312 19.109375 9.929688 C 19.167969 10.0625 19.285156 10.171875 19.425781 10.234375 C 19.585938 10.125 19.746094 10.015625 19.902344 9.910156 C 20.046875 9.703125 20.191406 9.546875 20.351562 9.417969 C 20.589844 9.230469 20.878906 9.109375 21.164062 9.085938 C 21.164062 9.070312 21.167969 9.050781 21.167969 9.027344 C 21.226562 8.449219 21.117188 7.859375 21.003906 7.359375 C 20.910156 6.9375 20.789062 6.492188 20.5625 6.109375 Z M 21.515625 10.222656 C 21.582031 10.230469 21.648438 10.152344 21.582031 10.105469 C 21.292969 9.917969 20.960938 10.152344 20.769531 10.367188 C 20.488281 10.671875 20.328125 11.0625 20.28125 11.464844 C 20.265625 11.585938 20.4375 11.59375 20.507812 11.542969 C 20.609375 11.472656 20.890625 11.25 20.945312 11.582031 C 20.957031 11.65625 20.898438 11.777344 20.863281 11.84375 C 20.765625 12.039062 20.597656 12.171875 20.441406 12.320312 C 20.371094 12.390625 20.484375 12.441406 20.542969 12.425781 C 20.90625 12.324219 21.261719 11.886719 21.222656 11.507812 C 21.1875 11.140625 20.867188 11.144531 20.597656 11.246094 C 20.707031 10.785156 21.011719 10.152344 21.515625 10.222656 Z M 21.679688 9.449219 C 22.144531 9.722656 22.160156 10.382812 22.144531 10.652344 C 22.097656 11.464844 21.738281 12.179688 21.183594 12.574219 C 21.066406 12.65625 20.933594 12.726562 20.792969 12.777344 C 20.433594 12.910156 20.039062 12.925781 19.695312 12.824219 C 19.824219 12.03125 19.925781 11.226562 20 10.421875 L 20 10.417969 C 20.003906 10.351562 20.011719 10.28125 20.015625 10.214844 C 20.019531 10.210938 20.019531 10.210938 20.023438 10.207031 C 20.105469 10.070312 20.191406 9.957031 20.277344 9.855469 C 20.355469 9.765625 20.4375 9.6875 20.519531 9.621094 C 20.738281 9.445312 21.019531 9.34375 21.273438 9.34375 L 21.28125 9.34375 C 21.429688 9.34375 21.566406 9.378906 21.679688 9.449219 " fill-opacity="1" fill-rule="nonzero"/></g></svg>