<svg xmlns="http://www.w3.org/2000/svg" xmlns:xlink="http://www.w3.org/1999/xlink" width="40" zoomAndPan="magnify" viewBox="0 0 30 30.000001" height="40" preserveAspectRatio="xMidYMid meet" version="1.0"><defs><clipPath id="id1"><path d="M 0.484375 0 L 29.515625 0 L 29.515625 29.03125 L 0.484375 29.03125 Z M 0.484375 0 " clip-rule="nonzero"/></clipPath><clipPath id="id2"><path d="M 6.160156 1.699219 L 23.578125 1.699219 L 23.578125 27.097656 L 6.160156 27.097656 Z M 6.160156 1.699219 " clip-rule="nonzero"/></clipPath><clipPath id="id3"><path d="M 6.160156 5 L 23.578125 5 L 23.578125 27 L 6.160156 27 Z M 6.160156 5 " clip-rule="nonzero"/></clipPath><clipPath id="id4"><path d="M 6.160156 1.699219 L 23.578125 1.699219 L 23.578125 27.097656 L 6.160156 27.097656 Z M 6.160156 1.699219 " clip-rule="nonzero"/></clipPath></defs><g clip-path="url(#id1)"><path fill="#ffffff" d="M 0.484375 0 L 29.515625 0 L 29.515625 36.289062 L 0.484375 36.289062 Z M 0.484375 0 " fill-opacity="1" fill-rule="nonzero"/><path fill="#ffffff" d="M 0.484375 0 L 29.515625 0 L 29.515625 29.03125 L 0.484375 29.03125 Z M 0.484375 0 " fill-opacity="1" fill-rule="nonzero"/><path fill="#ffffff" d="M 0.484375 0 L 29.515625 0 L 29.515625 29.03125 L 0.484375 29.03125 Z M 0.484375 0 " fill-opacity="1" fill-rule="nonzero"/></g><g clip-path="url(#id2)"><path fill="#0f0e0c" d="M 23.574219 23.816406 C 23.382812 22.972656 22.871094 22.3125 22.476562 21.910156 C 22.195312 21.625 21.890625 21.378906 21.578125 21.152344 C 21.503906 21.097656 21.425781 21.042969 21.351562 20.992188 C 21.175781 20.871094 20.996094 20.757812 20.824219 20.648438 C 20.828125 20.601562 20.835938 20.554688 20.839844 20.507812 C 20.867188 20.203125 20.851562 19.929688 20.796875 19.675781 C 20.769531 19.550781 20.730469 19.433594 20.683594 19.320312 C 20.460938 18.792969 20.023438 18.390625 19.625 18.070312 C 19.1875 17.714844 18.71875 17.382812 18.234375 17.089844 C 18.214844 16.699219 18.222656 16.304688 18.253906 15.917969 C 18.320312 15.894531 18.398438 15.835938 18.476562 15.722656 C 19.242188 14.601562 20.113281 13.328125 20.679688 11.921875 C 21.113281 10.84375 21.546875 9.214844 21.148438 7.558594 C 20.890625 6.488281 20.273438 5.523438 19.449219 4.902344 C 19.070312 3.617188 17.960938 2.484375 16.609375 2.007812 C 15.121094 1.484375 13.339844 1.632812 11.597656 2.429688 C 10.78125 2.800781 10.230469 3.207031 9.863281 3.707031 C 9.800781 3.792969 9.742188 3.878906 9.695312 3.96875 C 9.125 4.257812 8.691406 4.78125 8.527344 5.378906 C 8.386719 5.902344 8.449219 6.480469 8.695312 6.984375 C 8.460938 7.875 8.351562 8.863281 8.371094 9.921875 C 8.402344 11.554688 8.726562 13.167969 9.039062 14.730469 C 9.15625 15.304688 9.285156 15.957031 9.667969 16.472656 C 10.082031 17.027344 10.765625 17.371094 11.566406 17.4375 C 11.402344 17.789062 11.175781 18.109375 10.9375 18.445312 C 10.675781 18.816406 10.40625 19.199219 10.226562 19.625 C 10.003906 20.152344 9.914062 20.761719 9.949219 21.433594 C 9.703125 21.691406 9.363281 21.914062 8.910156 22.117188 C 8.726562 22.199219 8.539062 22.273438 8.355469 22.347656 C 7.960938 22.503906 7.554688 22.667969 7.1875 22.902344 C 6.644531 23.253906 6.269531 23.746094 6.164062 24.25 C 6.152344 24.292969 6.167969 24.335938 6.199219 24.367188 C 7.800781 25.949219 8.808594 26.4375 9.582031 26.707031 C 10.425781 27.003906 11.3125 27.097656 12.140625 27.097656 C 12.746094 27.097656 13.324219 27.046875 13.832031 26.988281 C 14.199219 26.945312 14.566406 26.898438 14.933594 26.835938 C 15.070312 26.816406 15.203125 26.792969 15.335938 26.769531 C 18.039062 26.292969 20.78125 25.347656 23.507812 23.957031 C 23.558594 23.933594 23.585938 23.875 23.574219 23.816406 " fill-opacity="1" fill-rule="nonzero"/></g><g clip-path="url(#id3)"><path fill="#ffffff" d="M 9.839844 8.789062 C 10.148438 8.882812 10.378906 9.066406 10.480469 8.9375 C 10.644531 9.292969 10.9375 9.601562 11.003906 9.988281 C 11.09375 10.507812 10.734375 11.054688 10.53125 11.511719 C 10.367188 11.882812 10.027344 12.375 10.140625 12.800781 C 10.246094 13.183594 10.597656 13.402344 10.914062 13.59375 C 11.054688 13.675781 11.253906 13.460938 11.082031 13.363281 C 10.875 13.246094 10.648438 13.121094 10.515625 12.917969 C 10.367188 12.691406 10.398438 12.488281 10.5 12.253906 C 10.695312 11.78125 10.914062 11.320312 11.105469 10.847656 C 11.25 10.496094 11.335938 10.140625 11.183594 9.777344 C 11.042969 9.4375 10.773438 9.175781 10.570312 8.871094 C 10.558594 8.851562 10.546875 8.832031 10.53125 8.808594 C 10.570312 8.558594 10.351562 8.289062 10.019531 8.1875 C 9.660156 8.082031 9.308594 8.207031 9.230469 8.472656 C 9.152344 8.734375 9.484375 8.683594 9.839844 8.789062 Z M 10.902344 14.25 C 10.847656 14.230469 10.746094 14.292969 10.804688 14.351562 C 11.59375 15.097656 13.066406 14.695312 13.542969 13.785156 C 13.625 13.632812 13.359375 13.613281 13.285156 13.703125 C 13.019531 14.011719 12.71875 14.273438 12.320312 14.394531 C 11.828125 14.546875 11.367188 14.417969 10.902344 14.25 Z M 13.976562 8.835938 C 14.410156 8.96875 14.710938 9.242188 14.804688 8.921875 C 14.898438 8.601562 14.625 8.238281 14.191406 8.105469 C 13.757812 7.976562 13.332031 8.132812 13.234375 8.453125 C 13.140625 8.773438 13.542969 8.707031 13.976562 8.835938 Z M 14.273438 9.539062 C 14.273438 9.40625 14.164062 9.300781 14.035156 9.300781 C 13.902344 9.300781 13.796875 9.40625 13.796875 9.539062 L 13.796875 10.605469 C 13.796875 10.734375 13.902344 10.84375 14.035156 10.84375 C 14.164062 10.84375 14.273438 10.734375 14.273438 10.605469 Z M 12.90625 15.164062 C 12.78125 15.230469 12.640625 15.285156 12.5 15.3125 C 12.339844 15.339844 12.1875 15.308594 12.023438 15.300781 C 11.976562 15.300781 11.882812 15.363281 11.945312 15.414062 C 12.238281 15.671875 12.765625 15.566406 13.03125 15.316406 C 13.128906 15.226562 13.019531 15.109375 12.90625 15.164062 Z M 10.117188 9.488281 C 10.117188 9.355469 10.011719 9.25 9.878906 9.25 C 9.746094 9.25 9.640625 9.355469 9.640625 9.488281 L 9.640625 10.554688 C 9.640625 10.683594 9.746094 10.792969 9.878906 10.792969 C 10.011719 10.792969 10.117188 10.683594 10.117188 10.554688 Z M 17.996094 11.242188 C 18.074219 11.460938 18.308594 11.4375 18.472656 11.34375 C 18.546875 11.296875 18.621094 11.210938 18.722656 11.269531 C 18.863281 11.351562 18.777344 11.617188 18.730469 11.726562 C 18.640625 11.925781 18.476562 12.0625 18.292969 12.175781 C 18.160156 12.261719 18.324219 12.382812 18.433594 12.339844 C 18.734375 12.222656 18.960938 11.957031 19.042969 11.644531 C 19.109375 11.394531 19.039062 11.066406 18.738281 11.023438 C 18.609375 11.003906 18.507812 11.058594 18.398438 11.125 C 18.324219 11.167969 18.289062 11.242188 18.234375 11.132812 C 18.191406 11.050781 18.285156 10.855469 18.3125 10.78125 C 18.382812 10.59375 18.480469 10.410156 18.597656 10.246094 C 18.703125 10.097656 18.84375 9.976562 18.945312 9.820312 C 18.964844 9.785156 18.914062 9.753906 18.882812 9.765625 C 18.617188 9.878906 18.417969 10.132812 18.269531 10.371094 C 18.136719 10.582031 17.902344 10.976562 17.996094 11.242188 Z M 8.625 9.917969 C 8.601562 8.863281 8.714844 7.882812 8.953125 7.003906 C 9.085938 6.507812 9.265625 6.039062 9.480469 5.609375 C 9.503906 5.558594 9.53125 5.507812 9.558594 5.457031 C 9.609375 5.527344 9.65625 5.59375 9.695312 5.652344 C 9.730469 5.703125 9.765625 5.757812 9.804688 5.808594 C 9.949219 5.996094 10.121094 6.164062 10.316406 6.292969 C 10.941406 6.707031 11.695312 6.582031 12.378906 6.410156 C 13.46875 6.132812 14.554688 5.789062 15.601562 5.359375 C 15.503906 6.253906 15.585938 7.253906 16.171875 7.945312 C 16.550781 8.394531 17.03125 8.699219 17.238281 9.277344 C 17.433594 9.835938 17.433594 10.4375 17.425781 11.019531 C 17.421875 11.195312 17.683594 11.164062 17.738281 11.039062 C 17.894531 10.664062 18.050781 10.292969 18.207031 9.921875 C 18.320312 9.65625 18.453125 9.261719 18.765625 9.183594 C 19.101562 9.097656 19.402344 9.433594 19.546875 9.699219 C 19.707031 10.003906 19.769531 10.367188 19.761719 10.707031 C 19.730469 11.824219 19.003906 12.632812 18.09375 13.132812 C 18.007812 13.179688 17.921875 13.226562 17.832031 13.265625 C 17.667969 13.34375 17.5 13.410156 17.332031 13.46875 C 17.191406 13.515625 17.277344 13.699219 17.414062 13.664062 C 17.539062 13.632812 17.664062 13.59375 17.785156 13.546875 C 17.691406 14.242188 17.726562 14.960938 17.890625 15.640625 C 17.902344 15.6875 17.925781 15.792969 18.003906 15.863281 C 17.96875 16.296875 17.964844 16.734375 17.988281 17.171875 C 17.996094 17.328125 18.007812 17.484375 18.023438 17.636719 C 18.03125 17.703125 18.039062 17.769531 18.046875 17.835938 C 18.125 18.445312 18.261719 19.042969 18.457031 19.625 C 18.371094 19.695312 18.289062 19.765625 18.214844 19.835938 C 17.941406 20.089844 17.671875 20.351562 17.410156 20.621094 C 16.386719 21.671875 15.472656 22.832031 14.679688 24.070312 C 14.359375 24.574219 14.054688 25.085938 13.777344 25.613281 C 13.71875 25.480469 13.65625 25.347656 13.597656 25.214844 C 13.433594 24.855469 13.257812 24.5 13.078125 24.148438 C 12.710938 23.433594 12.335938 22.714844 12.074219 21.953125 C 12.046875 21.882812 12.023438 21.808594 12 21.734375 C 12.238281 21.675781 12.476562 21.570312 12.589844 21.402344 C 12.6875 21.25 12.6875 21.042969 12.707031 20.871094 C 12.738281 20.589844 12.757812 20.308594 12.769531 20.027344 C 12.789062 19.484375 12.773438 18.9375 12.746094 18.390625 C 12.730469 18.132812 12.714844 17.875 12.695312 17.617188 C 12.6875 17.527344 12.6875 17.4375 12.683594 17.34375 C 13.742188 17.082031 14.664062 16.414062 15.476562 15.824219 C 15.535156 15.78125 15.546875 15.703125 15.503906 15.644531 C 15.464844 15.589844 15.386719 15.574219 15.328125 15.617188 C 14.542969 16.1875 13.65625 16.832031 12.660156 17.089844 C 12.644531 17.09375 12.628906 17.097656 12.609375 17.101562 C 12.535156 17.121094 12.457031 17.136719 12.378906 17.148438 C 12.230469 17.171875 12.082031 17.1875 11.933594 17.191406 C 11.875 17.191406 11.816406 17.191406 11.757812 17.191406 L 11.753906 17.191406 C 11.726562 17.191406 11.699219 17.1875 11.667969 17.1875 C 10.90625 17.148438 10.253906 16.832031 9.871094 16.320312 C 9.523438 15.851562 9.398438 15.230469 9.289062 14.679688 C 8.976562 13.128906 8.65625 11.523438 8.625 9.917969 Z M 18.535156 23.570312 C 18.558594 23.554688 18.527344 23.53125 18.507812 23.542969 C 17.679688 24.027344 16.929688 24.578125 16.25 25.261719 C 15.933594 25.582031 15.636719 25.917969 15.359375 26.269531 C 15.289062 26.359375 15.214844 26.453125 15.148438 26.546875 C 14.699219 26.621094 14.25 26.683594 13.804688 26.734375 C 12.046875 26.9375 10.769531 26.851562 9.664062 26.46875 C 8.359375 26.011719 7.335938 25.128906 6.425781 24.238281 C 6.535156 23.820312 6.859375 23.414062 7.324219 23.117188 C 7.671875 22.894531 8.066406 22.738281 8.449219 22.585938 C 8.632812 22.511719 8.828125 22.433594 9.011719 22.347656 C 9.410156 22.171875 9.726562 21.976562 9.980469 21.757812 C 9.988281 21.828125 9.996094 21.898438 10.007812 21.96875 C 10.128906 22.746094 10.386719 23.492188 10.640625 24.214844 C 10.777344 24.734375 10.953125 25.25 11.136719 25.746094 C 11.152344 25.792969 11.257812 25.777344 11.246094 25.722656 C 11.148438 25.210938 11.035156 24.691406 10.886719 24.183594 C 10.886719 24.164062 10.886719 24.148438 10.878906 24.128906 C 10.835938 24.007812 10.792969 23.882812 10.75 23.761719 C 10.546875 23.164062 10.351562 22.554688 10.257812 21.929688 C 10.234375 21.777344 10.214844 21.625 10.207031 21.480469 C 10.207031 21.476562 10.207031 21.476562 10.207031 21.472656 C 10.164062 20.816406 10.246094 20.230469 10.460938 19.726562 C 10.628906 19.324219 10.890625 18.953125 11.144531 18.59375 C 11.398438 18.234375 11.660156 17.859375 11.839844 17.445312 L 11.84375 17.445312 C 12.03125 17.445312 12.214844 17.433594 12.398438 17.402344 C 12.402344 17.429688 12.40625 17.457031 12.40625 17.484375 C 12.410156 17.554688 12.417969 17.628906 12.421875 17.699219 C 11.320312 18.636719 11.296875 20.367188 11.660156 21.65625 C 11.664062 21.664062 11.664062 21.671875 11.667969 21.679688 C 11.675781 21.714844 11.6875 21.746094 11.699219 21.78125 C 11.929688 22.554688 12.289062 23.285156 12.648438 24.007812 C 12.851562 24.410156 13.058594 24.808594 13.246094 25.21875 C 13.363281 25.480469 13.460938 25.753906 13.570312 26.019531 C 13.53125 26.097656 13.492188 26.175781 13.457031 26.253906 C 13.386719 26.402344 13.613281 26.433594 13.710938 26.347656 C 13.726562 26.335938 13.734375 26.320312 13.742188 26.308594 C 13.796875 26.195312 13.855469 26.085938 13.914062 25.976562 C 14.597656 24.675781 15.371094 23.4375 16.292969 22.285156 C 16.796875 21.652344 17.335938 21.046875 17.90625 20.476562 C 18.113281 20.269531 18.328125 20.070312 18.539062 19.871094 C 18.605469 19.808594 18.667969 19.75 18.726562 19.6875 C 18.734375 19.683594 18.738281 19.679688 18.742188 19.675781 C 18.9375 19.484375 19.136719 19.253906 19.175781 18.964844 C 19.253906 18.378906 18.765625 18.078125 18.296875 17.800781 C 18.28125 17.667969 18.265625 17.535156 18.257812 17.402344 C 18.675781 17.664062 19.082031 17.953125 19.46875 18.265625 C 19.839844 18.570312 20.25 18.945312 20.449219 19.421875 C 20.578125 19.726562 20.625 20.070312 20.589844 20.46875 C 20.550781 20.589844 20.503906 20.707031 20.449219 20.824219 C 20.289062 21.167969 20.03125 21.421875 19.84375 21.742188 C 19.8125 21.796875 19.898438 21.820312 19.933594 21.800781 C 20.273438 21.613281 20.527344 21.21875 20.695312 20.867188 C 20.84375 20.960938 20.996094 21.058594 21.144531 21.160156 C 20.722656 21.527344 20.355469 21.980469 20.066406 22.414062 C 19.808594 22.800781 19.585938 23.222656 19.421875 23.65625 C 19.28125 24.027344 19.070312 24.539062 19.15625 24.9375 C 19.160156 24.964844 19.199219 24.972656 19.214844 24.949219 C 19.324219 24.761719 19.367188 24.535156 19.433594 24.328125 C 19.503906 24.121094 19.578125 23.914062 19.660156 23.710938 C 19.835938 23.292969 20.050781 22.898438 20.308594 22.523438 C 20.554688 22.164062 20.832031 21.828125 21.144531 21.527344 C 21.222656 21.453125 21.296875 21.386719 21.375 21.316406 C 21.699219 21.546875 22.011719 21.800781 22.296875 22.089844 C 22.652344 22.453125 23.109375 23.035156 23.304688 23.777344 C 20.714844 25.089844 18.113281 25.992188 15.546875 26.472656 C 15.832031 26.097656 16.140625 25.742188 16.464844 25.398438 C 17.097656 24.738281 17.796875 24.105469 18.535156 23.570312 " fill-opacity="1" fill-rule="nonzero"/></g><g clip-path="url(#id4)"><path fill="#0f0e0c" d="M 10.117188 9.488281 L 10.117188 10.554688 C 10.117188 10.683594 10.011719 10.792969 9.878906 10.792969 C 9.746094 10.792969 9.640625 10.683594 9.640625 10.554688 L 9.640625 9.488281 C 9.640625 9.355469 9.746094 9.25 9.878906 9.25 C 10.011719 9.25 10.117188 9.355469 10.117188 9.488281 Z M 10.914062 13.59375 C 10.597656 13.402344 10.246094 13.183594 10.140625 12.800781 C 10.027344 12.375 10.367188 11.882812 10.53125 11.511719 C 10.734375 11.054688 11.09375 10.507812 11.003906 9.988281 C 10.9375 9.601562 10.644531 9.292969 10.480469 8.9375 C 10.378906 9.066406 10.148438 8.882812 9.839844 8.789062 C 9.484375 8.683594 9.152344 8.734375 9.230469 8.472656 C 9.308594 8.207031 9.660156 8.082031 10.019531 8.1875 C 10.351562 8.289062 10.570312 8.558594 10.53125 8.808594 C 10.546875 8.832031 10.558594 8.851562 10.570312 8.871094 C 10.773438 9.175781 11.042969 9.4375 11.183594 9.777344 C 11.335938 10.140625 11.25 10.496094 11.105469 10.847656 C 10.914062 11.320312 10.695312 11.78125 10.5 12.253906 C 10.398438 12.488281 10.367188 12.691406 10.515625 12.917969 C 10.648438 13.121094 10.875 13.246094 11.082031 13.363281 C 11.253906 13.460938 11.054688 13.675781 10.914062 13.59375 Z M 13.03125 15.316406 C 12.765625 15.566406 12.238281 15.671875 11.945312 15.414062 C 11.882812 15.363281 11.976562 15.300781 12.023438 15.300781 C 12.1875 15.308594 12.339844 15.339844 12.5 15.3125 C 12.640625 15.285156 12.78125 15.230469 12.90625 15.164062 C 13.019531 15.109375 13.128906 15.226562 13.03125 15.316406 Z M 10.804688 14.351562 C 10.746094 14.292969 10.847656 14.230469 10.902344 14.25 C 11.367188 14.417969 11.828125 14.546875 12.320312 14.394531 C 12.71875 14.273438 13.019531 14.011719 13.285156 13.703125 C 13.359375 13.613281 13.625 13.632812 13.542969 13.785156 C 13.066406 14.695312 11.59375 15.097656 10.804688 14.351562 Z M 14.273438 9.539062 L 14.273438 10.605469 C 14.273438 10.734375 14.164062 10.84375 14.035156 10.84375 C 13.902344 10.84375 13.796875 10.734375 13.796875 10.605469 L 13.796875 9.539062 C 13.796875 9.40625 13.902344 9.300781 14.035156 9.300781 C 14.164062 9.300781 14.273438 9.40625 14.273438 9.539062 Z M 13.234375 8.453125 C 13.332031 8.132812 13.757812 7.976562 14.191406 8.105469 C 14.625 8.238281 14.898438 8.601562 14.804688 8.921875 C 14.710938 9.242188 14.410156 8.96875 13.976562 8.835938 C 13.542969 8.707031 13.140625 8.773438 13.234375 8.453125 Z M 17.996094 11.242188 C 17.902344 10.976562 18.136719 10.582031 18.269531 10.371094 C 18.417969 10.132812 18.617188 9.878906 18.882812 9.765625 C 18.914062 9.753906 18.964844 9.785156 18.941406 9.820312 C 18.84375 9.976562 18.703125 10.097656 18.597656 10.246094 C 18.476562 10.410156 18.382812 10.59375 18.3125 10.78125 C 18.285156 10.855469 18.191406 11.050781 18.234375 11.132812 C 18.289062 11.242188 18.324219 11.167969 18.398438 11.125 C 18.507812 11.058594 18.609375 11.003906 18.738281 11.023438 C 19.039062 11.066406 19.109375 11.394531 19.042969 11.644531 C 18.960938 11.957031 18.734375 12.222656 18.429688 12.339844 C 18.324219 12.382812 18.160156 12.261719 18.292969 12.175781 C 18.476562 12.0625 18.640625 11.925781 18.730469 11.726562 C 18.777344 11.617188 18.863281 11.351562 18.722656 11.269531 C 18.621094 11.210938 18.546875 11.296875 18.472656 11.34375 C 18.308594 11.4375 18.074219 11.460938 17.996094 11.242188 Z M 15.546875 26.472656 C 15.832031 26.097656 16.140625 25.742188 16.464844 25.398438 C 17.097656 24.738281 17.796875 24.105469 18.535156 23.570312 C 18.558594 23.554688 18.527344 23.53125 18.507812 23.542969 C 17.679688 24.027344 16.929688 24.578125 16.25 25.261719 C 15.933594 25.582031 15.636719 25.917969 15.359375 26.269531 C 15.289062 26.359375 15.214844 26.453125 15.144531 26.546875 C 14.699219 26.621094 14.25 26.683594 13.804688 26.734375 C 12.046875 26.9375 10.769531 26.851562 9.664062 26.46875 C 8.359375 26.011719 7.335938 25.128906 6.425781 24.238281 C 6.535156 23.820312 6.859375 23.414062 7.324219 23.117188 C 7.671875 22.894531 8.066406 22.738281 8.449219 22.585938 C 8.632812 22.511719 8.824219 22.433594 9.011719 22.347656 C 9.410156 22.171875 9.726562 21.976562 9.976562 21.757812 C 9.988281 21.828125 9.996094 21.898438 10.007812 21.96875 C 10.128906 22.746094 10.386719 23.492188 10.640625 24.214844 C 10.777344 24.734375 10.953125 25.25 11.136719 25.746094 C 11.152344 25.792969 11.257812 25.777344 11.246094 25.722656 C 11.148438 25.210938 11.035156 24.691406 10.882812 24.183594 C 10.886719 24.164062 10.882812 24.148438 10.878906 24.128906 C 10.835938 24.007812 10.792969 23.882812 10.75 23.761719 C 10.546875 23.164062 10.351562 22.554688 10.257812 21.929688 C 10.234375 21.777344 10.214844 21.625 10.207031 21.480469 C 10.207031 21.476562 10.207031 21.476562 10.207031 21.472656 C 10.160156 20.816406 10.246094 20.230469 10.460938 19.726562 C 10.628906 19.324219 10.890625 18.953125 11.144531 18.59375 C 11.398438 18.234375 11.660156 17.859375 11.839844 17.445312 L 11.84375 17.445312 C 12.03125 17.445312 12.214844 17.433594 12.398438 17.402344 C 12.402344 17.429688 12.402344 17.457031 12.40625 17.484375 C 12.410156 17.554688 12.417969 17.628906 12.421875 17.699219 C 11.320312 18.636719 11.296875 20.367188 11.660156 21.65625 C 11.660156 21.664062 11.664062 21.671875 11.667969 21.679688 C 11.675781 21.714844 11.6875 21.746094 11.699219 21.78125 C 11.929688 22.554688 12.289062 23.285156 12.648438 24.007812 C 12.851562 24.410156 13.058594 24.808594 13.246094 25.21875 C 13.363281 25.480469 13.460938 25.753906 13.566406 26.019531 C 13.527344 26.097656 13.492188 26.175781 13.457031 26.253906 C 13.386719 26.402344 13.613281 26.433594 13.710938 26.347656 C 13.722656 26.335938 13.734375 26.320312 13.742188 26.308594 C 13.796875 26.195312 13.855469 26.085938 13.914062 25.976562 C 14.597656 24.675781 15.371094 23.4375 16.292969 22.285156 C 16.796875 21.652344 17.335938 21.046875 17.90625 20.476562 C 18.113281 20.269531 18.328125 20.070312 18.539062 19.871094 C 18.605469 19.808594 18.667969 19.75 18.726562 19.6875 C 18.734375 19.683594 18.738281 19.679688 18.742188 19.675781 C 18.9375 19.484375 19.136719 19.253906 19.175781 18.964844 C 19.253906 18.378906 18.765625 18.078125 18.296875 17.800781 C 18.28125 17.667969 18.265625 17.535156 18.257812 17.402344 C 18.675781 17.664062 19.082031 17.953125 19.46875 18.265625 C 19.839844 18.570312 20.25 18.945312 20.449219 19.421875 C 20.578125 19.726562 20.621094 20.070312 20.589844 20.46875 C 20.550781 20.589844 20.503906 20.707031 20.449219 20.824219 C 20.289062 21.167969 20.03125 21.421875 19.84375 21.742188 C 19.8125 21.796875 19.898438 21.820312 19.933594 21.800781 C 20.273438 21.613281 20.527344 21.21875 20.691406 20.867188 C 20.84375 20.960938 20.996094 21.058594 21.144531 21.160156 C 20.722656 21.527344 20.355469 21.980469 20.066406 22.414062 C 19.808594 22.800781 19.585938 23.222656 19.421875 23.65625 C 19.28125 24.027344 19.070312 24.539062 19.15625 24.9375 C 19.160156 24.964844 19.199219 24.972656 19.214844 24.949219 C 19.324219 24.761719 19.367188 24.535156 19.433594 24.328125 C 19.503906 24.121094 19.578125 23.914062 19.660156 23.710938 C 19.835938 23.292969 20.050781 22.898438 20.308594 22.523438 C 20.554688 22.164062 20.832031 21.828125 21.144531 21.527344 C 21.21875 21.453125 21.296875 21.386719 21.375 21.316406 C 21.699219 21.546875 22.011719 21.800781 22.296875 22.089844 C 22.652344 22.453125 23.109375 23.035156 23.304688 23.777344 C 20.714844 25.089844 18.113281 25.992188 15.546875 26.472656 Z M 9.871094 16.320312 C 9.519531 15.851562 9.398438 15.230469 9.289062 14.679688 C 8.976562 13.128906 8.65625 11.523438 8.625 9.917969 C 8.601562 8.863281 8.714844 7.882812 8.953125 7.003906 C 9.085938 6.507812 9.265625 6.039062 9.480469 5.609375 C 9.503906 5.558594 9.53125 5.507812 9.558594 5.457031 C 9.605469 5.527344 9.65625 5.59375 9.691406 5.652344 C 9.730469 5.703125 9.765625 5.757812 9.804688 5.808594 C 9.949219 5.996094 10.117188 6.164062 10.316406 6.292969 C 10.941406 6.707031 11.695312 6.582031 12.378906 6.410156 C 13.46875 6.132812 14.554688 5.789062 15.601562 5.359375 C 15.503906 6.253906 15.585938 7.253906 16.171875 7.945312 C 16.550781 8.394531 17.03125 8.699219 17.238281 9.277344 C 17.433594 9.835938 17.433594 10.4375 17.425781 11.019531 C 17.421875 11.195312 17.683594 11.164062 17.738281 11.039062 C 17.894531 10.664062 18.050781 10.292969 18.207031 9.921875 C 18.320312 9.65625 18.453125 9.261719 18.765625 9.183594 C 19.101562 9.097656 19.402344 9.433594 19.546875 9.699219 C 19.707031 10.003906 19.769531 10.367188 19.761719 10.707031 C 19.730469 11.824219 19.003906 12.632812 18.09375 13.132812 C 18.007812 13.179688 17.921875 13.226562 17.832031 13.265625 C 17.667969 13.34375 17.5 13.410156 17.332031 13.46875 C 17.191406 13.515625 17.277344 13.699219 17.414062 13.664062 C 17.539062 13.632812 17.664062 13.59375 17.785156 13.546875 C 17.691406 14.242188 17.726562 14.960938 17.890625 15.640625 C 17.902344 15.6875 17.925781 15.792969 18.003906 15.863281 C 17.96875 16.296875 17.964844 16.734375 17.988281 17.171875 C 17.996094 17.328125 18.007812 17.484375 18.023438 17.636719 C 18.03125 17.703125 18.039062 17.769531 18.046875 17.835938 C 18.125 18.445312 18.261719 19.042969 18.453125 19.625 C 18.371094 19.695312 18.289062 19.765625 18.214844 19.835938 C 17.941406 20.089844 17.671875 20.351562 17.410156 20.621094 C 16.386719 21.671875 15.472656 22.832031 14.679688 24.070312 C 14.359375 24.574219 14.054688 25.085938 13.777344 25.613281 C 13.71875 25.480469 13.65625 25.347656 13.597656 25.214844 C 13.433594 24.855469 13.257812 24.5 13.078125 24.148438 C 12.710938 23.433594 12.335938 22.714844 12.074219 21.953125 C 12.046875 21.882812 12.023438 21.808594 12 21.734375 C 12.238281 21.675781 12.476562 21.570312 12.589844 21.402344 C 12.6875 21.25 12.6875 21.042969 12.707031 20.871094 C 12.738281 20.589844 12.757812 20.308594 12.765625 20.027344 C 12.789062 19.484375 12.773438 18.9375 12.746094 18.390625 C 12.730469 18.132812 12.714844 17.875 12.695312 17.617188 C 12.6875 17.527344 12.6875 17.4375 12.683594 17.34375 C 13.742188 17.082031 14.664062 16.414062 15.476562 15.824219 C 15.535156 15.78125 15.546875 15.703125 15.503906 15.644531 C 15.464844 15.589844 15.386719 15.574219 15.328125 15.617188 C 14.542969 16.1875 13.65625 16.832031 12.660156 17.089844 C 12.644531 17.09375 12.628906 17.097656 12.609375 17.101562 C 12.535156 17.121094 12.457031 17.136719 12.378906 17.148438 C 12.230469 17.171875 12.082031 17.1875 11.933594 17.191406 C 11.875 17.191406 11.816406 17.191406 11.757812 17.191406 L 11.753906 17.191406 C 11.726562 17.191406 11.699219 17.1875 11.667969 17.1875 C 10.90625 17.148438 10.253906 16.832031 9.871094 16.320312 Z M 23.574219 23.816406 C 23.382812 22.972656 22.871094 22.3125 22.476562 21.910156 C 22.195312 21.625 21.890625 21.378906 21.578125 21.152344 C 21.503906 21.097656 21.425781 21.042969 21.351562 20.992188 C 21.175781 20.871094 20.996094 20.757812 20.824219 20.648438 C 20.828125 20.601562 20.835938 20.554688 20.839844 20.507812 C 20.867188 20.203125 20.851562 19.929688 20.796875 19.675781 C 20.769531 19.550781 20.730469 19.433594 20.683594 19.320312 C 20.460938 18.792969 20.023438 18.390625 19.625 18.070312 C 19.1875 17.714844 18.71875 17.382812 18.234375 17.089844 C 18.214844 16.699219 18.222656 16.304688 18.253906 15.917969 C 18.320312 15.894531 18.398438 15.835938 18.476562 15.722656 C 19.242188 14.601562 20.113281 13.328125 20.679688 11.921875 C 21.113281 10.84375 21.546875 9.214844 21.148438 7.558594 C 20.890625 6.488281 20.273438 5.523438 19.449219 4.902344 C 19.070312 3.617188 17.960938 2.484375 16.609375 2.007812 C 15.121094 1.484375 13.339844 1.632812 11.597656 2.429688 C 10.78125 2.800781 10.230469 3.207031 9.863281 3.707031 C 9.800781 3.792969 9.742188 3.878906 9.695312 3.96875 C 9.125 4.257812 8.691406 4.78125 8.527344 5.378906 C 8.386719 5.902344 8.449219 6.480469 8.695312 6.984375 C 8.460938 7.875 8.351562 8.863281 8.371094 9.921875 C 8.402344 11.554688 8.726562 13.167969 9.039062 14.730469 C 9.15625 15.304688 9.285156 15.957031 9.667969 16.472656 C 10.082031 17.027344 10.765625 17.371094 11.566406 17.4375 C 11.402344 17.789062 11.175781 18.109375 10.9375 18.445312 C 10.675781 18.816406 10.40625 19.199219 10.226562 19.625 C 10.003906 20.152344 9.914062 20.761719 9.949219 21.433594 C 9.703125 21.691406 9.363281 21.914062 8.910156 22.117188 C 8.726562 22.199219 8.539062 22.273438 8.355469 22.347656 C 7.960938 22.503906 7.554688 22.667969 7.1875 22.902344 C 6.644531 23.253906 6.269531 23.746094 6.164062 24.25 C 6.152344 24.292969 6.167969 24.335938 6.199219 24.367188 C 7.800781 25.949219 8.808594 26.4375 9.582031 26.707031 C 10.425781 27.003906 11.3125 27.097656 12.140625 27.097656 C 12.746094 27.097656 13.324219 27.046875 13.832031 26.988281 C 14.199219 26.945312 14.566406 26.898438 14.933594 26.835938 C 15.070312 26.816406 15.203125 26.792969 15.335938 26.769531 C 18.039062 26.292969 20.78125 25.347656 23.507812 23.957031 C 23.558594 23.933594 23.585938 23.875 23.574219 23.816406 " fill-opacity="1" fill-rule="nonzero"/></g></svg>