<svg xmlns="http://www.w3.org/2000/svg" xmlns:xlink="http://www.w3.org/1999/xlink" width="40" zoomAndPan="magnify" viewBox="0 0 30 30.000001" height="40" preserveAspectRatio="xMidYMid meet" version="1.0"><defs><clipPath id="id1"><path d="M 0.484375 0 L 29.515625 0 L 29.515625 29.03125 L 0.484375 29.03125 Z M 0.484375 0 " clip-rule="nonzero"/></clipPath><clipPath id="id2"><path d="M 5.214844 1.019531 L 24.8125 1.019531 L 24.8125 27.863281 L 5.214844 27.863281 Z M 5.214844 1.019531 " clip-rule="nonzero"/></clipPath><clipPath id="id3"><path d="M 5.214844 6 L 24.8125 6 L 24.8125 27.871094 L 5.214844 27.871094 Z M 5.214844 6 " clip-rule="nonzero"/></clipPath></defs><g clip-path="url(#id1)"><path fill="#ffffff" d="M 0.484375 0 L 29.515625 0 L 29.515625 36.289062 L 0.484375 36.289062 Z M 0.484375 0 " fill-opacity="1" fill-rule="nonzero"/><path fill="#ffffff" d="M 0.484375 0 L 29.515625 0 L 29.515625 29.03125 L 0.484375 29.03125 Z M 0.484375 0 " fill-opacity="1" fill-rule="nonzero"/><path fill="#ffffff" d="M 0.484375 0 L 29.515625 0 L 29.515625 29.03125 L 0.484375 29.03125 Z M 0.484375 0 " fill-opacity="1" fill-rule="nonzero"/></g><g clip-path="url(#id2)"><path fill="#0f0e0c" d="M 23.65625 22.609375 C 23.632812 22.597656 23.609375 22.585938 23.585938 22.574219 C 23.539062 22.550781 23.492188 22.535156 23.449219 22.519531 C 23.160156 22.421875 22.851562 22.417969 22.554688 22.414062 C 22.492188 22.414062 22.429688 22.414062 22.371094 22.414062 C 21.585938 22.394531 20.800781 22.214844 20.082031 21.886719 C 20.023438 21.859375 19.960938 21.832031 19.902344 21.800781 C 19.640625 21.671875 19.386719 21.523438 19.148438 21.355469 C 19.121094 20.839844 19.0625 20.339844 18.800781 19.910156 C 18.492188 19.394531 17.949219 19.082031 17.410156 18.816406 C 17.445312 18.441406 17.507812 18.070312 17.59375 17.707031 C 17.789062 17.570312 17.972656 17.421875 18.148438 17.265625 C 18.398438 17.042969 18.632812 16.796875 18.84375 16.53125 C 19.183594 17.070312 19.605469 17.328125 20.0625 17.285156 C 20.378906 17.253906 20.640625 17.078125 20.890625 16.90625 C 21.128906 16.746094 21.351562 16.597656 21.605469 16.578125 C 21.691406 16.570312 21.78125 16.578125 21.875 16.589844 C 22.027344 16.605469 22.183594 16.621094 22.34375 16.578125 C 22.5 16.535156 22.648438 16.4375 22.792969 16.28125 C 22.902344 16.164062 23 16.035156 23.078125 15.890625 C 23.351562 15.398438 23.425781 14.808594 23.5 14.242188 C 23.570312 13.65625 23.644531 13.054688 23.9375 12.570312 C 24.023438 12.433594 24.121094 12.308594 24.226562 12.171875 C 24.34375 12.027344 24.460938 11.875 24.558594 11.707031 C 25 10.945312 24.859375 9.898438 24.238281 9.277344 C 24.101562 9.140625 23.949219 9.027344 23.804688 8.914062 C 23.539062 8.714844 23.289062 8.523438 23.164062 8.25 C 23.039062 7.96875 23.066406 7.648438 23.09375 7.308594 C 23.109375 7.132812 23.125 6.949219 23.117188 6.765625 C 23.078125 5.855469 22.410156 5.023438 21.523438 4.789062 C 21.457031 4.769531 21.382812 4.753906 21.316406 4.738281 C 21.085938 4.6875 20.867188 4.640625 20.730469 4.492188 C 20.613281 4.363281 20.574219 4.175781 20.535156 3.976562 C 20.523438 3.921875 20.515625 3.871094 20.503906 3.824219 C 20.25 2.734375 19.214844 1.902344 18.089844 1.886719 C 17.804688 1.886719 17.523438 1.929688 17.25 1.972656 C 16.863281 2.035156 16.496094 2.089844 16.136719 2.019531 C 15.785156 1.949219 15.476562 1.761719 15.148438 1.5625 C 14.882812 1.402344 14.609375 1.238281 14.304688 1.132812 C 13.625 0.90625 12.847656 1.03125 12.273438 1.460938 C 12.0625 1.617188 11.882812 1.8125 11.707031 2 C 11.453125 2.277344 11.210938 2.535156 10.894531 2.675781 C 10.664062 2.777344 10.414062 2.808594 10.144531 2.839844 C 10.011719 2.855469 9.875 2.875 9.738281 2.902344 C 9.027344 3.039062 8.375 3.449219 7.945312 4.027344 C 7.476562 4.65625 7.296875 5.421875 7.121094 6.164062 C 7.003906 6.65625 6.886719 7.164062 6.679688 7.625 C 6.585938 7.839844 6.464844 8.066406 6.347656 8.28125 C 5.972656 8.984375 5.582031 9.710938 5.824219 10.476562 C 5.910156 10.746094 6.070312 10.988281 6.226562 11.21875 C 6.4375 11.542969 6.640625 11.84375 6.625 12.1875 C 6.621094 12.28125 6.597656 12.375 6.574219 12.476562 C 6.546875 12.613281 6.511719 12.757812 6.523438 12.910156 C 6.550781 13.324219 6.847656 13.597656 7.140625 13.867188 C 7.363281 14.070312 7.574219 14.265625 7.664062 14.511719 C 7.730469 14.699219 7.722656 14.910156 7.714844 15.128906 L 7.714844 15.175781 C 7.710938 15.277344 7.710938 15.371094 7.714844 15.472656 C 7.734375 15.863281 7.945312 16.304688 8.363281 16.355469 C 8.53125 16.375 8.691406 16.320312 8.835938 16.273438 C 8.972656 16.226562 9.097656 16.179688 9.210938 16.210938 C 9.386719 16.253906 9.460938 16.429688 9.5625 16.71875 C 9.621094 16.878906 9.679688 17.050781 9.78125 17.191406 C 9.980469 17.472656 10.3125 17.582031 10.628906 17.582031 C 10.753906 17.582031 10.878906 17.5625 10.988281 17.53125 C 11.148438 17.484375 11.308594 17.414062 11.472656 17.308594 C 11.707031 17.515625 11.960938 17.703125 12.222656 17.871094 C 12.289062 18.183594 12.339844 18.5 12.367188 18.816406 C 11.828125 19.082031 11.285156 19.394531 10.976562 19.910156 C 10.714844 20.339844 10.660156 20.839844 10.628906 21.355469 C 9.6875 22.015625 8.546875 22.390625 7.410156 22.414062 C 7.347656 22.414062 7.285156 22.414062 7.226562 22.414062 C 6.878906 22.417969 6.523438 22.421875 6.195312 22.574219 C 5.554688 22.867188 5.332031 23.566406 5.21875 24.066406 C 5.21875 24.066406 5.21875 24.070312 5.21875 24.070312 C 5.214844 24.078125 5.214844 24.085938 5.214844 24.09375 C 5.214844 24.117188 5.222656 24.140625 5.234375 24.160156 C 5.234375 24.164062 5.238281 24.167969 5.242188 24.171875 C 5.242188 24.175781 5.242188 24.175781 5.246094 24.179688 C 5.246094 24.179688 5.246094 24.179688 5.246094 24.183594 C 7.195312 26.433594 10.851562 27.835938 14.804688 27.855469 C 14.832031 27.867188 14.863281 27.867188 14.894531 27.859375 C 18.878906 27.855469 22.570312 26.449219 24.53125 24.183594 C 24.53125 24.179688 24.53125 24.179688 24.535156 24.175781 C 24.539062 24.171875 24.542969 24.164062 24.546875 24.160156 C 24.550781 24.152344 24.554688 24.148438 24.554688 24.140625 C 24.558594 24.132812 24.558594 24.125 24.5625 24.117188 C 24.5625 24.109375 24.5625 24.101562 24.5625 24.09375 C 24.5625 24.082031 24.5625 24.070312 24.558594 24.0625 C 24.453125 23.582031 24.238281 22.921875 23.65625 22.609375 " fill-opacity="1" fill-rule="nonzero"/><path fill="#0f0e0c" d="M 12.558594 12.664062 C 12.429688 12.496094 12.296875 12.335938 12.144531 12.210938 C 12.070312 12.152344 11.988281 12.097656 11.902344 12.058594 C 11.753906 11.984375 11.582031 11.945312 11.378906 11.960938 C 11.25 11.972656 11.21875 11.816406 11.351562 11.796875 C 11.496094 11.773438 11.65625 11.777344 11.816406 11.808594 C 11.785156 11.683594 11.769531 11.535156 11.769531 11.378906 C 11.769531 10.914062 11.917969 10.539062 12.097656 10.539062 C 12.28125 10.539062 12.429688 10.914062 12.429688 11.378906 C 12.429688 11.625 12.386719 11.84375 12.320312 12 C 12.539062 12.132812 12.703125 12.332031 12.75 12.585938 C 12.765625 12.675781 12.609375 12.730469 12.558594 12.664062 Z M 11.210938 9.488281 C 11.441406 8.746094 12.96875 8.5625 13.195312 9.394531 C 13.242188 9.5625 13.011719 9.621094 12.894531 9.582031 C 12.652344 9.5 12.457031 9.355469 12.1875 9.378906 C 11.949219 9.394531 11.777344 9.566406 11.585938 9.6875 C 11.4375 9.777344 11.144531 9.707031 11.210938 9.488281 Z M 13.628906 12.992188 C 13.648438 12.382812 14.433594 12.480469 14.695312 12.078125 C 14.714844 12.042969 14.792969 12.054688 14.78125 12.101562 C 14.710938 12.429688 14.363281 12.511719 14.125 12.695312 C 13.882812 12.882812 13.964844 13.191406 14.226562 13.328125 C 14.4375 13.4375 14.703125 13.410156 14.929688 13.457031 C 15.066406 13.488281 15.003906 13.628906 14.90625 13.65625 C 14.429688 13.785156 13.609375 13.625 13.628906 12.992188 Z M 13.210938 14.832031 C 13.238281 14.808594 13.289062 14.796875 13.355469 14.796875 C 13.472656 14.796875 13.640625 14.832031 13.8125 14.867188 C 14.0625 14.917969 14.371094 14.980469 14.699219 14.980469 C 15.027344 14.980469 15.335938 14.917969 15.585938 14.867188 C 15.851562 14.8125 16.101562 14.761719 16.191406 14.832031 C 16.238281 14.871094 16.25 14.972656 16.25 15.050781 C 16.25 15.078125 16.25 15.101562 16.246094 15.125 C 15.734375 15.101562 15.21875 15.09375 14.699219 15.101562 C 14.183594 15.105469 13.667969 15.117188 13.152344 15.121094 C 13.152344 15.097656 13.148438 15.074219 13.148438 15.050781 C 13.148438 14.972656 13.160156 14.871094 13.210938 14.832031 Z M 15.921875 15.78125 C 15.101562 15.726562 14.269531 15.726562 13.445312 15.746094 C 13.320312 15.613281 13.226562 15.460938 13.183594 15.292969 C 14.1875 15.320312 15.199219 15.371094 16.203125 15.339844 C 16.148438 15.503906 16.050781 15.652344 15.921875 15.78125 Z M 14.699219 16.238281 C 14.257812 16.238281 13.859375 16.09375 13.574219 15.863281 C 14.257812 15.929688 14.949219 15.976562 15.636719 15.992188 C 15.378906 16.144531 15.050781 16.238281 14.699219 16.238281 Z M 12.878906 15.050781 C 12.878906 15.074219 12.878906 15.101562 12.882812 15.125 C 12.886719 15.179688 12.894531 15.230469 12.902344 15.285156 C 12.9375 15.453125 13.007812 15.609375 13.109375 15.753906 C 13.125 15.777344 13.140625 15.800781 13.160156 15.824219 C 13.480469 16.234375 14.050781 16.503906 14.699219 16.503906 C 15.25 16.503906 15.746094 16.308594 16.078125 16 C 16.144531 15.9375 16.203125 15.871094 16.253906 15.804688 C 16.367188 15.660156 16.445312 15.5 16.484375 15.328125 C 16.5 15.269531 16.511719 15.207031 16.515625 15.144531 C 16.519531 15.113281 16.519531 15.082031 16.519531 15.050781 C 16.519531 14.851562 16.46875 14.710938 16.359375 14.625 C 16.175781 14.472656 15.890625 14.53125 15.53125 14.605469 C 15.28125 14.65625 15 14.710938 14.699219 14.710938 C 14.398438 14.710938 14.117188 14.65625 13.867188 14.605469 C 13.507812 14.53125 13.222656 14.472656 13.039062 14.625 C 12.933594 14.710938 12.878906 14.851562 12.878906 15.050781 Z M 17.777344 11.964844 C 17.578125 11.949219 17.410156 11.980469 17.261719 12.046875 C 17.167969 12.089844 17.082031 12.144531 17.003906 12.207031 C 16.855469 12.328125 16.726562 12.484375 16.601562 12.652344 C 16.554688 12.71875 16.390625 12.699219 16.410156 12.601562 C 16.457031 12.347656 16.625 12.148438 16.839844 12.007812 C 16.773438 11.855469 16.730469 11.628906 16.730469 11.378906 C 16.730469 10.914062 16.878906 10.539062 17.058594 10.539062 C 17.242188 10.539062 17.390625 10.914062 17.390625 11.378906 C 17.390625 11.535156 17.375 11.683594 17.34375 11.808594 C 17.503906 11.777344 17.664062 11.773438 17.808594 11.792969 C 17.941406 11.816406 17.90625 11.972656 17.777344 11.964844 Z M 16.101562 9.40625 C 16.351562 8.65625 17.878906 8.65625 18.082031 9.4375 C 18.128906 9.625 17.871094 9.796875 17.703125 9.714844 C 17.488281 9.605469 17.296875 9.421875 17.054688 9.382812 C 16.789062 9.34375 16.601562 9.476562 16.375 9.578125 C 16.25 9.632812 16.046875 9.574219 16.101562 9.40625 Z M 15.015625 27.589844 C 15.050781 27.390625 15.03125 27.175781 15.03125 26.980469 C 15.023438 26.714844 15.023438 26.414062 14.910156 26.167969 C 14.894531 26.128906 14.824219 26.132812 14.816406 26.171875 C 14.753906 26.449219 14.789062 26.746094 14.777344 27.027344 C 14.769531 27.207031 14.726562 27.402344 14.726562 27.589844 C 10.910156 27.550781 7.390625 26.207031 5.496094 24.058594 C 5.65625 23.390625 5.914062 22.996094 6.308594 22.816406 C 6.320312 22.808594 6.335938 22.804688 6.351562 22.796875 C 6.949219 23.441406 7.351562 24.128906 7.433594 25.027344 C 7.441406 25.105469 7.597656 25.097656 7.597656 25.023438 C 7.636719 24.175781 7.261719 23.246094 6.558594 22.734375 C 6.769531 22.6875 6.992188 22.6875 7.226562 22.683594 C 7.289062 22.683594 7.351562 22.683594 7.414062 22.683594 C 8.535156 22.65625 9.660156 22.308594 10.609375 21.695312 C 10.59375 22.011719 10.566406 22.3125 10.488281 22.597656 C 10.457031 22.703125 10.421875 22.804688 10.375 22.902344 C 10.421875 22.988281 10.472656 23.070312 10.527344 23.152344 C 10.785156 23.558594 11.105469 23.929688 11.441406 24.261719 C 11.769531 24.59375 12.148438 24.929688 12.558594 25.1875 C 12.570312 25.230469 12.585938 25.273438 12.605469 25.3125 C 12.632812 25.375 12.746094 25.371094 12.789062 25.320312 C 12.792969 25.3125 12.796875 25.308594 12.800781 25.300781 C 12.839844 25.195312 12.855469 25.078125 12.859375 24.960938 C 12.863281 24.824219 12.851562 24.6875 12.855469 24.554688 C 12.863281 24.300781 12.878906 24.042969 12.902344 23.789062 C 12.921875 23.5625 12.90625 23.242188 12.992188 23.03125 C 13 22.933594 13.011719 22.921875 13.03125 22.992188 C 13.09375 23.054688 13.148438 23.121094 13.203125 23.1875 C 13.292969 23.296875 13.371094 23.40625 13.46875 23.507812 C 13.515625 23.550781 13.664062 23.527344 13.636719 23.445312 C 13.566406 23.210938 13.359375 22.820312 13.113281 22.722656 C 12.910156 22.644531 12.753906 22.796875 12.703125 22.980469 C 12.601562 23.347656 12.59375 23.773438 12.570312 24.152344 C 12.558594 24.324219 12.53125 24.523438 12.523438 24.726562 C 12.265625 24.546875 12.015625 24.359375 11.785156 24.140625 C 11.363281 23.753906 11.015625 23.320312 10.683594 22.867188 C 10.839844 22.449219 10.863281 21.988281 10.890625 21.546875 L 10.894531 21.445312 L 10.894531 21.4375 C 10.894531 21.433594 10.894531 21.429688 10.894531 21.429688 C 10.921875 20.90625 10.96875 20.445312 11.207031 20.046875 C 11.464844 19.621094 11.90625 19.351562 12.390625 19.105469 C 12.414062 19.546875 12.402344 19.988281 12.355469 20.417969 C 12.09375 20.367188 11.828125 20.351562 11.566406 20.382812 C 11.507812 20.390625 11.496094 20.460938 11.558594 20.472656 C 11.824219 20.511719 12.082031 20.566406 12.328125 20.640625 C 12.414062 20.667969 12.5 20.695312 12.585938 20.730469 C 12.941406 20.863281 13.269531 21.054688 13.5625 21.324219 C 13.925781 21.65625 14.175781 22.0625 14.355469 22.503906 C 14.253906 22.871094 14.226562 23.253906 14.246094 23.636719 C 14.28125 24.285156 14.390625 25.023438 14.695312 25.605469 C 14.738281 25.683594 14.882812 25.648438 14.878906 25.554688 C 14.847656 24.960938 14.632812 24.382812 14.582031 23.789062 C 14.5625 23.570312 14.558594 23.34375 14.574219 23.125 C 14.589844 22.898438 14.628906 22.675781 14.695312 22.460938 C 14.738281 22.320312 14.792969 22.1875 14.855469 22.054688 C 15.292969 21.195312 16.234375 20.695312 17.152344 20.417969 C 17.242188 20.390625 17.328125 20.367188 17.414062 20.34375 C 17.484375 20.324219 17.554688 20.308594 17.621094 20.292969 C 17.71875 20.269531 17.710938 20.148438 17.605469 20.164062 C 17.535156 20.171875 17.46875 20.183594 17.402344 20.191406 C 17.371094 19.832031 17.367188 19.46875 17.386719 19.105469 C 17.871094 19.351562 18.3125 19.621094 18.570312 20.046875 C 18.8125 20.445312 18.855469 20.910156 18.882812 21.4375 L 18.890625 21.546875 C 18.914062 22.003906 18.9375 22.480469 19.113281 22.910156 C 18.90625 23.1875 18.6875 23.457031 18.425781 23.703125 C 17.96875 24.140625 17.457031 24.5 16.90625 24.804688 C 16.800781 24.566406 16.679688 24.332031 16.578125 24.097656 C 16.449219 23.8125 16.339844 23.390625 16.101562 23.175781 C 15.613281 22.738281 15.121094 23.683594 15.058594 24.054688 C 15.046875 24.113281 15.136719 24.128906 15.171875 24.09375 C 15.34375 23.910156 15.457031 23.675781 15.601562 23.472656 C 15.625 23.441406 15.667969 23.351562 15.703125 23.335938 C 15.78125 23.300781 15.902344 23.394531 15.945312 23.449219 C 16.03125 23.570312 16.078125 23.761719 16.132812 23.894531 C 16.28125 24.246094 16.417969 24.621094 16.578125 24.976562 C 16.609375 25.039062 16.640625 25.105469 16.671875 25.167969 C 16.78125 25.125 16.894531 25.078125 17.003906 25.03125 C 17.597656 24.761719 18.148438 24.386719 18.625 23.953125 C 18.882812 23.714844 19.148438 23.449219 19.378906 23.164062 C 19.40625 23.132812 19.429688 23.097656 19.453125 23.066406 C 19.460938 23.039062 19.457031 23.007812 19.441406 22.976562 C 19.386719 22.871094 19.339844 22.757812 19.304688 22.644531 C 19.214844 22.347656 19.1875 22.027344 19.167969 21.691406 C 19.351562 21.8125 19.542969 21.921875 19.738281 22.019531 C 19.824219 22.0625 19.910156 22.105469 19.996094 22.144531 C 20.742188 22.476562 21.554688 22.664062 22.363281 22.683594 C 22.425781 22.683594 22.488281 22.683594 22.550781 22.683594 C 22.785156 22.6875 23.011719 22.6875 23.222656 22.734375 C 22.640625 23.34375 22.234375 24.226562 22.242188 25.027344 C 22.242188 25.113281 22.390625 25.085938 22.40625 25.023438 C 22.550781 24.535156 22.679688 24.0625 22.925781 23.613281 C 23.082031 23.328125 23.273438 23.070312 23.480469 22.820312 C 23.867188 23.003906 24.121094 23.398438 24.28125 24.058594 C 22.378906 26.214844 18.847656 27.558594 15.015625 27.589844 Z M 17.132812 20.242188 C 16.726562 20.320312 16.335938 20.441406 15.949219 20.640625 C 15.433594 20.914062 14.960938 21.292969 14.65625 21.796875 C 14.605469 21.878906 14.558594 21.964844 14.519531 22.054688 C 14.132812 21.320312 13.417969 20.726562 12.617188 20.484375 C 12.679688 19.960938 12.691406 19.429688 12.648438 18.894531 C 12.648438 18.890625 12.648438 18.886719 12.644531 18.882812 C 12.644531 18.882812 12.644531 18.882812 12.644531 18.878906 C 12.621094 18.605469 12.585938 18.332031 12.535156 18.0625 C 13.21875 18.445312 13.984375 18.710938 14.761719 18.832031 C 14.761719 18.832031 14.765625 18.832031 14.765625 18.832031 C 14.773438 18.835938 14.777344 18.835938 14.785156 18.835938 C 14.792969 18.835938 14.796875 18.835938 14.804688 18.832031 C 14.808594 18.832031 14.808594 18.832031 14.808594 18.832031 C 15.683594 18.695312 16.523438 18.382812 17.269531 17.921875 C 17.207031 18.234375 17.160156 18.558594 17.132812 18.878906 C 17.132812 18.882812 17.132812 18.890625 17.132812 18.894531 C 17.09375 19.347656 17.097656 19.796875 17.132812 20.242188 Z M 11.605469 17.066406 L 11.597656 17.058594 C 11.59375 17.058594 11.589844 17.054688 11.585938 17.050781 C 11.582031 17.046875 11.578125 17.042969 11.574219 17.039062 C 10.804688 16.34375 10.222656 15.453125 9.882812 14.453125 C 9.867188 14.40625 9.855469 14.363281 9.839844 14.316406 C 9.835938 14.300781 9.828125 14.28125 9.824219 14.261719 C 9.664062 13.746094 9.574219 13.21875 9.558594 12.691406 C 9.558594 12.617188 9.496094 12.558594 9.421875 12.558594 C 9.34375 12.5625 9.285156 12.625 9.289062 12.699219 C 9.308594 13.269531 9.40625 13.84375 9.582031 14.398438 C 9.582031 14.398438 9.582031 14.398438 9.582031 14.402344 C 9.289062 14.523438 8.949219 14.46875 8.679688 14.273438 C 8.445312 14.101562 8.277344 13.851562 8.148438 13.585938 C 8.09375 13.46875 8.042969 13.34375 8 13.226562 C 7.765625 12.570312 7.710938 11.871094 7.8125 11.1875 C 7.886719 11.148438 7.953125 11.09375 8.015625 11.035156 C 8.007812 11.40625 8.070312 11.875 8.363281 12.066406 C 8.4375 12.113281 8.519531 12.144531 8.609375 12.15625 C 8.605469 12.160156 8.601562 12.164062 8.597656 12.167969 C 8.585938 12.179688 8.582031 12.195312 8.582031 12.214844 C 8.589844 12.335938 8.601562 12.460938 8.613281 12.585938 C 8.398438 12.585938 8.199219 12.792969 8.183594 13.019531 C 8.171875 13.183594 8.214844 13.367188 8.296875 13.53125 C 8.417969 13.78125 8.625 13.992188 8.859375 14.074219 C 8.957031 14.109375 9.066406 14.003906 8.996094 13.917969 C 8.882812 13.78125 8.742188 13.679688 8.644531 13.53125 C 8.59375 13.449219 8.550781 13.363281 8.519531 13.273438 C 8.5 13.222656 8.484375 13.167969 8.476562 13.113281 C 8.429688 12.964844 8.496094 12.875 8.675781 12.84375 C 8.746094 12.886719 8.902344 12.828125 8.875 12.730469 C 8.828125 12.550781 8.789062 12.371094 8.742188 12.191406 C 8.742188 12.183594 8.738281 12.175781 8.734375 12.167969 C 9.027344 12.171875 9.347656 12.027344 9.542969 11.851562 C 9.675781 11.734375 9.488281 11.625 9.371094 11.699219 C 9.363281 11.703125 9.355469 11.710938 9.347656 11.714844 L 9.339844 11.703125 C 9.347656 11.695312 9.355469 11.691406 9.355469 11.683594 C 9.445312 11.382812 9.457031 11.066406 9.511719 10.757812 C 9.566406 10.433594 9.636719 10.109375 9.726562 9.789062 C 9.894531 9.195312 10.140625 8.617188 10.441406 8.078125 C 10.726562 7.566406 11.078125 7.011719 11.582031 6.6875 C 12.167969 6.3125 12.675781 6.558594 13.238281 6.824219 C 13.699219 7.039062 14.148438 7.121094 14.644531 6.984375 C 15.140625 6.847656 15.570312 6.558594 16.046875 6.382812 C 16.59375 6.183594 17.109375 6.242188 17.574219 6.59375 C 18.015625 6.933594 18.332031 7.410156 18.613281 7.886719 C 19.132812 8.777344 19.480469 9.726562 19.710938 10.714844 C 19.753906 10.898438 19.792969 11.085938 19.828125 11.277344 C 19.871094 11.5 19.90625 11.722656 19.941406 11.949219 C 19.960938 12.082031 20.226562 12.042969 20.21875 11.917969 C 20.210938 11.738281 20.199219 11.558594 20.179688 11.378906 C 20.292969 11.382812 20.398438 11.355469 20.492188 11.308594 C 20.367188 11.605469 20.40625 11.960938 20.683594 12.15625 C 20.777344 12.222656 20.886719 12.242188 20.949219 12.34375 C 21.023438 12.464844 21.011719 12.621094 20.960938 12.746094 C 20.882812 12.945312 20.703125 13.074219 20.597656 13.257812 C 20.546875 13.34375 20.683594 13.402344 20.75 13.367188 C 21.101562 13.183594 21.414062 12.75 21.277344 12.339844 C 21.214844 12.148438 21.078125 12.074219 20.910156 11.984375 C 20.570312 11.8125 20.691406 11.496094 20.675781 11.195312 C 20.796875 11.097656 20.898438 10.976562 20.992188 10.855469 C 21.125 10.945312 21.285156 10.984375 21.445312 10.964844 C 21.550781 11.570312 21.65625 12.175781 21.515625 12.789062 C 21.355469 13.492188 20.859375 14.121094 20.09375 14.195312 C 20.078125 14.195312 20.058594 14.199219 20.042969 14.207031 C 20.183594 13.710938 20.265625 13.203125 20.28125 12.699219 C 20.28125 12.625 20.222656 12.5625 20.148438 12.558594 C 20.074219 12.558594 20.011719 12.617188 20.007812 12.691406 C 19.992188 13.214844 19.90625 13.742188 19.75 14.253906 C 19.535156 14.964844 19.199219 15.621094 18.753906 16.210938 C 18.75 16.210938 18.75 16.214844 18.75 16.214844 C 18.515625 16.523438 18.253906 16.808594 17.964844 17.066406 C 17.789062 17.226562 17.597656 17.378906 17.398438 17.515625 C 17.394531 17.515625 17.394531 17.519531 17.390625 17.519531 C 16.621094 18.054688 15.722656 18.414062 14.785156 18.566406 C 13.949219 18.433594 13.128906 18.125 12.414062 17.675781 C 12.128906 17.496094 11.855469 17.289062 11.605469 17.066406 Z M 23.65625 22.609375 C 23.632812 22.597656 23.609375 22.585938 23.585938 22.574219 C 23.539062 22.550781 23.492188 22.535156 23.449219 22.519531 C 23.160156 22.421875 22.851562 22.417969 22.554688 22.414062 C 22.492188 22.414062 22.429688 22.414062 22.371094 22.414062 C 21.585938 22.394531 20.800781 22.214844 20.082031 21.886719 C 20.023438 21.859375 19.960938 21.832031 19.902344 21.800781 C 19.640625 21.671875 19.386719 21.523438 19.148438 21.355469 C 19.121094 20.839844 19.0625 20.339844 18.800781 19.910156 C 18.492188 19.394531 17.949219 19.082031 17.410156 18.816406 C 17.445312 18.441406 17.507812 18.070312 17.59375 17.707031 C 17.789062 17.570312 17.972656 17.421875 18.148438 17.265625 C 18.398438 17.042969 18.632812 16.796875 18.84375 16.53125 C 19.183594 17.070312 19.605469 17.328125 20.0625 17.285156 C 20.378906 17.253906 20.640625 17.078125 20.890625 16.90625 C 21.128906 16.746094 21.351562 16.597656 21.605469 16.578125 C 21.691406 16.570312 21.78125 16.578125 21.875 16.589844 C 22.027344 16.605469 22.183594 16.621094 22.34375 16.578125 C 22.5 16.535156 22.648438 16.4375 22.792969 16.28125 C 22.902344 16.164062 23 16.035156 23.078125 15.890625 C 23.351562 15.398438 23.425781 14.808594 23.5 14.242188 C 23.570312 13.65625 23.644531 13.054688 23.9375 12.570312 C 24.023438 12.433594 24.121094 12.308594 24.226562 12.171875 C 24.34375 12.027344 24.460938 11.875 24.558594 11.707031 C 25 10.945312 24.859375 9.898438 24.238281 9.277344 C 24.101562 9.140625 23.949219 9.027344 23.804688 8.914062 C 23.539062 8.714844 23.289062 8.523438 23.164062 8.25 C 23.039062 7.96875 23.066406 7.648438 23.09375 7.308594 C 23.109375 7.132812 23.125 6.949219 23.117188 6.765625 C 23.078125 5.855469 22.410156 5.023438 21.523438 4.789062 C 21.457031 4.769531 21.382812 4.753906 21.316406 4.738281 C 21.085938 4.6875 20.867188 4.640625 20.730469 4.492188 C 20.613281 4.363281 20.574219 4.175781 20.535156 3.976562 C 20.523438 3.921875 20.515625 3.871094 20.503906 3.824219 C 20.25 2.734375 19.214844 1.902344 18.089844 1.886719 C 17.804688 1.886719 17.523438 1.929688 17.25 1.972656 C 16.863281 2.035156 16.496094 2.089844 16.136719 2.019531 C 15.785156 1.949219 15.476562 1.761719 15.148438 1.5625 C 14.882812 1.402344 14.609375 1.238281 14.304688 1.132812 C 13.625 0.90625 12.847656 1.03125 12.273438 1.460938 C 12.0625 1.617188 11.882812 1.8125 11.707031 2 C 11.453125 2.277344 11.210938 2.535156 10.894531 2.675781 C 10.664062 2.777344 10.414062 2.808594 10.144531 2.839844 C 10.011719 2.855469 9.875 2.875 9.738281 2.902344 C 9.027344 3.039062 8.375 3.449219 7.945312 4.027344 C 7.476562 4.65625 7.296875 5.421875 7.121094 6.164062 C 7.003906 6.65625 6.886719 7.164062 6.679688 7.625 C 6.585938 7.839844 6.464844 8.066406 6.347656 8.28125 C 5.972656 8.984375 5.582031 9.710938 5.824219 10.476562 C 5.910156 10.746094 6.070312 10.988281 6.226562 11.21875 C 6.4375 11.542969 6.640625 11.84375 6.625 12.1875 C 6.621094 12.28125 6.597656 12.375 6.574219 12.476562 C 6.546875 12.613281 6.511719 12.757812 6.523438 12.910156 C 6.550781 13.324219 6.847656 13.597656 7.140625 13.867188 C 7.363281 14.070312 7.574219 14.265625 7.664062 14.511719 C 7.730469 14.699219 7.722656 14.910156 7.714844 15.128906 L 7.714844 15.175781 C 7.710938 15.277344 7.710938 15.371094 7.714844 15.472656 C 7.734375 15.863281 7.945312 16.304688 8.363281 16.355469 C 8.53125 16.375 8.691406 16.320312 8.835938 16.273438 C 8.972656 16.226562 9.097656 16.179688 9.210938 16.210938 C 9.386719 16.253906 9.460938 16.429688 9.5625 16.71875 C 9.621094 16.878906 9.679688 17.050781 9.78125 17.191406 C 9.980469 17.472656 10.3125 17.582031 10.628906 17.582031 C 10.753906 17.582031 10.878906 17.5625 10.988281 17.53125 C 11.148438 17.484375 11.308594 17.414062 11.472656 17.308594 C 11.707031 17.515625 11.960938 17.703125 12.222656 17.871094 C 12.289062 18.183594 12.339844 18.5 12.367188 18.816406 C 11.828125 19.082031 11.285156 19.394531 10.976562 19.910156 C 10.714844 20.339844 10.660156 20.839844 10.628906 21.355469 C 9.6875 22.015625 8.546875 22.390625 7.410156 22.414062 C 7.347656 22.414062 7.285156 22.414062 7.226562 22.414062 C 6.878906 22.417969 6.523438 22.421875 6.195312 22.574219 C 5.554688 22.867188 5.332031 23.566406 5.21875 24.066406 C 5.21875 24.066406 5.21875 24.070312 5.21875 24.070312 C 5.214844 24.078125 5.214844 24.085938 5.214844 24.09375 C 5.214844 24.117188 5.222656 24.140625 5.234375 24.160156 C 5.234375 24.164062 5.238281 24.167969 5.242188 24.171875 C 5.242188 24.175781 5.242188 24.175781 5.246094 24.179688 C 5.246094 24.179688 5.246094 24.179688 5.246094 24.183594 C 7.195312 26.433594 10.851562 27.835938 14.804688 27.855469 C 14.832031 27.867188 14.863281 27.867188 14.894531 27.859375 C 18.878906 27.855469 22.570312 26.449219 24.53125 24.183594 C 24.53125 24.179688 24.53125 24.179688 24.535156 24.175781 C 24.539062 24.171875 24.542969 24.164062 24.546875 24.160156 C 24.550781 24.152344 24.554688 24.148438 24.554688 24.140625 C 24.558594 24.132812 24.558594 24.125 24.5625 24.117188 C 24.5625 24.109375 24.5625 24.101562 24.5625 24.09375 C 24.5625 24.082031 24.5625 24.070312 24.558594 24.0625 C 24.453125 23.582031 24.238281 22.921875 23.65625 22.609375 " fill-opacity="1" fill-rule="nonzero"/></g><g clip-path="url(#id3)"><path fill="#ffffff" d="M 11.585938 9.6875 C 11.777344 9.566406 11.949219 9.394531 12.1875 9.378906 C 12.457031 9.355469 12.652344 9.5 12.894531 9.582031 C 13.011719 9.621094 13.242188 9.5625 13.195312 9.394531 C 12.96875 8.5625 11.441406 8.746094 11.210938 9.488281 C 11.144531 9.707031 11.4375 9.777344 11.585938 9.6875 Z M 13.039062 14.625 C 12.933594 14.710938 12.878906 14.851562 12.878906 15.050781 C 12.878906 15.074219 12.878906 15.101562 12.882812 15.125 C 12.886719 15.179688 12.894531 15.230469 12.902344 15.285156 C 12.9375 15.453125 13.007812 15.609375 13.109375 15.753906 C 13.125 15.777344 13.140625 15.800781 13.160156 15.824219 C 13.480469 16.234375 14.050781 16.503906 14.699219 16.503906 C 15.25 16.503906 15.746094 16.308594 16.078125 16 C 16.144531 15.9375 16.203125 15.871094 16.253906 15.804688 C 16.367188 15.660156 16.445312 15.5 16.484375 15.328125 C 16.5 15.269531 16.511719 15.207031 16.515625 15.144531 C 16.519531 15.113281 16.519531 15.082031 16.519531 15.050781 C 16.519531 14.851562 16.46875 14.710938 16.359375 14.625 C 16.175781 14.472656 15.890625 14.53125 15.53125 14.605469 C 15.28125 14.65625 15 14.710938 14.699219 14.710938 C 14.398438 14.710938 14.117188 14.65625 13.867188 14.605469 C 13.507812 14.53125 13.222656 14.472656 13.039062 14.625 Z M 13.628906 12.992188 C 13.609375 13.625 14.429688 13.785156 14.90625 13.65625 C 15.003906 13.628906 15.066406 13.488281 14.929688 13.457031 C 14.703125 13.410156 14.4375 13.4375 14.226562 13.328125 C 13.964844 13.191406 13.882812 12.882812 14.125 12.695312 C 14.363281 12.511719 14.710938 12.429688 14.78125 12.101562 C 14.792969 12.054688 14.714844 12.042969 14.695312 12.078125 C 14.433594 12.480469 13.648438 12.382812 13.628906 12.992188 Z M 16.375 9.578125 C 16.601562 9.476562 16.789062 9.34375 17.054688 9.382812 C 17.296875 9.421875 17.488281 9.605469 17.703125 9.714844 C 17.871094 9.796875 18.128906 9.625 18.082031 9.4375 C 17.878906 8.65625 16.351562 8.65625 16.101562 9.40625 C 16.046875 9.574219 16.25 9.632812 16.375 9.578125 Z M 17.808594 11.792969 C 17.664062 11.773438 17.503906 11.777344 17.34375 11.808594 C 17.375 11.683594 17.390625 11.535156 17.390625 11.378906 C 17.390625 10.914062 17.242188 10.539062 17.058594 10.539062 C 16.878906 10.539062 16.730469 10.914062 16.730469 11.378906 C 16.730469 11.628906 16.773438 11.855469 16.839844 12.007812 C 16.625 12.148438 16.457031 12.347656 16.410156 12.601562 C 16.390625 12.699219 16.554688 12.71875 16.601562 12.652344 C 16.726562 12.484375 16.855469 12.328125 17.003906 12.207031 C 17.082031 12.144531 17.167969 12.089844 17.261719 12.046875 C 17.410156 11.980469 17.578125 11.949219 17.777344 11.964844 C 17.90625 11.972656 17.941406 11.816406 17.808594 11.792969 Z M 12.75 12.585938 C 12.703125 12.332031 12.539062 12.132812 12.320312 12 C 12.386719 11.84375 12.429688 11.625 12.429688 11.378906 C 12.429688 10.914062 12.28125 10.539062 12.097656 10.539062 C 11.917969 10.539062 11.769531 10.914062 11.769531 11.378906 C 11.769531 11.535156 11.785156 11.683594 11.816406 11.808594 C 11.65625 11.777344 11.496094 11.773438 11.351562 11.796875 C 11.21875 11.816406 11.25 11.972656 11.378906 11.960938 C 11.582031 11.945312 11.753906 11.984375 11.902344 12.058594 C 11.988281 12.097656 12.070312 12.152344 12.144531 12.210938 C 12.296875 12.335938 12.429688 12.496094 12.558594 12.664062 C 12.609375 12.730469 12.765625 12.675781 12.75 12.585938 Z M 8 13.226562 C 7.765625 12.570312 7.710938 11.871094 7.8125 11.1875 C 7.886719 11.148438 7.953125 11.09375 8.015625 11.035156 C 8.007812 11.40625 8.070312 11.875 8.363281 12.066406 C 8.4375 12.113281 8.519531 12.144531 8.609375 12.15625 C 8.605469 12.160156 8.601562 12.164062 8.597656 12.167969 C 8.585938 12.179688 8.582031 12.195312 8.582031 12.214844 C 8.589844 12.335938 8.601562 12.460938 8.613281 12.585938 C 8.398438 12.585938 8.199219 12.792969 8.183594 13.019531 C 8.171875 13.183594 8.214844 13.367188 8.296875 13.53125 C 8.417969 13.78125 8.625 13.992188 8.859375 14.074219 C 8.957031 14.109375 9.066406 14.003906 8.996094 13.917969 C 8.882812 13.78125 8.742188 13.679688 8.644531 13.53125 C 8.59375 13.449219 8.550781 13.363281 8.519531 13.273438 C 8.5 13.222656 8.484375 13.167969 8.476562 13.113281 C 8.429688 12.964844 8.496094 12.875 8.675781 12.84375 C 8.746094 12.886719 8.902344 12.828125 8.875 12.730469 C 8.828125 12.550781 8.789062 12.371094 8.742188 12.191406 C 8.742188 12.183594 8.738281 12.175781 8.734375 12.167969 C 9.027344 12.171875 9.347656 12.027344 9.542969 11.851562 C 9.675781 11.734375 9.488281 11.625 9.371094 11.699219 C 9.363281 11.703125 9.355469 11.710938 9.347656 11.714844 L 9.339844 11.703125 C 9.347656 11.695312 9.355469 11.691406 9.355469 11.683594 C 9.445312 11.382812 9.457031 11.066406 9.511719 10.757812 C 9.566406 10.433594 9.636719 10.109375 9.726562 9.789062 C 9.894531 9.195312 10.140625 8.617188 10.441406 8.078125 C 10.726562 7.566406 11.078125 7.011719 11.582031 6.6875 C 12.167969 6.3125 12.675781 6.558594 13.238281 6.824219 C 13.699219 7.039062 14.148438 7.121094 14.644531 6.984375 C 15.140625 6.847656 15.570312 6.558594 16.046875 6.382812 C 16.59375 6.183594 17.109375 6.242188 17.574219 6.59375 C 18.015625 6.933594 18.332031 7.410156 18.613281 7.886719 C 19.132812 8.777344 19.480469 9.726562 19.710938 10.714844 C 19.753906 10.898438 19.792969 11.085938 19.828125 11.277344 C 19.871094 11.5 19.90625 11.722656 19.941406 11.949219 C 19.960938 12.082031 20.226562 12.042969 20.21875 11.917969 C 20.210938 11.738281 20.199219 11.558594 20.179688 11.378906 C 20.292969 11.382812 20.398438 11.355469 20.492188 11.308594 C 20.367188 11.605469 20.40625 11.960938 20.683594 12.15625 C 20.777344 12.222656 20.886719 12.242188 20.949219 12.34375 C 21.023438 12.464844 21.011719 12.621094 20.960938 12.746094 C 20.882812 12.945312 20.703125 13.074219 20.597656 13.257812 C 20.546875 13.34375 20.683594 13.402344 20.75 13.367188 C 21.101562 13.183594 21.414062 12.75 21.277344 12.339844 C 21.214844 12.148438 21.078125 12.074219 20.910156 11.984375 C 20.570312 11.8125 20.691406 11.496094 20.675781 11.195312 C 20.796875 11.097656 20.898438 10.976562 20.992188 10.855469 C 21.125 10.945312 21.285156 10.984375 21.445312 10.964844 C 21.550781 11.570312 21.65625 12.175781 21.515625 12.789062 C 21.355469 13.492188 20.859375 14.121094 20.09375 14.195312 C 20.078125 14.195312 20.058594 14.199219 20.042969 14.207031 C 20.183594 13.710938 20.265625 13.203125 20.28125 12.699219 C 20.28125 12.625 20.222656 12.5625 20.148438 12.558594 C 20.074219 12.558594 20.011719 12.617188 20.007812 12.691406 C 19.992188 13.214844 19.90625 13.742188 19.75 14.253906 C 19.535156 14.964844 19.199219 15.621094 18.753906 16.210938 C 18.75 16.210938 18.75 16.214844 18.75 16.214844 C 18.515625 16.523438 18.253906 16.808594 17.964844 17.066406 C 17.789062 17.226562 17.597656 17.378906 17.398438 17.515625 C 17.394531 17.515625 17.394531 17.519531 17.390625 17.519531 C 16.621094 18.054688 15.722656 18.414062 14.785156 18.566406 C 13.949219 18.433594 13.128906 18.125 12.414062 17.675781 C 12.128906 17.496094 11.855469 17.289062 11.605469 17.066406 L 11.597656 17.058594 C 11.59375 17.058594 11.589844 17.054688 11.585938 17.050781 C 11.582031 17.046875 11.578125 17.042969 11.574219 17.039062 C 10.804688 16.34375 10.222656 15.453125 9.882812 14.453125 C 9.867188 14.40625 9.855469 14.363281 9.839844 14.316406 C 9.835938 14.300781 9.828125 14.28125 9.824219 14.261719 C 9.664062 13.746094 9.574219 13.21875 9.558594 12.691406 C 9.558594 12.617188 9.496094 12.558594 9.421875 12.558594 C 9.34375 12.5625 9.285156 12.625 9.289062 12.699219 C 9.308594 13.269531 9.40625 13.84375 9.582031 14.398438 C 9.582031 14.398438 9.582031 14.398438 9.582031 14.402344 C 9.289062 14.523438 8.949219 14.46875 8.679688 14.273438 C 8.445312 14.101562 8.277344 13.851562 8.148438 13.585938 C 8.09375 13.46875 8.042969 13.34375 8 13.226562 Z M 14.699219 15.101562 C 15.21875 15.09375 15.734375 15.101562 16.246094 15.125 C 16.25 15.101562 16.25 15.078125 16.25 15.050781 C 16.25 14.972656 16.238281 14.871094 16.191406 14.832031 C 16.101562 14.761719 15.851562 14.8125 15.585938 14.867188 C 15.335938 14.917969 15.027344 14.980469 14.699219 14.980469 C 14.371094 14.980469 14.0625 14.917969 13.8125 14.867188 C 13.640625 14.832031 13.472656 14.796875 13.355469 14.796875 C 13.289062 14.796875 13.238281 14.808594 13.210938 14.832031 C 13.160156 14.871094 13.148438 14.972656 13.148438 15.050781 C 13.148438 15.074219 13.152344 15.097656 13.152344 15.121094 C 13.667969 15.117188 14.183594 15.105469 14.699219 15.101562 Z M 13.183594 15.292969 C 13.226562 15.460938 13.320312 15.613281 13.445312 15.746094 C 14.269531 15.726562 15.101562 15.726562 15.921875 15.78125 C 16.050781 15.652344 16.148438 15.503906 16.203125 15.339844 C 15.199219 15.371094 14.1875 15.320312 13.183594 15.292969 Z M 23.480469 22.820312 C 23.273438 23.070312 23.082031 23.328125 22.925781 23.613281 C 22.679688 24.0625 22.550781 24.535156 22.40625 25.023438 C 22.390625 25.085938 22.242188 25.113281 22.242188 25.027344 C 22.234375 24.226562 22.640625 23.34375 23.222656 22.734375 C 23.011719 22.6875 22.785156 22.6875 22.550781 22.683594 C 22.488281 22.683594 22.425781 22.683594 22.363281 22.683594 C 21.554688 22.664062 20.742188 22.476562 19.996094 22.144531 C 19.910156 22.105469 19.824219 22.0625 19.738281 22.019531 C 19.542969 21.921875 19.351562 21.8125 19.167969 21.691406 C 19.1875 22.027344 19.214844 22.347656 19.304688 22.644531 C 19.339844 22.757812 19.386719 22.871094 19.441406 22.976562 C 19.457031 23.007812 19.460938 23.039062 19.453125 23.066406 C 19.429688 23.097656 19.40625 23.132812 19.378906 23.164062 C 19.148438 23.449219 18.882812 23.714844 18.625 23.953125 C 18.148438 24.386719 17.597656 24.761719 17.003906 25.03125 C 16.894531 25.078125 16.78125 25.125 16.671875 25.167969 C 16.640625 25.105469 16.609375 25.039062 16.578125 24.976562 C 16.417969 24.621094 16.28125 24.246094 16.132812 23.894531 C 16.078125 23.761719 16.03125 23.570312 15.945312 23.449219 C 15.902344 23.394531 15.78125 23.300781 15.703125 23.335938 C 15.667969 23.351562 15.625 23.441406 15.601562 23.472656 C 15.457031 23.675781 15.34375 23.910156 15.171875 24.09375 C 15.136719 24.128906 15.046875 24.113281 15.058594 24.054688 C 15.121094 23.683594 15.613281 22.738281 16.101562 23.175781 C 16.339844 23.390625 16.449219 23.8125 16.578125 24.097656 C 16.679688 24.332031 16.800781 24.566406 16.90625 24.804688 C 17.457031 24.5 17.96875 24.140625 18.425781 23.703125 C 18.6875 23.457031 18.90625 23.1875 19.113281 22.910156 C 18.9375 22.480469 18.914062 22.003906 18.890625 21.546875 L 18.882812 21.4375 C 18.855469 20.910156 18.8125 20.445312 18.570312 20.046875 C 18.3125 19.621094 17.871094 19.351562 17.386719 19.105469 C 17.367188 19.46875 17.371094 19.832031 17.402344 20.191406 C 17.46875 20.183594 17.539062 20.171875 17.605469 20.164062 C 17.710938 20.148438 17.71875 20.269531 17.621094 20.292969 C 17.554688 20.308594 17.484375 20.324219 17.414062 20.34375 C 17.328125 20.367188 17.242188 20.390625 17.152344 20.417969 C 16.234375 20.695312 15.292969 21.195312 14.855469 22.054688 C 14.792969 22.1875 14.738281 22.320312 14.695312 22.460938 C 14.628906 22.675781 14.589844 22.898438 14.574219 23.125 C 14.558594 23.34375 14.5625 23.570312 14.582031 23.789062 C 14.632812 24.382812 14.847656 24.960938 14.878906 25.554688 C 14.882812 25.648438 14.738281 25.683594 14.695312 25.605469 C 14.390625 25.023438 14.28125 24.285156 14.246094 23.636719 C 14.226562 23.253906 14.253906 22.871094 14.355469 22.503906 C 14.175781 22.0625 13.925781 21.65625 13.5625 21.324219 C 13.269531 21.054688 12.941406 20.863281 12.585938 20.730469 C 12.5 20.695312 12.414062 20.667969 12.328125 20.640625 C 12.082031 20.566406 11.824219 20.511719 11.558594 20.472656 C 11.496094 20.460938 11.507812 20.390625 11.566406 20.382812 C 11.828125 20.351562 12.09375 20.367188 12.355469 20.417969 C 12.402344 19.988281 12.414062 19.546875 12.390625 19.105469 C 11.90625 19.351562 11.464844 19.621094 11.207031 20.046875 C 10.96875 20.445312 10.921875 20.90625 10.894531 21.429688 C 10.894531 21.429688 10.894531 21.433594 10.894531 21.4375 L 10.894531 21.445312 L 10.890625 21.546875 C 10.867188 21.988281 10.839844 22.449219 10.683594 22.867188 C 11.015625 23.320312 11.363281 23.753906 11.785156 24.140625 C 12.015625 24.359375 12.265625 24.546875 12.523438 24.726562 C 12.53125 24.523438 12.558594 24.324219 12.570312 24.152344 C 12.59375 23.773438 12.601562 23.347656 12.703125 22.980469 C 12.753906 22.796875 12.910156 22.644531 13.113281 22.722656 C 13.359375 22.820312 13.566406 23.210938 13.636719 23.445312 C 13.664062 23.527344 13.515625 23.550781 13.46875 23.507812 C 13.371094 23.40625 13.292969 23.296875 13.203125 23.1875 C 13.148438 23.121094 13.09375 23.054688 13.03125 22.992188 C 13.011719 22.921875 13 22.933594 12.992188 23.03125 C 12.90625 23.242188 12.921875 23.5625 12.902344 23.789062 C 12.878906 24.042969 12.863281 24.300781 12.855469 24.554688 C 12.851562 24.6875 12.863281 24.824219 12.859375 24.960938 C 12.855469 25.078125 12.839844 25.195312 12.800781 25.300781 C 12.796875 25.308594 12.792969 25.3125 12.789062 25.320312 C 12.746094 25.371094 12.632812 25.375 12.605469 25.3125 C 12.585938 25.273438 12.570312 25.230469 12.558594 25.1875 C 12.148438 24.929688 11.769531 24.59375 11.441406 24.261719 C 11.105469 23.929688 10.785156 23.558594 10.527344 23.152344 C 10.472656 23.070312 10.421875 22.988281 10.375 22.902344 C 10.421875 22.804688 10.457031 22.703125 10.488281 22.597656 C 10.566406 22.3125 10.59375 22.011719 10.609375 21.695312 C 9.660156 22.308594 8.535156 22.65625 7.414062 22.683594 C 7.351562 22.683594 7.289062 22.683594 7.226562 22.683594 C 6.992188 22.6875 6.769531 22.6875 6.558594 22.734375 C 7.261719 23.246094 7.636719 24.175781 7.597656 25.023438 C 7.597656 25.097656 7.441406 25.105469 7.433594 25.027344 C 7.351562 24.128906 6.949219 23.441406 6.351562 22.796875 C 6.335938 22.804688 6.320312 22.808594 6.308594 22.816406 C 5.914062 22.996094 5.65625 23.390625 5.496094 24.058594 C 7.390625 26.207031 10.910156 27.550781 14.726562 27.589844 C 14.726562 27.402344 14.769531 27.207031 14.777344 27.027344 C 14.789062 26.746094 14.753906 26.449219 14.816406 26.171875 C 14.824219 26.132812 14.894531 26.128906 14.910156 26.167969 C 15.023438 26.414062 15.023438 26.714844 15.03125 26.980469 C 15.03125 27.175781 15.050781 27.390625 15.015625 27.589844 C 18.847656 27.558594 22.378906 26.214844 24.28125 24.058594 C 24.121094 23.398438 23.867188 23.003906 23.480469 22.820312 Z M 17.132812 18.878906 C 17.160156 18.558594 17.207031 18.234375 17.269531 17.921875 C 16.527344 18.382812 15.683594 18.695312 14.808594 18.832031 C 14.808594 18.832031 14.808594 18.832031 14.804688 18.832031 C 14.796875 18.835938 14.792969 18.835938 14.785156 18.835938 C 14.777344 18.835938 14.773438 18.835938 14.765625 18.832031 C 14.765625 18.832031 14.761719 18.832031 14.761719 18.832031 C 13.984375 18.710938 13.21875 18.445312 12.535156 18.0625 C 12.585938 18.332031 12.621094 18.605469 12.644531 18.878906 C 12.644531 18.882812 12.644531 18.882812 12.644531 18.882812 C 12.648438 18.886719 12.648438 18.890625 12.648438 18.894531 C 12.691406 19.429688 12.679688 19.960938 12.617188 20.484375 C 13.417969 20.726562 14.132812 21.320312 14.519531 22.054688 C 14.558594 21.964844 14.605469 21.878906 14.65625 21.796875 C 14.960938 21.292969 15.433594 20.914062 15.949219 20.640625 C 16.335938 20.441406 16.726562 20.320312 17.132812 20.242188 C 17.097656 19.796875 17.09375 19.347656 17.132812 18.894531 C 17.132812 18.890625 17.132812 18.882812 17.132812 18.878906 Z M 13.574219 15.863281 C 14.257812 15.929688 14.949219 15.976562 15.636719 15.992188 C 15.378906 16.144531 15.050781 16.238281 14.699219 16.238281 C 14.257812 16.238281 13.859375 16.09375 13.574219 15.863281 " fill-opacity="1" fill-rule="nonzero"/></g></svg>