<svg xmlns="http://www.w3.org/2000/svg" xmlns:xlink="http://www.w3.org/1999/xlink" width="40" zoomAndPan="magnify" viewBox="0 0 30 30.000001" height="40" preserveAspectRatio="xMidYMid meet" version="1.0"><defs><clipPath id="id1"><path d="M 0.484375 0 L 29.515625 0 L 29.515625 29.03125 L 0.484375 29.03125 Z M 0.484375 0 " clip-rule="nonzero"/></clipPath><clipPath id="id2"><path d="M 6.042969 1 L 24.191406 1 L 24.191406 28.480469 L 6.042969 28.480469 Z M 6.042969 1 " clip-rule="nonzero"/></clipPath><clipPath id="id3"><path d="M 6.042969 1 L 24 1 L 24 28.480469 L 6.042969 28.480469 Z M 6.042969 1 " clip-rule="nonzero"/></clipPath><clipPath id="id4"><path d="M 6.042969 1 L 24.191406 1 L 24.191406 28.480469 L 6.042969 28.480469 Z M 6.042969 1 " clip-rule="nonzero"/></clipPath></defs><g clip-path="url(#id1)"><path fill="#ffffff" d="M 0.484375 0 L 29.515625 0 L 29.515625 36.289062 L 0.484375 36.289062 Z M 0.484375 0 " fill-opacity="1" fill-rule="nonzero"/><path fill="#ffffff" d="M 0.484375 0 L 29.515625 0 L 29.515625 29.03125 L 0.484375 29.03125 Z M 0.484375 0 " fill-opacity="1" fill-rule="nonzero"/><path fill="#ffffff" d="M 0.484375 0 L 29.515625 0 L 29.515625 29.03125 L 0.484375 29.03125 Z M 0.484375 0 " fill-opacity="1" fill-rule="nonzero"/></g><g clip-path="url(#id2)"><path fill="#0f0e0c" d="M 24 13.855469 C 23.933594 13.796875 23.855469 13.78125 23.789062 13.765625 L 23.773438 13.765625 C 23.304688 13.667969 22.890625 13.242188 22.722656 12.675781 C 22.707031 12.628906 22.695312 12.582031 22.683594 12.53125 C 22.886719 12.433594 23.082031 12.3125 23.265625 12.175781 C 23.597656 11.929688 23.980469 11.597656 24.082031 11.175781 C 24.1875 10.722656 23.871094 10.550781 23.476562 10.488281 C 23.21875 10.449219 22.972656 10.371094 22.738281 10.261719 C 23.410156 9.027344 23.503906 7.402344 22.941406 5.964844 C 22.347656 4.457031 21.082031 3.113281 19.375 2.179688 C 18.25 1.570312 16.503906 0.898438 14.582031 1.1875 C 13.046875 1.417969 11.664062 2.300781 10.925781 3.507812 C 10.21875 2.980469 9.101562 3 8.308594 3.578125 C 7.871094 3.898438 7.113281 4.671875 6.945312 6.269531 C 6.867188 7.03125 6.933594 7.800781 6.996094 8.546875 C 7.015625 8.785156 7.035156 9.03125 7.050781 9.273438 C 7.109375 10.121094 7.117188 11.214844 6.6875 12.140625 C 6.570312 12.398438 6.210938 13.175781 6.734375 13.476562 C 6.816406 13.527344 6.910156 13.550781 7.007812 13.550781 C 7.21875 13.550781 7.457031 13.441406 7.699219 13.230469 C 8.007812 12.964844 8.285156 12.667969 8.535156 12.347656 C 8.519531 13.28125 8.511719 14.242188 8.882812 15.117188 C 9.058594 15.527344 9.316406 15.910156 9.523438 16.21875 C 9.949219 16.851562 10.382812 17.476562 10.808594 18.082031 C 10.960938 18.300781 11.132812 18.546875 11.386719 18.714844 C 11.519531 18.804688 11.679688 18.871094 11.867188 18.917969 C 11.878906 18.949219 11.910156 18.972656 11.964844 18.96875 C 12.003906 18.96875 12.039062 18.964844 12.078125 18.960938 C 12.085938 18.964844 12.089844 18.964844 12.097656 18.964844 C 12.125 18.96875 12.148438 18.972656 12.171875 18.976562 C 12.171875 19.019531 12.171875 19.0625 12.171875 19.113281 L 12.148438 20.027344 C 11.738281 20.609375 11.304688 21.191406 10.859375 21.761719 C 10.542969 22.039062 10.167969 22.296875 9.714844 22.550781 C 9.339844 22.761719 8.941406 22.953125 8.558594 23.136719 C 8.101562 23.355469 7.625 23.582031 7.179688 23.847656 C 6.855469 24.039062 6.496094 24.285156 6.28125 24.644531 C 6.144531 24.878906 6.066406 25.148438 6.046875 25.46875 C 6.046875 25.46875 6.046875 25.46875 6.046875 25.472656 C 6.046875 25.480469 6.046875 25.492188 6.050781 25.503906 C 6.050781 25.507812 6.050781 25.511719 6.054688 25.515625 C 6.054688 25.519531 6.054688 25.523438 6.058594 25.527344 C 6.058594 25.53125 6.0625 25.535156 6.0625 25.539062 C 6.066406 25.546875 6.070312 25.554688 6.078125 25.5625 C 6.082031 25.566406 6.089844 25.574219 6.09375 25.582031 C 7.269531 26.601562 8.5 27.355469 9.769531 27.835938 C 9.902344 27.886719 10.03125 27.933594 10.164062 27.976562 C 10.4375 28.070312 10.714844 28.148438 10.988281 28.210938 C 11.324219 28.292969 11.671875 28.355469 12.023438 28.398438 C 12.132812 28.410156 12.246094 28.421875 12.355469 28.433594 C 12.675781 28.460938 13 28.476562 13.332031 28.476562 C 13.695312 28.476562 14.066406 28.460938 14.441406 28.425781 C 14.558594 28.414062 14.675781 28.402344 14.796875 28.386719 C 14.824219 28.382812 14.855469 28.378906 14.882812 28.375 C 14.984375 28.363281 15.085938 28.347656 15.183594 28.332031 C 16.214844 28.175781 17.273438 27.894531 18.34375 27.484375 C 18.929688 27.261719 19.5 27.007812 20.058594 26.738281 C 20.171875 26.683594 20.285156 26.625 20.398438 26.570312 C 21.523438 26.003906 22.574219 25.378906 23.515625 24.796875 C 23.515625 24.796875 23.519531 24.792969 23.519531 24.792969 C 23.523438 24.792969 23.523438 24.789062 23.527344 24.789062 C 23.527344 24.789062 23.527344 24.785156 23.53125 24.785156 C 23.535156 24.78125 23.539062 24.777344 23.542969 24.773438 C 23.546875 24.773438 23.550781 24.769531 23.554688 24.765625 C 23.558594 24.757812 23.566406 24.75 23.570312 24.742188 C 23.570312 24.738281 23.574219 24.734375 23.574219 24.730469 C 23.574219 24.726562 23.578125 24.726562 23.578125 24.722656 C 23.582031 24.707031 23.585938 24.691406 23.585938 24.675781 C 23.585938 24.667969 23.585938 24.660156 23.585938 24.65625 C 23.582031 24.648438 23.582031 24.640625 23.578125 24.636719 C 23.578125 24.632812 23.578125 24.632812 23.578125 24.628906 C 23.578125 24.625 23.574219 24.621094 23.574219 24.617188 C 23.570312 24.613281 23.570312 24.609375 23.566406 24.605469 C 23.566406 24.601562 23.5625 24.601562 23.5625 24.601562 C 23.5625 24.597656 23.5625 24.597656 23.558594 24.59375 C 23.558594 24.59375 23.554688 24.589844 23.554688 24.589844 C 23.53125 24.554688 23.507812 24.523438 23.480469 24.492188 C 23.320312 24.300781 23.121094 24.136719 22.90625 24.019531 C 22.804688 23.964844 22.703125 23.917969 22.601562 23.875 C 22.390625 23.78125 22.195312 23.695312 22.054688 23.546875 C 21.851562 23.328125 21.792969 23.011719 21.738281 22.652344 L 21.539062 21.328125 C 21.503906 21.066406 21.460938 20.769531 21.316406 20.507812 C 21.078125 20.066406 20.570312 19.769531 19.964844 19.710938 C 19.722656 19.691406 19.460938 19.703125 19.152344 19.75 C 19.078125 19.367188 18.949219 19.082031 18.746094 18.863281 C 18.570312 18.664062 18.328125 18.523438 18.050781 18.460938 L 17.949219 17.574219 C 17.933594 17.429688 17.914062 17.28125 17.941406 17.144531 C 17.957031 17.070312 17.980469 17 18.019531 16.933594 C 18.035156 16.898438 18.058594 16.863281 18.085938 16.832031 C 18.132812 16.839844 18.179688 16.847656 18.226562 16.855469 C 18.628906 16.917969 19.039062 16.882812 19.417969 16.761719 C 19.457031 16.75 19.480469 16.742188 19.492188 16.742188 L 19.492188 16.753906 C 19.488281 16.925781 19.410156 17.085938 19.332031 17.261719 C 19.265625 17.398438 19.199219 17.539062 19.164062 17.695312 C 19.117188 17.898438 19.179688 18.011719 19.242188 18.066406 C 19.300781 18.125 19.378906 18.144531 19.429688 18.15625 C 19.496094 18.167969 19.5625 18.175781 19.625 18.175781 C 19.945312 18.175781 20.25 18.027344 20.492188 17.894531 C 21.53125 17.308594 22.28125 16.441406 22.566406 15.5 C 22.6875 15.488281 22.808594 15.460938 22.925781 15.421875 C 23.449219 15.242188 23.875 14.828125 24.0625 14.304688 C 24.15625 14.046875 24.066406 13.914062 24 13.855469 " fill-opacity="1" fill-rule="nonzero"/></g><g clip-path="url(#id3)"><path fill="#ffffff" d="M 13.601562 14.941406 C 13.515625 14.957031 13.433594 14.972656 13.351562 14.980469 C 13.441406 15.1875 13.527344 15.398438 13.609375 15.609375 C 13.6875 15.8125 13.785156 16.027344 13.855469 16.246094 C 14.070312 16.167969 14.265625 16.050781 14.421875 15.894531 C 14.25 15.550781 14.097656 15.191406 13.925781 14.839844 C 13.820312 14.882812 13.710938 14.914062 13.601562 14.941406 Z M 13.152344 15.003906 C 12.988281 15.019531 12.820312 15.027344 12.65625 15.042969 C 12.597656 15.046875 12.519531 15.046875 12.433594 15.058594 C 12.492188 15.261719 12.550781 15.464844 12.609375 15.664062 C 12.664062 15.847656 12.75 16.046875 12.816406 16.246094 C 13.066406 16.339844 13.339844 16.359375 13.601562 16.3125 C 13.539062 16.132812 13.492188 15.941406 13.429688 15.765625 C 13.34375 15.511719 13.25 15.257812 13.152344 15.003906 Z M 18.960938 20.480469 C 18.949219 20.296875 18.933594 20.113281 18.90625 19.933594 C 18.90625 19.933594 18.90625 19.933594 18.90625 19.929688 C 18.84375 19.53125 18.730469 19.25 18.542969 19.046875 C 18.425781 18.914062 18.265625 18.8125 18.085938 18.757812 C 18.113281 18.988281 18.140625 19.21875 18.167969 19.449219 C 18.214844 19.367188 18.265625 19.289062 18.320312 19.21875 C 18.375 19.152344 18.566406 19.15625 18.542969 19.277344 C 18.5 19.515625 18.371094 19.757812 18.230469 19.984375 C 18.152344 20.109375 18.074219 20.226562 18.003906 20.339844 C 18 20.34375 18 20.347656 17.996094 20.351562 C 17.777344 20.695312 17.539062 21.023438 17.277344 21.335938 C 16.75 21.964844 16.136719 22.523438 15.457031 22.980469 C 15.160156 23.179688 14.84375 23.351562 14.519531 23.445312 C 14.613281 23.71875 14.675781 24.003906 14.726562 24.277344 C 14.804688 24.675781 14.875 25.109375 14.8125 25.515625 C 14.765625 25.839844 14.609375 26.101562 14.390625 26.289062 C 14.734375 26.808594 14.910156 27.488281 14.84375 28.101562 C 14.890625 28.097656 14.9375 28.089844 14.988281 28.082031 C 15.480469 26.777344 16.375 25.667969 17.324219 24.652344 C 17.933594 24 18.570312 23.375 19.160156 22.707031 C 19.089844 22.359375 19.066406 22.007812 19.042969 21.6875 C 19.015625 21.285156 18.988281 20.882812 18.960938 20.480469 Z M 15.464844 8.773438 C 15.441406 8.503906 15.054688 8.320312 14.601562 8.363281 C 14.152344 8.40625 13.804688 8.65625 13.828125 8.921875 C 13.855469 9.191406 14.214844 9.082031 14.664062 9.039062 C 15.117188 9 15.492188 9.039062 15.464844 8.773438 Z M 15.148438 11.078125 C 15.148438 10.601562 15 10.214844 14.816406 10.214844 C 14.632812 10.214844 14.488281 10.601562 14.488281 11.078125 C 14.488281 11.554688 14.632812 11.941406 14.816406 11.941406 C 15 11.941406 15.148438 11.554688 15.148438 11.078125 Z M 15.074219 14.617188 C 15.074219 14.613281 15.074219 14.605469 15.070312 14.601562 C 15.019531 14.429688 14.953125 14.195312 14.738281 14.1875 C 14.53125 14.175781 14.339844 14.367188 14.179688 14.46875 C 14.121094 14.503906 14.0625 14.535156 14.003906 14.5625 C 13.945312 14.59375 13.886719 14.617188 13.824219 14.640625 C 13.640625 14.707031 13.453125 14.746094 13.257812 14.769531 C 13.195312 14.777344 13.132812 14.785156 13.070312 14.789062 C 13.070312 14.792969 13.066406 14.792969 13.0625 14.792969 C 12.839844 14.808594 12.601562 14.8125 12.378906 14.847656 C 12.320312 14.855469 12.265625 14.867188 12.207031 14.882812 C 12.183594 14.890625 12.160156 14.894531 12.132812 14.902344 C 11.550781 15.089844 11.753906 15.703125 12.078125 16.058594 C 12.226562 16.214844 12.398438 16.332031 12.589844 16.414062 C 12.683594 16.457031 12.785156 16.488281 12.890625 16.511719 C 13.148438 16.570312 13.417969 16.570312 13.675781 16.519531 C 13.757812 16.503906 13.835938 16.484375 13.914062 16.460938 C 13.957031 16.445312 14 16.429688 14.042969 16.410156 C 14.222656 16.339844 14.390625 16.238281 14.535156 16.113281 C 14.597656 16.0625 14.652344 16.007812 14.703125 15.953125 C 15.027344 15.59375 15.195312 15.113281 15.074219 14.617188 Z M 11.480469 14.097656 C 11.355469 14.105469 11.394531 12.785156 11.390625 12.644531 C 11.386719 12.179688 11.382812 11.714844 11.375 11.25 C 11.363281 10.535156 11.371094 9.613281 10.664062 9.222656 C 10.628906 9.203125 10.589844 9.1875 10.550781 9.171875 C 10.539062 9.164062 10.523438 9.167969 10.511719 9.171875 C 10.367188 9.015625 10.070312 8.925781 9.742188 8.957031 C 9.289062 8.996094 8.941406 9.246094 8.964844 9.515625 C 8.992188 9.785156 9.351562 9.671875 9.804688 9.632812 C 10.253906 9.589844 10.628906 9.632812 10.605469 9.367188 C 10.601562 9.347656 10.601562 9.332031 10.59375 9.316406 C 10.953125 9.621094 11.066406 10.078125 11.097656 10.539062 C 11.136719 11.09375 11.105469 11.65625 11.109375 12.214844 C 11.109375 12.75 11.109375 13.285156 11.117188 13.824219 C 11.117188 14.082031 11.191406 14.402344 11.519531 14.296875 C 11.636719 14.257812 11.601562 14.09375 11.480469 14.097656 Z M 10.617188 11.367188 C 10.617188 10.890625 10.46875 10.503906 10.285156 10.503906 C 10.105469 10.503906 9.957031 10.890625 9.957031 11.367188 C 9.957031 11.839844 10.105469 12.226562 10.285156 12.226562 C 10.46875 12.226562 10.617188 11.839844 10.617188 11.367188 Z M 14.425781 23.203125 C 14.324219 23.234375 14.21875 23.253906 14.109375 23.257812 C 13.878906 23.273438 13.640625 23.230469 13.394531 23.105469 C 12.953125 22.882812 12.636719 22.503906 12.375 22.085938 L 12.421875 20.074219 L 12.445312 19.117188 C 12.449219 19.050781 12.449219 18.988281 12.445312 18.929688 C 14.085938 18.734375 15.707031 18.035156 17.023438 17.066406 C 17.101562 17.007812 17.003906 16.929688 16.933594 16.972656 C 16.160156 17.445312 15.328125 17.855469 14.46875 18.15625 C 13.757812 18.410156 13.027344 18.570312 12.285156 18.714844 C 12.238281 18.707031 12.191406 18.703125 12.140625 18.695312 C 11.886719 18.65625 11.6875 18.585938 11.539062 18.484375 C 11.328125 18.34375 11.171875 18.121094 11.03125 17.925781 C 10.609375 17.320312 10.175781 16.695312 9.753906 16.066406 C 9.496094 15.6875 9.289062 15.367188 9.136719 15.011719 C 8.777344 14.160156 8.792969 13.191406 8.8125 12.25 C 8.816406 12.136719 8.816406 12.023438 8.820312 11.914062 L 8.820312 11.910156 C 8.820312 11.824219 8.820312 11.738281 8.820312 11.652344 C 8.820312 10.578125 8.714844 9.515625 8.5 8.46875 C 8.660156 7.753906 8.8125 7.039062 9.101562 6.363281 C 9.148438 6.261719 9.203125 6.140625 9.269531 6.011719 C 9.605469 6.164062 9.984375 6.234375 10.351562 6.246094 C 10.414062 6.25 10.527344 6.1875 10.5 6.109375 C 10.453125 5.972656 10.363281 5.8125 10.34375 5.671875 C 10.328125 5.578125 10.285156 5.484375 10.425781 5.476562 C 10.484375 5.472656 10.617188 5.558594 10.664062 5.582031 C 10.875 5.675781 11.144531 5.867188 11.386719 5.863281 C 11.609375 5.859375 11.679688 5.664062 11.800781 5.515625 C 11.976562 5.296875 12.210938 5.160156 12.472656 5.09375 C 12.496094 5.226562 12.507812 5.363281 12.515625 5.5 C 12.519531 5.605469 12.628906 5.632812 12.714844 5.597656 C 13.09375 5.449219 13.464844 5.292969 13.832031 5.121094 C 13.984375 5.050781 14.140625 4.980469 14.292969 4.90625 C 14.3125 4.929688 14.328125 4.953125 14.347656 4.980469 C 15.019531 5.90625 15.09375 7.105469 15.425781 8.167969 C 16.023438 10.097656 17.269531 11.949219 19.230469 12.679688 C 19.300781 13.613281 18.9375 14.550781 18.117188 15.113281 C 17.847656 15.296875 17.550781 15.421875 17.234375 15.496094 C 17.050781 15.535156 16.800781 15.585938 16.71875 15.785156 C 16.617188 16.039062 16.886719 16.226562 17.058594 16.355469 C 17.136719 16.417969 17.21875 16.472656 17.300781 16.53125 C 17.3125 16.539062 17.324219 16.550781 17.335938 16.558594 C 17.351562 16.5625 17.363281 16.570312 17.375 16.578125 C 17.503906 16.660156 17.636719 16.738281 17.773438 16.808594 C 17.722656 16.902344 17.691406 16.996094 17.671875 17.089844 C 17.636719 17.269531 17.65625 17.449219 17.675781 17.609375 L 17.792969 18.589844 L 17.792969 18.59375 C 17.792969 18.59375 17.792969 18.597656 17.792969 18.597656 C 17.792969 18.601562 17.792969 18.601562 17.792969 18.601562 C 17.839844 19.027344 17.890625 19.449219 17.941406 19.875 C 17.890625 19.96875 17.84375 20.058594 17.789062 20.144531 C 17.605469 20.445312 17.398438 20.734375 17.179688 21.007812 C 16.71875 21.585938 16.183594 22.101562 15.597656 22.546875 C 15.238281 22.816406 14.84375 23.089844 14.425781 23.203125 Z M 14.667969 14.421875 C 14.589844 14.425781 14.441406 14.570312 14.378906 14.609375 C 14.292969 14.664062 14.207031 14.710938 14.121094 14.753906 C 14.296875 15.054688 14.472656 15.363281 14.605469 15.6875 C 14.808594 15.398438 14.898438 15.039062 14.804688 14.660156 C 14.773438 14.558594 14.742188 14.417969 14.667969 14.421875 Z M 8.160156 8.910156 C 8.179688 8.773438 8.199219 8.636719 8.222656 8.496094 C 8.261719 8.277344 8.304688 8.054688 8.355469 7.835938 C 8.503906 7.160156 8.71875 6.496094 9.042969 5.894531 C 9.058594 5.867188 9.074219 5.839844 9.089844 5.808594 C 9.097656 5.796875 9.105469 5.78125 9.113281 5.765625 C 9.359375 5.335938 9.671875 4.902344 10.078125 4.613281 C 10.394531 4.390625 10.929688 4.253906 11.199219 4.617188 C 11.253906 4.6875 11.148438 4.730469 11.09375 4.699219 C 10.363281 4.328125 9.726562 5.15625 9.347656 5.855469 C 9.609375 5.945312 9.878906 6.007812 10.164062 6.023438 C 10.058594 5.792969 9.921875 5.476562 10.085938 5.316406 C 10.261719 5.144531 10.535156 5.257812 10.726562 5.339844 C 10.878906 5.410156 11.21875 5.640625 11.378906 5.601562 C 11.503906 5.574219 11.601562 5.355469 11.707031 5.257812 C 11.945312 5.03125 12.246094 4.890625 12.570312 4.84375 C 12.628906 4.835938 12.714844 4.851562 12.730469 4.925781 C 12.757812 5.058594 12.773438 5.191406 12.785156 5.324219 C 13.082031 5.207031 13.375 5.078125 13.664062 4.941406 C 13.820312 4.871094 13.96875 4.789062 14.125 4.710938 C 13.859375 4.4375 13.53125 4.21875 13.152344 4.164062 C 12.628906 4.085938 12.105469 4.296875 11.828125 4.753906 C 11.796875 4.804688 11.695312 4.78125 11.722656 4.71875 C 12.0625 3.941406 13.066406 3.742188 13.78125 4.089844 C 14.03125 4.210938 14.242188 4.375 14.417969 4.5625 C 14.476562 4.625 14.53125 4.6875 14.582031 4.75 C 15.03125 5.332031 15.257812 6.105469 15.421875 6.804688 C 15.675781 7.859375 15.960938 8.886719 16.507812 9.832031 C 17.015625 10.71875 17.710938 11.5 18.589844 12.03125 C 18.78125 12.148438 18.980469 12.25 19.183594 12.335938 C 19.273438 12.375 19.363281 12.410156 19.457031 12.445312 C 20.097656 12.671875 20.785156 12.757812 21.460938 12.644531 C 21.777344 12.59375 22.082031 12.5 22.375 12.371094 C 22.460938 12.332031 22.550781 12.289062 22.632812 12.246094 C 22.699219 12.210938 22.761719 12.171875 22.824219 12.132812 C 23.164062 11.921875 23.800781 11.484375 23.761719 11.019531 C 23.738281 10.730469 23.269531 10.761719 23.050781 10.699219 C 22.890625 10.65625 22.730469 10.601562 22.578125 10.53125 C 22.546875 10.519531 22.519531 10.503906 22.488281 10.488281 C 22.4375 10.460938 22.382812 10.433594 22.332031 10.40625 C 22.003906 10.21875 21.699219 9.980469 21.433594 9.710938 C 20.710938 8.980469 20.261719 8.058594 19.847656 7.132812 C 19.089844 5.421875 18.113281 2.949219 15.894531 2.84375 C 15.722656 2.835938 15.769531 2.625 15.925781 2.628906 C 18.445312 2.667969 19.421875 5.457031 20.300781 7.347656 C 20.742188 8.296875 21.285156 9.230469 22.121094 9.882812 C 22.242188 9.976562 22.367188 10.058594 22.496094 10.136719 C 23.132812 8.96875 23.21875 7.433594 22.683594 6.066406 C 22.117188 4.617188 20.894531 3.320312 19.242188 2.421875 C 18.15625 1.828125 16.46875 1.179688 14.621094 1.460938 C 13.113281 1.6875 11.761719 2.574219 11.085938 3.777344 C 11.085938 3.78125 11.085938 3.78125 11.082031 3.785156 C 11.082031 3.789062 11.078125 3.792969 11.078125 3.796875 C 11.074219 3.800781 11.070312 3.804688 11.066406 3.808594 L 11.0625 3.8125 C 11.0625 3.816406 11.058594 3.816406 11.054688 3.820312 C 11.050781 3.824219 11.046875 3.828125 11.042969 3.828125 C 11.039062 3.832031 11.035156 3.835938 11.03125 3.835938 C 11.027344 3.839844 11.023438 3.839844 11.019531 3.84375 C 11.015625 3.84375 11.011719 3.847656 11.007812 3.847656 C 11 3.851562 10.996094 3.851562 10.992188 3.851562 C 10.988281 3.855469 10.980469 3.855469 10.976562 3.855469 C 10.96875 3.855469 10.960938 3.855469 10.953125 3.855469 C 10.945312 3.855469 10.941406 3.855469 10.9375 3.851562 C 10.933594 3.851562 10.929688 3.851562 10.925781 3.851562 C 10.921875 3.847656 10.917969 3.847656 10.910156 3.84375 C 10.90625 3.84375 10.902344 3.839844 10.898438 3.835938 C 10.894531 3.835938 10.890625 3.832031 10.886719 3.832031 C 10.878906 3.828125 10.875 3.824219 10.871094 3.820312 C 10.871094 3.816406 10.867188 3.816406 10.867188 3.816406 C 10.273438 3.273438 9.199219 3.269531 8.46875 3.800781 C 8.070312 4.09375 7.375 4.804688 7.21875 6.296875 C 7.144531 7.03125 7.207031 7.792969 7.269531 8.523438 C 7.289062 8.765625 7.3125 9.011719 7.328125 9.257812 C 7.382812 10.136719 7.390625 11.273438 6.9375 12.257812 C 6.6875 12.800781 6.667969 13.121094 6.871094 13.238281 C 7.085938 13.363281 7.398438 13.128906 7.519531 13.019531 C 7.910156 12.683594 8.253906 12.296875 8.542969 11.867188 C 8.546875 11.796875 8.546875 11.722656 8.546875 11.648438 C 8.546875 10.757812 8.46875 9.871094 8.320312 8.996094 C 8.242188 9.027344 8.144531 9 8.160156 8.910156 Z M 12.371094 22.519531 C 12.269531 22.371094 12.183594 22.210938 12.101562 22.042969 C 11.988281 21.808594 11.886719 21.5625 11.792969 21.320312 C 11.765625 21.25 11.890625 21.21875 11.925781 21.277344 C 11.984375 21.394531 12.046875 21.511719 12.113281 21.632812 L 12.136719 20.515625 C 11.792969 20.992188 11.4375 21.46875 11.070312 21.9375 C 11.070312 21.9375 11.070312 21.9375 11.070312 21.941406 C 10.558594 22.597656 10.019531 23.246094 9.46875 23.878906 C 9.769531 24.21875 10.0625 24.570312 10.359375 24.917969 C 10.390625 24.953125 10.367188 25.003906 10.347656 25.039062 C 10.246094 25.207031 10.066406 25.246094 9.882812 25.265625 C 9.722656 25.28125 9.585938 25.253906 9.496094 25.398438 C 9.398438 25.554688 9.5 25.765625 9.546875 25.929688 C 9.65625 26.292969 9.765625 26.65625 9.871094 27.019531 C 9.933594 27.226562 10.015625 27.441406 10.082031 27.660156 C 10.402344 27.773438 10.726562 27.867188 11.054688 27.945312 C 11.375 28.019531 11.703125 28.082031 12.039062 28.125 C 12.054688 27.921875 12.082031 27.726562 12.105469 27.546875 C 12.152344 27.207031 12.214844 26.808594 12.351562 26.46875 C 12.253906 26.382812 12.175781 26.269531 12.136719 26.121094 C 12.035156 25.765625 12.097656 25.347656 12.113281 24.984375 C 12.128906 24.625 12.117188 24.226562 12.21875 23.875 C 12.34375 23.4375 12.671875 23.253906 13.046875 23.21875 C 12.769531 23.035156 12.550781 22.792969 12.371094 22.519531 Z M 12.253906 15.089844 C 12.140625 15.121094 12.042969 15.179688 12.023438 15.285156 C 11.964844 15.578125 12.261719 15.910156 12.492188 16.078125 C 12.464844 15.964844 12.441406 15.851562 12.414062 15.75 C 12.355469 15.53125 12.300781 15.3125 12.253906 15.089844 Z M 23.804688 14.210938 C 23.644531 14.648438 23.273438 15.011719 22.835938 15.160156 C 22.714844 15.203125 22.589844 15.226562 22.457031 15.238281 C 22.457031 15.238281 22.453125 15.238281 22.449219 15.238281 C 22.441406 15.238281 22.429688 15.238281 22.421875 15.242188 C 22.417969 15.242188 22.414062 15.242188 22.410156 15.246094 C 22.40625 15.246094 22.402344 15.25 22.398438 15.25 C 22.394531 15.253906 22.390625 15.253906 22.386719 15.257812 C 22.382812 15.257812 22.378906 15.261719 22.375 15.265625 C 22.371094 15.269531 22.367188 15.273438 22.363281 15.277344 C 22.363281 15.277344 22.359375 15.277344 22.359375 15.28125 C 22.355469 15.285156 22.347656 15.292969 22.34375 15.296875 C 22.339844 15.300781 22.339844 15.308594 22.335938 15.3125 C 22.332031 15.316406 22.332031 15.316406 22.332031 15.320312 C 22.332031 15.320312 22.332031 15.324219 22.332031 15.324219 C 22.328125 15.328125 22.328125 15.332031 22.328125 15.339844 C 22.328125 15.339844 22.328125 15.339844 22.324219 15.339844 C 22.082031 16.242188 21.363281 17.085938 20.355469 17.652344 C 20.109375 17.792969 19.785156 17.945312 19.480469 17.886719 C 19.441406 17.878906 19.429688 17.871094 19.429688 17.867188 C 19.421875 17.863281 19.414062 17.828125 19.429688 17.757812 C 19.460938 17.632812 19.515625 17.507812 19.578125 17.378906 C 19.667969 17.1875 19.761719 16.988281 19.769531 16.761719 C 19.769531 16.707031 19.765625 16.628906 19.710938 16.558594 C 19.597656 16.414062 19.398438 16.476562 19.335938 16.5 C 18.929688 16.628906 18.488281 16.644531 18.058594 16.542969 C 18.058594 16.542969 18.054688 16.542969 18.054688 16.542969 C 18.054688 16.542969 18.050781 16.542969 18.050781 16.542969 C 17.894531 16.503906 17.742188 16.453125 17.601562 16.382812 C 17.46875 16.296875 17.339844 16.207031 17.214844 16.109375 C 17.140625 16.050781 16.953125 15.941406 17.054688 15.808594 C 17.082031 15.773438 17.1875 15.761719 17.226562 15.753906 C 17.367188 15.71875 17.503906 15.6875 17.644531 15.640625 C 18.164062 15.457031 18.628906 15.121094 18.96875 14.6875 C 19.402344 14.132812 19.589844 13.441406 19.515625 12.777344 C 20.332031 13.023438 21.203125 13.046875 22.023438 12.796875 C 22.164062 12.753906 22.296875 12.707031 22.429688 12.652344 C 22.4375 12.6875 22.449219 12.722656 22.457031 12.753906 C 22.65625 13.414062 23.152344 13.917969 23.71875 14.035156 L 23.734375 14.035156 C 23.765625 14.042969 23.804688 14.050781 23.816406 14.0625 C 23.832031 14.074219 23.835938 14.125 23.804688 14.210938 " fill-opacity="1" fill-rule="nonzero"/></g><g clip-path="url(#id4)"><path fill="#0f0e0c" d="M 10.617188 11.367188 C 10.617188 11.839844 10.46875 12.226562 10.285156 12.226562 C 10.105469 12.226562 9.957031 11.839844 9.957031 11.367188 C 9.957031 10.890625 10.105469 10.503906 10.285156 10.503906 C 10.46875 10.503906 10.617188 10.890625 10.617188 11.367188 Z M 11.519531 14.296875 C 11.191406 14.402344 11.117188 14.082031 11.117188 13.824219 C 11.109375 13.285156 11.109375 12.75 11.109375 12.214844 C 11.105469 11.65625 11.136719 11.09375 11.097656 10.539062 C 11.066406 10.078125 10.953125 9.621094 10.59375 9.316406 C 10.601562 9.332031 10.601562 9.347656 10.605469 9.367188 C 10.628906 9.632812 10.253906 9.589844 9.804688 9.632812 C 9.351562 9.671875 8.992188 9.785156 8.964844 9.515625 C 8.941406 9.246094 9.289062 8.996094 9.742188 8.957031 C 10.070312 8.925781 10.367188 9.015625 10.511719 9.171875 C 10.523438 9.167969 10.539062 9.164062 10.550781 9.171875 C 10.589844 9.1875 10.628906 9.203125 10.664062 9.222656 C 11.371094 9.613281 11.363281 10.535156 11.375 11.25 C 11.382812 11.714844 11.386719 12.179688 11.390625 12.644531 C 11.394531 12.785156 11.355469 14.105469 11.480469 14.097656 C 11.601562 14.09375 11.636719 14.257812 11.519531 14.296875 Z M 15.148438 11.078125 C 15.148438 11.554688 15 11.941406 14.816406 11.941406 C 14.632812 11.941406 14.488281 11.554688 14.488281 11.078125 C 14.488281 10.601562 14.632812 10.214844 14.816406 10.214844 C 15 10.214844 15.148438 10.601562 15.148438 11.078125 Z M 14.605469 15.6875 C 14.472656 15.363281 14.296875 15.054688 14.121094 14.753906 C 14.207031 14.710938 14.292969 14.664062 14.378906 14.609375 C 14.441406 14.570312 14.589844 14.425781 14.667969 14.421875 C 14.742188 14.417969 14.773438 14.558594 14.804688 14.660156 C 14.898438 15.039062 14.808594 15.398438 14.605469 15.6875 Z M 13.855469 16.246094 C 13.785156 16.027344 13.6875 15.8125 13.609375 15.609375 C 13.527344 15.398438 13.441406 15.1875 13.351562 14.980469 C 13.433594 14.972656 13.515625 14.957031 13.601562 14.941406 C 13.710938 14.914062 13.820312 14.882812 13.925781 14.839844 C 14.097656 15.191406 14.25 15.550781 14.421875 15.894531 C 14.265625 16.050781 14.070312 16.167969 13.855469 16.246094 Z M 12.816406 16.246094 C 12.75 16.046875 12.664062 15.847656 12.609375 15.664062 C 12.550781 15.464844 12.492188 15.261719 12.433594 15.058594 C 12.519531 15.046875 12.597656 15.046875 12.65625 15.042969 C 12.820312 15.027344 12.988281 15.019531 13.152344 15.003906 C 13.25 15.257812 13.34375 15.511719 13.429688 15.765625 C 13.492188 15.941406 13.539062 16.132812 13.601562 16.3125 C 13.339844 16.359375 13.066406 16.339844 12.816406 16.246094 Z M 12.023438 15.285156 C 12.042969 15.179688 12.140625 15.121094 12.253906 15.089844 C 12.300781 15.3125 12.355469 15.53125 12.414062 15.75 C 12.441406 15.851562 12.464844 15.964844 12.496094 16.078125 C 12.261719 15.910156 11.96875 15.578125 12.023438 15.285156 Z M 15.070312 14.601562 C 15.019531 14.429688 14.953125 14.195312 14.738281 14.1875 C 14.53125 14.175781 14.339844 14.367188 14.179688 14.46875 C 14.121094 14.503906 14.0625 14.535156 14.003906 14.5625 C 13.945312 14.59375 13.886719 14.617188 13.824219 14.640625 C 13.640625 14.707031 13.453125 14.746094 13.257812 14.769531 C 13.195312 14.777344 13.132812 14.785156 13.070312 14.789062 C 13.070312 14.792969 13.066406 14.792969 13.0625 14.792969 C 12.839844 14.808594 12.601562 14.8125 12.378906 14.847656 C 12.320312 14.855469 12.265625 14.867188 12.207031 14.882812 C 12.183594 14.890625 12.160156 14.894531 12.132812 14.902344 C 11.550781 15.089844 11.753906 15.703125 12.078125 16.058594 C 12.226562 16.214844 12.398438 16.332031 12.589844 16.414062 C 12.683594 16.457031 12.785156 16.488281 12.890625 16.511719 C 13.148438 16.570312 13.417969 16.570312 13.675781 16.519531 C 13.757812 16.503906 13.835938 16.484375 13.914062 16.460938 C 13.957031 16.445312 14 16.429688 14.042969 16.410156 C 14.222656 16.339844 14.390625 16.238281 14.535156 16.113281 C 14.597656 16.0625 14.652344 16.007812 14.703125 15.953125 C 15.027344 15.59375 15.195312 15.113281 15.074219 14.617188 C 15.074219 14.613281 15.074219 14.605469 15.070312 14.601562 Z M 15.464844 8.773438 C 15.492188 9.039062 15.117188 9 14.664062 9.039062 C 14.214844 9.082031 13.855469 9.191406 13.828125 8.921875 C 13.804688 8.65625 14.152344 8.40625 14.601562 8.363281 C 15.054688 8.320312 15.441406 8.503906 15.464844 8.773438 Z M 23.804688 14.210938 C 23.644531 14.648438 23.273438 15.011719 22.835938 15.160156 C 22.714844 15.203125 22.589844 15.226562 22.457031 15.238281 C 22.457031 15.238281 22.453125 15.238281 22.449219 15.238281 C 22.441406 15.238281 22.433594 15.238281 22.421875 15.242188 C 22.417969 15.242188 22.414062 15.242188 22.410156 15.246094 C 22.40625 15.246094 22.402344 15.25 22.398438 15.25 C 22.394531 15.253906 22.390625 15.253906 22.386719 15.257812 C 22.382812 15.257812 22.378906 15.261719 22.375 15.265625 C 22.371094 15.269531 22.367188 15.273438 22.363281 15.277344 C 22.363281 15.277344 22.359375 15.277344 22.359375 15.28125 C 22.355469 15.285156 22.347656 15.292969 22.34375 15.296875 C 22.339844 15.300781 22.339844 15.308594 22.335938 15.3125 C 22.335938 15.316406 22.332031 15.316406 22.332031 15.320312 C 22.332031 15.320312 22.332031 15.324219 22.332031 15.324219 C 22.328125 15.328125 22.328125 15.332031 22.328125 15.339844 C 22.328125 15.339844 22.328125 15.339844 22.324219 15.339844 C 22.082031 16.242188 21.363281 17.085938 20.355469 17.652344 C 20.109375 17.792969 19.785156 17.945312 19.480469 17.886719 C 19.441406 17.878906 19.429688 17.871094 19.429688 17.867188 C 19.421875 17.863281 19.414062 17.828125 19.429688 17.757812 C 19.460938 17.632812 19.515625 17.507812 19.578125 17.375 C 19.667969 17.1875 19.761719 16.988281 19.769531 16.761719 C 19.769531 16.707031 19.765625 16.628906 19.710938 16.558594 C 19.597656 16.414062 19.398438 16.476562 19.335938 16.5 C 18.929688 16.628906 18.488281 16.644531 18.0625 16.542969 C 18.058594 16.542969 18.054688 16.542969 18.054688 16.542969 C 18.054688 16.542969 18.050781 16.542969 18.050781 16.542969 C 17.894531 16.503906 17.742188 16.453125 17.601562 16.382812 C 17.46875 16.296875 17.339844 16.207031 17.214844 16.109375 C 17.140625 16.050781 16.953125 15.941406 17.054688 15.808594 C 17.082031 15.773438 17.1875 15.761719 17.226562 15.753906 C 17.367188 15.71875 17.507812 15.6875 17.644531 15.640625 C 18.164062 15.457031 18.628906 15.121094 18.96875 14.6875 C 19.402344 14.132812 19.589844 13.441406 19.515625 12.777344 C 20.332031 13.023438 21.203125 13.046875 22.023438 12.796875 C 22.164062 12.753906 22.296875 12.707031 22.429688 12.652344 C 22.4375 12.6875 22.449219 12.722656 22.457031 12.753906 C 22.65625 13.414062 23.152344 13.917969 23.71875 14.035156 L 23.734375 14.035156 C 23.765625 14.042969 23.804688 14.050781 23.816406 14.0625 C 23.832031 14.074219 23.835938 14.125 23.804688 14.210938 Z M 17.941406 19.875 C 17.890625 19.96875 17.84375 20.058594 17.789062 20.144531 C 17.605469 20.445312 17.398438 20.734375 17.179688 21.007812 C 16.71875 21.585938 16.183594 22.101562 15.597656 22.546875 C 15.238281 22.816406 14.84375 23.089844 14.425781 23.203125 C 14.324219 23.234375 14.21875 23.253906 14.109375 23.257812 C 13.878906 23.273438 13.640625 23.230469 13.394531 23.105469 C 12.953125 22.882812 12.636719 22.503906 12.375 22.085938 L 12.421875 20.074219 L 12.445312 19.117188 C 12.449219 19.050781 12.449219 18.988281 12.445312 18.929688 C 14.085938 18.734375 15.707031 18.035156 17.023438 17.066406 C 17.101562 17.007812 17.003906 16.929688 16.933594 16.972656 C 16.160156 17.445312 15.328125 17.855469 14.46875 18.15625 C 13.757812 18.410156 13.027344 18.570312 12.285156 18.714844 C 12.238281 18.707031 12.191406 18.703125 12.140625 18.695312 C 11.886719 18.65625 11.6875 18.585938 11.539062 18.484375 C 11.328125 18.34375 11.171875 18.121094 11.03125 17.925781 C 10.609375 17.320312 10.175781 16.695312 9.753906 16.066406 C 9.496094 15.6875 9.289062 15.367188 9.136719 15.011719 C 8.777344 14.160156 8.792969 13.191406 8.8125 12.25 C 8.816406 12.136719 8.816406 12.023438 8.820312 11.914062 L 8.820312 11.910156 C 8.820312 11.824219 8.820312 11.738281 8.820312 11.652344 C 8.820312 10.578125 8.714844 9.515625 8.5 8.46875 C 8.660156 7.753906 8.8125 7.039062 9.101562 6.363281 C 9.148438 6.261719 9.203125 6.140625 9.269531 6.011719 C 9.605469 6.164062 9.984375 6.234375 10.351562 6.246094 C 10.414062 6.25 10.527344 6.1875 10.5 6.109375 C 10.453125 5.972656 10.363281 5.8125 10.34375 5.671875 C 10.328125 5.578125 10.285156 5.484375 10.425781 5.476562 C 10.484375 5.472656 10.617188 5.558594 10.664062 5.582031 C 10.875 5.675781 11.144531 5.867188 11.386719 5.863281 C 11.609375 5.859375 11.679688 5.664062 11.800781 5.515625 C 11.976562 5.296875 12.210938 5.160156 12.472656 5.09375 C 12.496094 5.226562 12.507812 5.363281 12.515625 5.5 C 12.519531 5.605469 12.628906 5.632812 12.714844 5.597656 C 13.09375 5.449219 13.464844 5.292969 13.832031 5.121094 C 13.984375 5.050781 14.140625 4.980469 14.292969 4.90625 C 14.3125 4.929688 14.328125 4.953125 14.347656 4.980469 C 15.019531 5.90625 15.09375 7.105469 15.425781 8.167969 C 16.023438 10.097656 17.269531 11.949219 19.230469 12.679688 C 19.300781 13.613281 18.9375 14.550781 18.117188 15.113281 C 17.847656 15.296875 17.550781 15.421875 17.234375 15.496094 C 17.050781 15.535156 16.800781 15.585938 16.71875 15.785156 C 16.617188 16.039062 16.886719 16.226562 17.058594 16.355469 C 17.136719 16.417969 17.21875 16.472656 17.300781 16.53125 C 17.3125 16.539062 17.324219 16.550781 17.335938 16.558594 C 17.351562 16.5625 17.363281 16.570312 17.375 16.578125 C 17.503906 16.660156 17.636719 16.738281 17.773438 16.808594 C 17.722656 16.902344 17.691406 16.996094 17.671875 17.089844 C 17.636719 17.269531 17.65625 17.449219 17.675781 17.609375 L 17.792969 18.589844 L 17.792969 18.59375 C 17.792969 18.59375 17.792969 18.597656 17.792969 18.597656 C 17.792969 18.601562 17.792969 18.601562 17.792969 18.601562 C 17.839844 19.027344 17.890625 19.449219 17.941406 19.875 Z M 17.996094 20.351562 C 18 20.347656 18 20.34375 18.003906 20.339844 C 18.074219 20.226562 18.152344 20.109375 18.230469 19.984375 C 18.371094 19.757812 18.5 19.515625 18.542969 19.277344 C 18.566406 19.15625 18.375 19.152344 18.320312 19.21875 C 18.265625 19.289062 18.214844 19.367188 18.167969 19.449219 C 18.140625 19.21875 18.113281 18.988281 18.085938 18.757812 C 18.265625 18.8125 18.425781 18.914062 18.542969 19.046875 C 18.730469 19.25 18.84375 19.53125 18.90625 19.929688 C 18.90625 19.933594 18.90625 19.933594 18.90625 19.933594 C 18.933594 20.113281 18.949219 20.296875 18.960938 20.480469 C 18.988281 20.882812 19.015625 21.285156 19.042969 21.6875 C 19.066406 22.007812 19.089844 22.359375 19.160156 22.707031 C 18.570312 23.375 17.933594 24 17.324219 24.652344 C 16.375 25.667969 15.480469 26.777344 14.988281 28.082031 C 14.9375 28.089844 14.890625 28.097656 14.84375 28.101562 C 14.910156 27.488281 14.734375 26.808594 14.390625 26.289062 C 14.609375 26.101562 14.765625 25.839844 14.8125 25.515625 C 14.875 25.109375 14.804688 24.675781 14.726562 24.277344 C 14.675781 24.003906 14.613281 23.71875 14.519531 23.445312 C 14.84375 23.351562 15.160156 23.179688 15.457031 22.980469 C 16.136719 22.523438 16.75 21.964844 17.277344 21.335938 C 17.539062 21.023438 17.777344 20.695312 17.996094 20.351562 Z M 12.136719 26.121094 C 12.175781 26.269531 12.253906 26.382812 12.351562 26.46875 C 12.214844 26.808594 12.152344 27.207031 12.105469 27.546875 C 12.082031 27.726562 12.054688 27.921875 12.039062 28.125 C 11.703125 28.082031 11.375 28.019531 11.054688 27.945312 C 10.726562 27.867188 10.402344 27.773438 10.082031 27.660156 C 10.015625 27.441406 9.933594 27.226562 9.871094 27.019531 C 9.765625 26.65625 9.65625 26.292969 9.546875 25.929688 C 9.5 25.765625 9.398438 25.554688 9.496094 25.398438 C 9.585938 25.253906 9.722656 25.28125 9.882812 25.265625 C 10.066406 25.246094 10.246094 25.207031 10.347656 25.039062 C 10.367188 25.003906 10.390625 24.953125 10.359375 24.917969 C 10.0625 24.570312 9.769531 24.21875 9.46875 23.878906 C 10.019531 23.246094 10.558594 22.597656 11.070312 21.941406 C 11.070312 21.9375 11.070312 21.9375 11.070312 21.9375 C 11.4375 21.46875 11.792969 20.992188 12.136719 20.515625 L 12.113281 21.632812 C 12.046875 21.511719 11.984375 21.394531 11.925781 21.277344 C 11.890625 21.21875 11.765625 21.25 11.792969 21.320312 C 11.886719 21.5625 11.988281 21.808594 12.101562 22.042969 C 12.183594 22.210938 12.269531 22.371094 12.371094 22.519531 C 12.550781 22.792969 12.769531 23.035156 13.046875 23.21875 C 12.671875 23.253906 12.34375 23.4375 12.21875 23.875 C 12.117188 24.226562 12.128906 24.625 12.113281 24.984375 C 12.097656 25.347656 12.039062 25.765625 12.136719 26.121094 Z M 8.542969 11.867188 C 8.253906 12.296875 7.910156 12.683594 7.519531 13.019531 C 7.398438 13.128906 7.085938 13.363281 6.871094 13.238281 C 6.667969 13.121094 6.6875 12.800781 6.9375 12.257812 C 7.390625 11.273438 7.382812 10.136719 7.328125 9.257812 C 7.3125 9.011719 7.289062 8.765625 7.269531 8.523438 C 7.207031 7.792969 7.144531 7.03125 7.21875 6.296875 C 7.375 4.804688 8.070312 4.09375 8.46875 3.800781 C 9.199219 3.269531 10.273438 3.273438 10.867188 3.816406 C 10.867188 3.816406 10.871094 3.816406 10.871094 3.820312 C 10.875 3.824219 10.878906 3.828125 10.886719 3.832031 C 10.890625 3.832031 10.894531 3.835938 10.898438 3.835938 C 10.902344 3.839844 10.90625 3.84375 10.910156 3.84375 C 10.917969 3.847656 10.921875 3.847656 10.925781 3.851562 C 10.929688 3.851562 10.933594 3.851562 10.9375 3.851562 C 10.941406 3.855469 10.945312 3.855469 10.953125 3.855469 C 10.960938 3.855469 10.96875 3.855469 10.976562 3.855469 C 10.980469 3.855469 10.988281 3.855469 10.992188 3.851562 C 10.996094 3.851562 11.003906 3.851562 11.007812 3.847656 C 11.011719 3.847656 11.015625 3.84375 11.019531 3.84375 C 11.023438 3.839844 11.027344 3.839844 11.03125 3.835938 C 11.035156 3.835938 11.039062 3.832031 11.042969 3.828125 C 11.046875 3.828125 11.050781 3.824219 11.054688 3.820312 C 11.058594 3.816406 11.0625 3.816406 11.066406 3.8125 L 11.066406 3.808594 C 11.070312 3.804688 11.074219 3.800781 11.078125 3.796875 C 11.078125 3.792969 11.082031 3.789062 11.082031 3.785156 C 11.085938 3.78125 11.085938 3.78125 11.085938 3.777344 C 11.761719 2.574219 13.113281 1.6875 14.621094 1.460938 C 16.46875 1.179688 18.15625 1.828125 19.242188 2.421875 C 20.894531 3.320312 22.117188 4.617188 22.683594 6.066406 C 23.21875 7.433594 23.132812 8.96875 22.496094 10.136719 C 22.367188 10.058594 22.242188 9.976562 22.121094 9.882812 C 21.285156 9.230469 20.742188 8.296875 20.300781 7.347656 C 19.421875 5.457031 18.445312 2.667969 15.925781 2.628906 C 15.769531 2.625 15.722656 2.835938 15.894531 2.84375 C 18.113281 2.949219 19.089844 5.421875 19.847656 7.132812 C 20.261719 8.058594 20.710938 8.980469 21.433594 9.710938 C 21.699219 9.980469 22.003906 10.21875 22.332031 10.40625 C 22.382812 10.433594 22.4375 10.460938 22.488281 10.488281 C 22.519531 10.503906 22.546875 10.519531 22.578125 10.53125 C 22.730469 10.601562 22.890625 10.65625 23.050781 10.699219 C 23.269531 10.761719 23.738281 10.730469 23.761719 11.019531 C 23.800781 11.484375 23.164062 11.921875 22.824219 12.132812 C 22.761719 12.171875 22.699219 12.210938 22.632812 12.246094 C 22.550781 12.289062 22.460938 12.332031 22.375 12.371094 C 22.082031 12.5 21.777344 12.59375 21.460938 12.644531 C 20.785156 12.757812 20.097656 12.671875 19.457031 12.445312 C 19.363281 12.410156 19.273438 12.375 19.183594 12.335938 C 18.980469 12.25 18.78125 12.148438 18.589844 12.03125 C 17.710938 11.5 17.015625 10.71875 16.507812 9.832031 C 15.960938 8.886719 15.675781 7.859375 15.425781 6.804688 C 15.257812 6.105469 15.035156 5.332031 14.582031 4.75 C 14.53125 4.6875 14.476562 4.625 14.417969 4.5625 C 14.242188 4.375 14.03125 4.210938 13.78125 4.089844 C 13.066406 3.742188 12.0625 3.941406 11.722656 4.71875 C 11.695312 4.78125 11.796875 4.804688 11.828125 4.753906 C 12.105469 4.296875 12.628906 4.085938 13.152344 4.164062 C 13.53125 4.21875 13.863281 4.4375 14.125 4.710938 C 13.96875 4.789062 13.820312 4.871094 13.664062 4.941406 C 13.375 5.078125 13.082031 5.207031 12.785156 5.324219 C 12.773438 5.191406 12.757812 5.058594 12.730469 4.925781 C 12.71875 4.851562 12.628906 4.835938 12.570312 4.84375 C 12.246094 4.890625 11.945312 5.03125 11.707031 5.257812 C 11.601562 5.355469 11.503906 5.574219 11.378906 5.601562 C 11.21875 5.640625 10.878906 5.410156 10.726562 5.339844 C 10.535156 5.257812 10.261719 5.144531 10.085938 5.316406 C 9.921875 5.476562 10.058594 5.792969 10.164062 6.023438 C 9.878906 6.007812 9.609375 5.945312 9.347656 5.855469 C 9.726562 5.15625 10.363281 4.328125 11.09375 4.699219 C 11.148438 4.730469 11.253906 4.6875 11.199219 4.617188 C 10.929688 4.253906 10.394531 4.390625 10.078125 4.613281 C 9.671875 4.902344 9.359375 5.335938 9.113281 5.765625 C 9.105469 5.78125 9.097656 5.796875 9.089844 5.808594 C 9.074219 5.835938 9.058594 5.867188 9.042969 5.894531 C 8.722656 6.496094 8.503906 7.160156 8.355469 7.835938 C 8.304688 8.054688 8.261719 8.277344 8.222656 8.496094 C 8.199219 8.636719 8.179688 8.773438 8.160156 8.910156 C 8.144531 9 8.242188 9.027344 8.320312 8.996094 C 8.46875 9.871094 8.546875 10.757812 8.546875 11.648438 C 8.546875 11.722656 8.546875 11.796875 8.542969 11.867188 Z M 24.003906 13.855469 C 23.933594 13.796875 23.855469 13.78125 23.789062 13.765625 L 23.773438 13.765625 C 23.304688 13.667969 22.890625 13.242188 22.722656 12.675781 C 22.707031 12.628906 22.695312 12.582031 22.683594 12.53125 C 22.886719 12.433594 23.082031 12.3125 23.265625 12.175781 C 23.597656 11.929688 23.980469 11.597656 24.082031 11.175781 C 24.1875 10.722656 23.871094 10.550781 23.476562 10.488281 C 23.21875 10.449219 22.972656 10.371094 22.738281 10.261719 C 23.410156 9.027344 23.503906 7.402344 22.941406 5.964844 C 22.347656 4.457031 21.082031 3.113281 19.375 2.179688 C 18.25 1.570312 16.503906 0.898438 14.582031 1.1875 C 13.046875 1.417969 11.664062 2.300781 10.925781 3.507812 C 10.21875 2.980469 9.101562 3 8.308594 3.578125 C 7.871094 3.898438 7.113281 4.671875 6.945312 6.269531 C 6.867188 7.03125 6.933594 7.800781 6.996094 8.546875 C 7.015625 8.785156 7.035156 9.03125 7.050781 9.273438 C 7.109375 10.121094 7.117188 11.214844 6.6875 12.140625 C 6.570312 12.398438 6.210938 13.175781 6.734375 13.476562 C 6.816406 13.527344 6.910156 13.550781 7.007812 13.550781 C 7.21875 13.550781 7.457031 13.441406 7.699219 13.230469 C 8.007812 12.964844 8.289062 12.667969 8.535156 12.347656 C 8.519531 13.28125 8.511719 14.242188 8.882812 15.117188 C 9.058594 15.527344 9.316406 15.910156 9.523438 16.21875 C 9.949219 16.851562 10.382812 17.476562 10.808594 18.082031 C 10.960938 18.300781 11.132812 18.546875 11.386719 18.714844 C 11.519531 18.804688 11.679688 18.871094 11.867188 18.917969 C 11.882812 18.949219 11.914062 18.972656 11.964844 18.96875 C 12.003906 18.96875 12.039062 18.964844 12.078125 18.960938 C 12.085938 18.964844 12.089844 18.964844 12.097656 18.964844 C 12.125 18.96875 12.148438 18.972656 12.171875 18.976562 C 12.171875 19.019531 12.171875 19.0625 12.171875 19.113281 L 12.148438 20.027344 C 11.738281 20.609375 11.304688 21.191406 10.859375 21.761719 C 10.542969 22.039062 10.167969 22.296875 9.714844 22.550781 C 9.339844 22.761719 8.941406 22.953125 8.558594 23.136719 C 8.101562 23.355469 7.625 23.582031 7.179688 23.847656 C 6.855469 24.039062 6.496094 24.285156 6.28125 24.644531 C 6.144531 24.878906 6.066406 25.148438 6.046875 25.46875 C 6.046875 25.46875 6.046875 25.46875 6.046875 25.472656 C 6.046875 25.480469 6.046875 25.492188 6.050781 25.503906 C 6.050781 25.507812 6.050781 25.511719 6.054688 25.515625 C 6.054688 25.519531 6.054688 25.523438 6.058594 25.527344 C 6.058594 25.53125 6.0625 25.535156 6.0625 25.539062 C 6.066406 25.546875 6.070312 25.554688 6.078125 25.5625 C 6.082031 25.566406 6.089844 25.574219 6.097656 25.582031 C 7.269531 26.601562 8.5 27.355469 9.773438 27.835938 C 9.902344 27.886719 10.03125 27.933594 10.164062 27.976562 C 10.4375 28.070312 10.714844 28.148438 10.988281 28.210938 C 11.324219 28.292969 11.671875 28.355469 12.023438 28.398438 C 12.132812 28.410156 12.246094 28.421875 12.355469 28.433594 C 12.675781 28.460938 13 28.476562 13.332031 28.476562 C 13.695312 28.476562 14.066406 28.460938 14.441406 28.425781 C 14.558594 28.414062 14.675781 28.402344 14.796875 28.386719 C 14.824219 28.382812 14.855469 28.378906 14.882812 28.375 C 14.984375 28.363281 15.085938 28.347656 15.183594 28.332031 C 16.214844 28.175781 17.273438 27.894531 18.34375 27.484375 C 18.929688 27.261719 19.5 27.007812 20.058594 26.738281 C 20.171875 26.683594 20.285156 26.625 20.398438 26.570312 C 21.523438 26.003906 22.574219 25.378906 23.515625 24.796875 C 23.515625 24.796875 23.519531 24.792969 23.519531 24.792969 C 23.523438 24.792969 23.523438 24.789062 23.527344 24.789062 C 23.527344 24.789062 23.527344 24.785156 23.53125 24.785156 C 23.535156 24.78125 23.539062 24.777344 23.542969 24.773438 C 23.546875 24.773438 23.550781 24.769531 23.554688 24.765625 C 23.558594 24.757812 23.566406 24.75 23.570312 24.742188 C 23.570312 24.738281 23.574219 24.734375 23.574219 24.730469 C 23.574219 24.726562 23.578125 24.726562 23.578125 24.722656 C 23.582031 24.707031 23.585938 24.691406 23.585938 24.675781 C 23.585938 24.667969 23.585938 24.660156 23.585938 24.65625 C 23.582031 24.648438 23.582031 24.640625 23.582031 24.636719 C 23.578125 24.632812 23.578125 24.632812 23.578125 24.628906 C 23.578125 24.625 23.574219 24.621094 23.574219 24.617188 C 23.570312 24.613281 23.570312 24.609375 23.566406 24.605469 C 23.566406 24.601562 23.5625 24.601562 23.5625 24.601562 C 23.5625 24.597656 23.5625 24.597656 23.558594 24.59375 C 23.558594 24.59375 23.558594 24.589844 23.554688 24.589844 C 23.53125 24.554688 23.507812 24.523438 23.480469 24.492188 C 23.320312 24.300781 23.121094 24.136719 22.90625 24.019531 C 22.808594 23.964844 22.703125 23.917969 22.601562 23.875 C 22.390625 23.78125 22.195312 23.695312 22.054688 23.546875 C 21.851562 23.328125 21.792969 23.011719 21.738281 22.652344 L 21.539062 21.328125 C 21.503906 21.066406 21.460938 20.769531 21.316406 20.507812 C 21.078125 20.066406 20.570312 19.769531 19.964844 19.710938 C 19.722656 19.691406 19.460938 19.703125 19.152344 19.75 C 19.078125 19.367188 18.949219 19.082031 18.746094 18.863281 C 18.570312 18.664062 18.328125 18.523438 18.050781 18.460938 L 17.949219 17.574219 C 17.933594 17.429688 17.914062 17.28125 17.941406 17.144531 C 17.957031 17.070312 17.980469 17 18.019531 16.933594 C 18.039062 16.898438 18.058594 16.863281 18.085938 16.832031 C 18.132812 16.839844 18.179688 16.847656 18.226562 16.855469 C 18.632812 16.917969 19.039062 16.882812 19.417969 16.761719 C 19.457031 16.75 19.480469 16.742188 19.492188 16.742188 L 19.492188 16.753906 C 19.488281 16.925781 19.410156 17.085938 19.332031 17.261719 C 19.265625 17.398438 19.199219 17.539062 19.164062 17.695312 C 19.117188 17.898438 19.179688 18.011719 19.242188 18.066406 C 19.300781 18.125 19.378906 18.144531 19.429688 18.15625 C 19.496094 18.167969 19.5625 18.175781 19.625 18.175781 C 19.945312 18.175781 20.25 18.027344 20.492188 17.894531 C 21.53125 17.308594 22.28125 16.441406 22.566406 15.5 C 22.6875 15.488281 22.808594 15.460938 22.925781 15.421875 C 23.449219 15.242188 23.875 14.828125 24.0625 14.304688 C 24.15625 14.046875 24.066406 13.914062 24.003906 13.855469 " fill-opacity="1" fill-rule="nonzero"/></g></svg>