<svg xmlns="http://www.w3.org/2000/svg" xmlns:xlink="http://www.w3.org/1999/xlink" width="100" zoomAndPan="magnify" viewBox="0 0 75 74.999997" height="100" preserveAspectRatio="xMidYMid meet" version="1.0"><defs><clipPath id="id1"><path d="M 6.316406 23.550781 L 68.566406 23.550781 L 68.566406 51.300781 L 6.316406 51.300781 Z M 6.316406 23.550781 " clip-rule="nonzero"/></clipPath><clipPath id="id2"><path d="M 35.183594 26.847656 L 39.683594 26.847656 L 39.683594 31.347656 L 35.183594 31.347656 Z M 35.183594 26.847656 " clip-rule="nonzero"/></clipPath></defs><g clip-path="url(#id1)"><path fill="#9a161f" d="M 68.367188 32.605469 C 68.390625 32.605469 68.429688 32.605469 68.453125 32.605469 L 68.453125 23.550781 L 6.425781 23.550781 L 6.425781 32.640625 C 8.78125 32.9375 10.605469 34.941406 10.605469 37.363281 C 10.605469 39.800781 8.78125 41.804688 6.425781 42.101562 L 6.425781 51.300781 L 68.453125 51.300781 L 68.453125 42.136719 C 68.429688 42.136719 68.40625 42.136719 68.367188 42.136719 C 65.726562 42.136719 63.578125 40 63.578125 37.363281 C 63.578125 34.730469 65.726562 32.605469 68.367188 32.605469 Z M 45.09375 51.078125 L 44.96875 51.078125 L 44.96875 50.832031 L 45.09375 50.832031 Z M 45.09375 50.324219 L 44.96875 50.324219 L 44.96875 49.816406 L 45.09375 49.816406 Z M 45.09375 49.3125 L 44.96875 49.3125 L 44.96875 48.804688 L 45.09375 48.804688 Z M 45.09375 48.296875 L 44.96875 48.296875 L 44.96875 47.789062 L 45.09375 47.789062 Z M 45.09375 47.269531 L 44.96875 47.269531 L 44.96875 46.761719 L 45.09375 46.761719 Z M 45.09375 46.257812 L 44.96875 46.257812 L 44.96875 45.75 L 45.09375 45.75 Z M 45.09375 45.242188 L 44.96875 45.242188 L 44.96875 44.734375 L 45.09375 44.734375 Z M 45.09375 44.226562 L 44.96875 44.226562 L 44.96875 43.722656 L 45.09375 43.722656 Z M 45.09375 43.214844 L 44.96875 43.214844 L 44.96875 42.707031 L 45.09375 42.707031 Z M 45.09375 42.199219 L 44.96875 42.199219 L 44.96875 41.691406 L 45.09375 41.691406 Z M 45.09375 41.1875 L 44.96875 41.1875 L 44.96875 40.679688 L 45.09375 40.679688 Z M 45.09375 40.160156 L 44.96875 40.160156 L 44.96875 39.652344 L 45.09375 39.652344 Z M 45.09375 39.144531 L 44.96875 39.144531 L 44.96875 38.640625 L 45.09375 38.640625 Z M 45.09375 38.132812 L 44.96875 38.132812 L 44.96875 37.625 L 45.09375 37.625 Z M 45.09375 37.117188 L 44.96875 37.117188 L 44.96875 36.609375 L 45.09375 36.609375 Z M 45.09375 36.105469 L 44.96875 36.105469 L 44.96875 35.597656 L 45.09375 35.597656 Z M 45.09375 35.089844 L 44.96875 35.089844 L 44.96875 34.582031 L 45.09375 34.582031 Z M 45.09375 34.074219 L 44.96875 34.074219 L 44.96875 33.570312 L 45.09375 33.570312 Z M 45.09375 33.050781 L 44.96875 33.050781 L 44.96875 32.542969 L 45.09375 32.542969 Z M 45.09375 32.035156 L 44.96875 32.035156 L 44.96875 31.527344 L 45.09375 31.527344 Z M 45.09375 31.019531 L 44.96875 31.019531 L 44.96875 30.515625 L 45.09375 30.515625 Z M 45.09375 30.007812 L 44.96875 30.007812 L 44.96875 29.5 L 45.09375 29.5 Z M 45.09375 28.992188 L 44.96875 28.992188 L 44.96875 28.484375 L 45.09375 28.484375 Z M 45.09375 27.980469 L 44.96875 27.980469 L 44.96875 27.472656 L 45.09375 27.472656 Z M 45.09375 26.964844 L 44.96875 26.964844 L 44.96875 26.457031 L 45.09375 26.457031 Z M 45.09375 25.949219 L 44.96875 25.949219 L 44.96875 25.445312 L 45.09375 25.445312 Z M 45.09375 24.925781 L 44.96875 24.925781 L 44.96875 24.417969 L 45.09375 24.417969 Z M 45.09375 23.910156 L 44.96875 23.910156 L 44.96875 23.664062 L 45.09375 23.664062 Z M 45.09375 23.910156 " fill-opacity="1" fill-rule="nonzero"/></g><g clip-path="url(#id2)"><path fill="#ffffff" d="M 37.433594 26.847656 C 37.214844 28.699219 37.039062 28.878906 35.183594 29.097656 C 35.1875 29.097656 35.191406 29.097656 35.195312 29.097656 C 37.039062 29.316406 37.214844 29.5 37.433594 31.347656 C 37.652344 29.496094 37.832031 29.316406 39.683594 29.097656 C 37.832031 28.878906 37.652344 28.699219 37.433594 26.847656 Z M 37.433594 26.847656 " fill-opacity="1" fill-rule="nonzero"/></g></svg>